<?xml version="1.0" encoding="UTF-8" standalone="no"?><svg xmlns="http://www.w3.org/2000/svg" xmlns:xlink="http://www.w3.org/1999/xlink" contentScriptType="application/ecmascript" contentStyleType="text/css" height="434px" preserveAspectRatio="none" style="width:648px;height:434px;" version="1.1" viewBox="0 0 648 434" width="648px" zoomAndPan="magnify"><defs><filter height="300%" id="fkxrsior9htjv" width="300%" x="-1" y="-1"><feGaussianBlur result="blurOut" stdDeviation="2.0"/><feColorMatrix in="blurOut" result="blurOut2" type="matrix" values="0 0 0 0 0 0 0 0 0 0 0 0 0 0 0 0 0 0 .4 0"/><feOffset dx="4.0" dy="4.0" in="blurOut2" result="blurOut3"/><feBlend in="SourceGraphic" in2="blurOut3" mode="normal"/></filter></defs><g><!--class Actor--><rect fill="#FEFECE" filter="url(#fkxrsior9htjv)" height="103.3438" id="Actor" style="stroke: #A80036; stroke-width: 1.5;" width="187" x="228" y="8"/><ellipse cx="303.25" cy="24" fill="#A9DCDF" rx="11" ry="11" style="stroke: #A80036; stroke-width: 1.0;"/><path d="M305,25.5 L301.7031,25.5 L301.2656,26.5 L301.2656,26.5 L301.7344,26.5 L302.25,27.125 L302.25,27.5 L302.25,27.875 L301.7344,28.5 L301.2656,28.5 L299.375,28.5 L298.7656,28.5 L298.25,27.875 L298.25,27.5 L298.25,27.125 L298.7656,26.5 L299.375,26.5 L301.6875,20.5 L300.8125,20.5 L299.7656,20.5 L299.25,19.875 L299.25,19.5 L299.25,19.125 L299.7656,18.5 L300.8125,18.5 L304.4844,18.5 L307.1719,26.5 L307.7344,26.5 L307.7344,26.5 L308.25,27.125 L308.25,27.5 L308.25,27.875 L307.7344,28.5 L307.1719,28.5 L305.2813,28.5 L304.7656,28.5 L304.25,27.875 L304.25,27.5 L304.25,27.125 L304.7656,26.5 L305.2813,26.5 L305.2813,26.5 L305,25.5 Z M304.4531,23.5 L303.25,19.9219 L302.2188,23.5 L304.4531,23.5 Z "/><text fill="#000000" font-family="sans-serif" font-size="12" font-style="italic" lengthAdjust="spacingAndGlyphs" textLength="28" x="323.75" y="28.9102">Actor</text><line style="stroke: #A80036; stroke-width: 1.5;" x1="229" x2="414" y1="40" y2="40"/><rect fill="none" height="6" style="stroke: #C82930; stroke-width: 1.0;" width="6" x="236" y="49.418"/><text fill="#000000" font-family="sans-serif" font-size="11" lengthAdjust="spacingAndGlyphs" textLength="55" x="248" y="55.4189">type: String</text><line style="stroke: #A80036; stroke-width: 1.5;" x1="229" x2="414" y1="61.8359" y2="61.8359"/><polygon fill="#4177AF" points="239,70.2539,235,76.2539,243,76.2539" style="stroke: #1963A0; stroke-width: 1.0;"/><text fill="#000000" font-family="sans-serif" font-size="11" lengthAdjust="spacingAndGlyphs" textLength="90" x="248" y="77.2549">Actor(type: String)</text><ellipse cx="239" cy="88.0898" fill="#84BE84" rx="3" ry="3" style="stroke: #038048; stroke-width: 1.0;"/><text fill="#000000" font-family="sans-serif" font-size="11" lengthAdjust="spacingAndGlyphs" textLength="161" x="248" y="91.0908">move(level, dir, to, from): boolean</text><ellipse cx="239" cy="101.9258" fill="#84BE84" rx="3" ry="3" style="stroke: #038048; stroke-width: 1.0;"/><text fill="#000000" font-family="sans-serif" font-size="11" lengthAdjust="spacingAndGlyphs" textLength="75" x="248" y="104.9268">getType(): char</text><!--class Player--><rect fill="#FEFECE" filter="url(#fkxrsior9htjv)" height="103.3438" id="Player" style="stroke: #A80036; stroke-width: 1.5;" width="187" x="6" y="171"/><ellipse cx="78.25" cy="187" fill="#ADD1B2" rx="11" ry="11" style="stroke: #A80036; stroke-width: 1.0;"/><path d="M80.25,183.5 Q80.4531,183 80.6875,182.75 Q80.9219,182.5 81.1875,182.5 Q81.6563,182.5 81.9531,182.7813 Q82.25,183.0625 82.25,183.7188 L82.25,185.2813 Q82.25,185.9375 81.9688,186.2188 Q81.6875,186.5 81.25,186.5 Q80.8594,186.5 80.6094,186.3281 Q80.3594,186.1563 80.25,185.7031 Q80.2031,185.3906 80.0313,185.2188 Q79.7188,184.8906 79.1563,184.6953 Q78.5938,184.5 78.0313,184.5 Q77.3281,184.5 76.7422,184.7813 Q76.1563,185.0625 75.7031,185.6875 Q75.25,186.3125 75.25,187.1719 L75.25,188.0938 Q75.25,189.125 76.0938,189.8125 Q76.9375,190.5 78.4375,190.5 Q79.3281,190.5 79.9531,190.2969 Q80.3125,190.1875 80.7188,189.8281 Q80.9844,189.625 81.125,189.5625 Q81.2656,189.5 81.4375,189.5 Q81.7656,189.5 82.0078,189.7578 Q82.25,190.0156 82.25,190.375 Q82.25,190.7188 81.9063,191.125 Q81.4063,191.7188 80.6094,192.0469 Q79.5625,192.5 78.2813,192.5 Q76.7813,192.5 75.5781,191.9063 Q74.6094,191.4375 73.9297,190.4219 Q73.25,189.4063 73.25,188.2031 L73.25,187.1094 Q73.25,185.8594 73.8516,184.7656 Q74.4531,183.6719 75.5078,183.0859 Q76.5625,182.5 77.75,182.5 Q78.4688,182.5 79.0938,182.75 Q79.7188,183 80.25,183.5 Z "/><text fill="#000000" font-family="sans-serif" font-size="12" lengthAdjust="spacingAndGlyphs" textLength="34" x="98.75" y="191.9102">Player</text><line style="stroke: #A80036; stroke-width: 1.5;" x1="7" x2="192" y1="203" y2="203"/><ellipse cx="17" cy="215.418" fill="none" rx="3" ry="3" style="stroke: #038048; stroke-width: 1.0;"/><text fill="#000000" font-family="sans-serif" font-size="11" lengthAdjust="spacingAndGlyphs" text-decoration="underline" textLength="54" x="26" y="218.4189">TYPE: char</text><rect fill="none" height="6" style="stroke: #C82930; stroke-width: 1.0;" width="6" x="14" y="226.2539"/><text fill="#000000" font-family="sans-serif" font-size="11" lengthAdjust="spacingAndGlyphs" textLength="55" x="26" y="232.2549">playerId: int</text><line style="stroke: #A80036; stroke-width: 1.5;" x1="7" x2="192" y1="238.6719" y2="238.6719"/><ellipse cx="17" cy="251.0898" fill="#84BE84" rx="3" ry="3" style="stroke: #038048; stroke-width: 1.0;"/><text fill="#000000" font-family="sans-serif" font-size="11" lengthAdjust="spacingAndGlyphs" textLength="93" x="26" y="254.0908">Player(playerId: int)</text><ellipse cx="17" cy="264.9258" fill="#84BE84" rx="3" ry="3" style="stroke: #038048; stroke-width: 1.0;"/><text fill="#000000" font-family="sans-serif" font-size="11" lengthAdjust="spacingAndGlyphs" textLength="161" x="26" y="267.9268">move(level, dir, to, from): boolean</text><!--class Box--><rect fill="#FEFECE" filter="url(#fkxrsior9htjv)" height="103.3438" id="Box" style="stroke: #A80036; stroke-width: 1.5;" width="187" x="228" y="171"/><ellipse cx="307.25" cy="187" fill="#ADD1B2" rx="11" ry="11" style="stroke: #A80036; stroke-width: 1.0;"/><path d="M309.25,183.5 Q309.4531,183 309.6875,182.75 Q309.9219,182.5 310.1875,182.5 Q310.6563,182.5 310.9531,182.7813 Q311.25,183.0625 311.25,183.7188 L311.25,185.2813 Q311.25,185.9375 310.9688,186.2188 Q310.6875,186.5 310.25,186.5 Q309.8594,186.5 309.6094,186.3281 Q309.3594,186.1563 309.25,185.7031 Q309.2031,185.3906 309.0313,185.2188 Q308.7188,184.8906 308.1563,184.6953 Q307.5938,184.5 307.0313,184.5 Q306.3281,184.5 305.7422,184.7813 Q305.1563,185.0625 304.7031,185.6875 Q304.25,186.3125 304.25,187.1719 L304.25,188.0938 Q304.25,189.125 305.0938,189.8125 Q305.9375,190.5 307.4375,190.5 Q308.3281,190.5 308.9531,190.2969 Q309.3125,190.1875 309.7188,189.8281 Q309.9844,189.625 310.125,189.5625 Q310.2656,189.5 310.4375,189.5 Q310.7656,189.5 311.0078,189.7578 Q311.25,190.0156 311.25,190.375 Q311.25,190.7188 310.9063,191.125 Q310.4063,191.7188 309.6094,192.0469 Q308.5625,192.5 307.2813,192.5 Q305.7813,192.5 304.5781,191.9063 Q303.6094,191.4375 302.9297,190.4219 Q302.25,189.4063 302.25,188.2031 L302.25,187.1094 Q302.25,185.8594 302.8516,184.7656 Q303.4531,183.6719 304.5078,183.0859 Q305.5625,182.5 306.75,182.5 Q307.4688,182.5 308.0938,182.75 Q308.7188,183 309.25,183.5 Z "/><text fill="#000000" font-family="sans-serif" font-size="12" lengthAdjust="spacingAndGlyphs" textLength="20" x="327.75" y="191.9102">Box</text><line style="stroke: #A80036; stroke-width: 1.5;" x1="229" x2="414" y1="203" y2="203"/><ellipse cx="239" cy="215.418" fill="none" rx="3" ry="3" style="stroke: #038048; stroke-width: 1.0;"/><text fill="#000000" font-family="sans-serif" font-size="11" lengthAdjust="spacingAndGlyphs" text-decoration="underline" textLength="54" x="248" y="218.4189">TYPE: char</text><line style="stroke: #A80036; stroke-width: 1.5;" x1="229" x2="414" y1="224.8359" y2="224.8359"/><ellipse cx="239" cy="237.2539" fill="#84BE84" rx="3" ry="3" style="stroke: #038048; stroke-width: 1.0;"/><text fill="#000000" font-family="sans-serif" font-size="11" lengthAdjust="spacingAndGlyphs" textLength="27" x="248" y="240.2549">Box()</text><polygon fill="#FFFF44" points="239,246.0898,243,250.0898,239,254.0898,235,250.0898" style="stroke: #B38D22; stroke-width: 1.0;"/><text fill="#000000" font-family="sans-serif" font-size="11" lengthAdjust="spacingAndGlyphs" textLength="76" x="248" y="254.0908">Box(type: char)</text><ellipse cx="239" cy="264.9258" fill="#84BE84" rx="3" ry="3" style="stroke: #038048; stroke-width: 1.0;"/><text fill="#000000" font-family="sans-serif" font-size="11" lengthAdjust="spacingAndGlyphs" textLength="161" x="248" y="267.9268">move(level, dir, to, from): boolean</text><!--class Key--><rect fill="#FEFECE" filter="url(#fkxrsior9htjv)" height="89.5078" id="Key" style="stroke: #A80036; stroke-width: 1.5;" width="187" x="450" y="177.5"/><ellipse cx="529.25" cy="193.5" fill="#ADD1B2" rx="11" ry="11" style="stroke: #A80036; stroke-width: 1.0;"/><path d="M531.25,190 Q531.4531,189.5 531.6875,189.25 Q531.9219,189 532.1875,189 Q532.6563,189 532.9531,189.2813 Q533.25,189.5625 533.25,190.2188 L533.25,191.7813 Q533.25,192.4375 532.9688,192.7188 Q532.6875,193 532.25,193 Q531.8594,193 531.6094,192.8281 Q531.3594,192.6563 531.25,192.2031 Q531.2031,191.8906 531.0313,191.7188 Q530.7188,191.3906 530.1563,191.1953 Q529.5938,191 529.0313,191 Q528.3281,191 527.7422,191.2813 Q527.1563,191.5625 526.7031,192.1875 Q526.25,192.8125 526.25,193.6719 L526.25,194.5938 Q526.25,195.625 527.0938,196.3125 Q527.9375,197 529.4375,197 Q530.3281,197 530.9531,196.7969 Q531.3125,196.6875 531.7188,196.3281 Q531.9844,196.125 532.125,196.0625 Q532.2656,196 532.4375,196 Q532.7656,196 533.0078,196.2578 Q533.25,196.5156 533.25,196.875 Q533.25,197.2188 532.9063,197.625 Q532.4063,198.2188 531.6094,198.5469 Q530.5625,199 529.2813,199 Q527.7813,199 526.5781,198.4063 Q525.6094,197.9375 524.9297,196.9219 Q524.25,195.9063 524.25,194.7031 L524.25,193.6094 Q524.25,192.3594 524.8516,191.2656 Q525.4531,190.1719 526.5078,189.5859 Q527.5625,189 528.75,189 Q529.4688,189 530.0938,189.25 Q530.7188,189.5 531.25,190 Z "/><text fill="#000000" font-family="sans-serif" font-size="12" lengthAdjust="spacingAndGlyphs" textLength="20" x="549.75" y="198.4102">Key</text><line style="stroke: #A80036; stroke-width: 1.5;" x1="451" x2="636" y1="209.5" y2="209.5"/><ellipse cx="461" cy="221.918" fill="none" rx="3" ry="3" style="stroke: #038048; stroke-width: 1.0;"/><text fill="#000000" font-family="sans-serif" font-size="11" lengthAdjust="spacingAndGlyphs" text-decoration="underline" textLength="54" x="470" y="224.9189">TYPE: char</text><line style="stroke: #A80036; stroke-width: 1.5;" x1="451" x2="636" y1="231.3359" y2="231.3359"/><ellipse cx="461" cy="243.7539" fill="#84BE84" rx="3" ry="3" style="stroke: #038048; stroke-width: 1.0;"/><text fill="#000000" font-family="sans-serif" font-size="11" lengthAdjust="spacingAndGlyphs" textLength="27" x="470" y="246.7549">Key()</text><ellipse cx="461" cy="257.5898" fill="#84BE84" rx="3" ry="3" style="stroke: #038048; stroke-width: 1.0;"/><text fill="#000000" font-family="sans-serif" font-size="11" lengthAdjust="spacingAndGlyphs" textLength="161" x="470" y="260.5908">move(level, dir, to, from): boolean</text><!--class LightBox--><rect fill="#FEFECE" filter="url(#fkxrsior9htjv)" height="89.5078" id="LightBox" style="stroke: #A80036; stroke-width: 1.5;" width="187" x="228" y="334"/><ellipse cx="293.75" cy="350" fill="#ADD1B2" rx="11" ry="11" style="stroke: #A80036; stroke-width: 1.0;"/><path d="M295.75,346.5 Q295.9531,346 296.1875,345.75 Q296.4219,345.5 296.6875,345.5 Q297.1563,345.5 297.4531,345.7813 Q297.75,346.0625 297.75,346.7188 L297.75,348.2813 Q297.75,348.9375 297.4688,349.2188 Q297.1875,349.5 296.75,349.5 Q296.3594,349.5 296.1094,349.3281 Q295.8594,349.1563 295.75,348.7031 Q295.7031,348.3906 295.5313,348.2188 Q295.2188,347.8906 294.6563,347.6953 Q294.0938,347.5 293.5313,347.5 Q292.8281,347.5 292.2422,347.7813 Q291.6563,348.0625 291.2031,348.6875 Q290.75,349.3125 290.75,350.1719 L290.75,351.0938 Q290.75,352.125 291.5938,352.8125 Q292.4375,353.5 293.9375,353.5 Q294.8281,353.5 295.4531,353.2969 Q295.8125,353.1875 296.2188,352.8281 Q296.4844,352.625 296.625,352.5625 Q296.7656,352.5 296.9375,352.5 Q297.2656,352.5 297.5078,352.7578 Q297.75,353.0156 297.75,353.375 Q297.75,353.7188 297.4063,354.125 Q296.9063,354.7188 296.1094,355.0469 Q295.0625,355.5 293.7813,355.5 Q292.2813,355.5 291.0781,354.9063 Q290.1094,354.4375 289.4297,353.4219 Q288.75,352.4063 288.75,351.2031 L288.75,350.1094 Q288.75,348.8594 289.3516,347.7656 Q289.9531,346.6719 291.0078,346.0859 Q292.0625,345.5 293.25,345.5 Q293.9688,345.5 294.5938,345.75 Q295.2188,346 295.75,346.5 Z "/><text fill="#000000" font-family="sans-serif" font-size="12" lengthAdjust="spacingAndGlyphs" textLength="47" x="314.25" y="354.9102">LightBox</text><line style="stroke: #A80036; stroke-width: 1.5;" x1="229" x2="414" y1="366" y2="366"/><ellipse cx="239" cy="378.418" fill="none" rx="3" ry="3" style="stroke: #038048; stroke-width: 1.0;"/><text fill="#000000" font-family="sans-serif" font-size="11" lengthAdjust="spacingAndGlyphs" text-decoration="underline" textLength="54" x="248" y="381.4189">TYPE: char</text><line style="stroke: #A80036; stroke-width: 1.5;" x1="229" x2="414" y1="387.8359" y2="387.8359"/><ellipse cx="239" cy="400.2539" fill="#84BE84" rx="3" ry="3" style="stroke: #038048; stroke-width: 1.0;"/><text fill="#000000" font-family="sans-serif" font-size="11" lengthAdjust="spacingAndGlyphs" textLength="50" x="248" y="403.2549">LightBox()</text><ellipse cx="239" cy="414.0898" fill="#84BE84" rx="3" ry="3" style="stroke: #038048; stroke-width: 1.0;"/><text fill="#000000" font-family="sans-serif" font-size="11" lengthAdjust="spacingAndGlyphs" textLength="161" x="248" y="417.0908">move(level, dir, to, from): boolean</text><!--link Actor to Player--><path d="M235.228,123.066 C213.45,138.861 190.333,155.626 169.467,170.758 " fill="none" id="Actor-Player" style="stroke: #A80036; stroke-width: 1.0;"/><polygon fill="none" points="231.262,117.296,251.563,111.22,239.482,128.629,231.262,117.296" style="stroke: #A80036; stroke-width: 1.0;"/><!--link Actor to Box--><path d="M321.5,131.706 C321.5,144.912 321.5,158.455 321.5,170.89 " fill="none" id="Actor-Box" style="stroke: #A80036; stroke-width: 1.0;"/><polygon fill="none" points="314.5,131.441,321.5,111.441,328.5,131.441,314.5,131.441" style="stroke: #A80036; stroke-width: 1.0;"/><!--link Actor to Key--><path d="M407.924,123.177 C432.843,141.249 459.502,160.583 482.529,177.282 " fill="none" id="Actor-Key" style="stroke: #A80036; stroke-width: 1.0;"/><polygon fill="none" points="403.518,128.629,391.437,111.22,411.738,117.296,403.518,128.629" style="stroke: #A80036; stroke-width: 1.0;"/><!--link Box to LightBox--><path d="M321.5,294.152 C321.5,307.65 321.5,321.419 321.5,333.7944 " fill="none" id="Box-LightBox" style="stroke: #A80036; stroke-width: 1.0;"/><polygon fill="none" points="314.5,294.089,321.5,274.089,328.5,294.089,314.5,294.089" style="stroke: #A80036; stroke-width: 1.0;"/><!--
@startuml

Actor <|- - Player
Actor <|- - Box
Actor <|- - Key
Box <|- - LightBox

abstract class Actor {
    -type: String
    ~Actor(type: String)
    +move(level, dir, to, from): boolean
    +getType(): char
}

class Player {
    +{static} TYPE: char
    -playerId: int
    +Player(playerId: int)
    +move(level, dir, to, from): boolean
}

class Box {
    +{static} TYPE: char
    +Box()
    #Box(type: char)
    +move(level, dir, to, from): boolean
}

class LightBox {
    +{static} TYPE: char
    +LightBox()
    +move(level, dir, to, from): boolean
}

class Key {
    +{static} TYPE: char
    +Key()
    +move(level, dir, to, from): boolean
}
@enduml

PlantUML version 1.2019.04(Fri Mar 29 15:44:36 GMT 2019)
(GPL source distribution)
Java Runtime: OpenJDK Runtime Environment
JVM: OpenJDK 64-Bit Server VM
Java Version: 1.8.0_202-release-1483-b39
Operating System: Windows 10
OS Version: 10.0
Default Encoding: Cp1252
Language: pt
Country: PT
--></g></svg>