<?xml version="1.0" encoding="UTF-8" standalone="no"?><svg xmlns="http://www.w3.org/2000/svg" xmlns:xlink="http://www.w3.org/1999/xlink" contentScriptType="application/ecmascript" contentStyleType="text/css" height="835px" preserveAspectRatio="none" style="width:1037px;height:835px;" version="1.1" viewBox="0 0 1037 835" width="1037px" zoomAndPan="magnify"><defs><filter height="300%" id="fmkte08wxd75w" width="300%" x="-1" y="-1"><feGaussianBlur result="blurOut" stdDeviation="2.0"/><feColorMatrix in="blurOut" result="blurOut2" type="matrix" values="0 0 0 0 0 0 0 0 0 0 0 0 0 0 0 0 0 0 .4 0"/><feOffset dx="4.0" dy="4.0" in="blurOut2" result="blurOut3"/><feBlend in="SourceGraphic" in2="blurOut3" mode="normal"/></filter></defs><g><!--class Tile--><rect fill="#FEFECE" filter="url(#fmkte08wxd75w)" height="32" id="Tile" style="stroke: #A80036; stroke-width: 1.5;" width="52" x="771.5" y="8"/><ellipse cx="786.5" cy="24" fill="#A9DCDF" rx="11" ry="11" style="stroke: #A80036; stroke-width: 1.0;"/><path d="M788.25,25.5 L784.9531,25.5 L784.5156,26.5 L784.5156,26.5 L784.9844,26.5 L785.5,27.125 L785.5,27.5 L785.5,27.875 L784.9844,28.5 L784.5156,28.5 L782.625,28.5 L782.0156,28.5 L781.5,27.875 L781.5,27.5 L781.5,27.125 L782.0156,26.5 L782.625,26.5 L784.9375,20.5 L784.0625,20.5 L783.0156,20.5 L782.5,19.875 L782.5,19.5 L782.5,19.125 L783.0156,18.5 L784.0625,18.5 L787.7344,18.5 L790.4219,26.5 L790.9844,26.5 L790.9844,26.5 L791.5,27.125 L791.5,27.5 L791.5,27.875 L790.9844,28.5 L790.4219,28.5 L788.5313,28.5 L788.0156,28.5 L787.5,27.875 L787.5,27.5 L787.5,27.125 L788.0156,26.5 L788.5313,26.5 L788.5313,26.5 L788.25,25.5 Z M787.7031,23.5 L786.5,19.9219 L785.4688,23.5 L787.7031,23.5 Z "/><text fill="#000000" font-family="sans-serif" font-size="12" font-style="italic" lengthAdjust="spacingAndGlyphs" textLength="20" x="800.5" y="28.9102">Tile</text><!--class CellTile--><rect fill="#FEFECE" filter="url(#fmkte08wxd75w)" height="144.8516" id="CellTile" style="stroke: #A80036; stroke-width: 1.5;" width="189" x="703" y="100"/><ellipse cx="772.25" cy="116" fill="#A9DCDF" rx="11" ry="11" style="stroke: #A80036; stroke-width: 1.0;"/><path d="M774,117.5 L770.7031,117.5 L770.2656,118.5 L770.2656,118.5 L770.7344,118.5 L771.25,119.125 L771.25,119.5 L771.25,119.875 L770.7344,120.5 L770.2656,120.5 L768.375,120.5 L767.7656,120.5 L767.25,119.875 L767.25,119.5 L767.25,119.125 L767.7656,118.5 L768.375,118.5 L770.6875,112.5 L769.8125,112.5 L768.7656,112.5 L768.25,111.875 L768.25,111.5 L768.25,111.125 L768.7656,110.5 L769.8125,110.5 L773.4844,110.5 L776.1719,118.5 L776.7344,118.5 L776.7344,118.5 L777.25,119.125 L777.25,119.5 L777.25,119.875 L776.7344,120.5 L776.1719,120.5 L774.2813,120.5 L773.7656,120.5 L773.25,119.875 L773.25,119.5 L773.25,119.125 L773.7656,118.5 L774.2813,118.5 L774.2813,118.5 L774,117.5 Z M773.4531,115.5 L772.25,111.9219 L771.2188,115.5 L773.4531,115.5 Z "/><text fill="#000000" font-family="sans-serif" font-size="12" font-style="italic" lengthAdjust="spacingAndGlyphs" textLength="42" x="792.75" y="120.9102">CellTile</text><line style="stroke: #A80036; stroke-width: 1.5;" x1="704" x2="891" y1="132" y2="132"/><ellipse cx="714" cy="144.418" fill="none" rx="3" ry="3" style="stroke: #038048; stroke-width: 1.0;"/><text fill="#000000" font-family="sans-serif" font-size="11" lengthAdjust="spacingAndGlyphs" text-decoration="underline" textLength="39" x="723" y="147.4189">SIDE: int</text><rect fill="none" height="6" style="stroke: #C82930; stroke-width: 1.0;" width="6" x="711" y="155.2539"/><text fill="#000000" font-family="sans-serif" font-size="11" lengthAdjust="spacingAndGlyphs" textLength="55" x="723" y="161.2549">tileColor: int</text><polygon fill="none" points="714,167.0898,718,171.0898,714,175.0898,710,171.0898" style="stroke: #B38D22; stroke-width: 1.0;"/><text fill="#000000" font-family="sans-serif" font-size="11" lengthAdjust="spacingAndGlyphs" textLength="39" x="723" y="175.0908">cell: Cell</text><line style="stroke: #A80036; stroke-width: 1.5;" x1="704" x2="891" y1="181.5078" y2="181.5078"/><polygon fill="#4177AF" points="714,189.9258,710,195.9258,718,195.9258" style="stroke: #1963A0; stroke-width: 1.0;"/><text fill="#000000" font-family="sans-serif" font-size="11" lengthAdjust="spacingAndGlyphs" textLength="141" x="723" y="196.9268">CellTile(cell: Cell, tileColor: int)</text><polygon fill="#FFFF44" points="714,202.7617,718,206.7617,714,210.7617,710,206.7617" style="stroke: #B38D22; stroke-width: 1.0;"/><text fill="#000000" font-family="sans-serif" font-size="11" lengthAdjust="spacingAndGlyphs" textLength="21" x="723" y="210.7627">init()</text><polygon fill="#FFFF44" points="714,216.5977,718,220.5977,714,224.5977,710,220.5977" style="stroke: #B38D22; stroke-width: 1.0;"/><text fill="#000000" font-family="sans-serif" font-size="11" lengthAdjust="spacingAndGlyphs" textLength="163" x="723" y="224.5986">printChar(p: char, foreground: int)</text><ellipse cx="714" cy="235.4336" fill="#84BE84" rx="3" ry="3" style="stroke: #038048; stroke-width: 1.0;"/><text fill="#000000" font-family="sans-serif" font-size="11" lengthAdjust="spacingAndGlyphs" text-decoration="underline" textLength="111" x="723" y="238.4346">tileOf(cell: Cell): CellTile</text><!--class PlayableCellTile--><rect fill="#FEFECE" filter="url(#fmkte08wxd75w)" height="109.1797" id="PlayableCellTile" style="stroke: #A80036; stroke-width: 1.5;" width="207" x="488" y="305"/><ellipse cx="541.75" cy="321" fill="#A9DCDF" rx="11" ry="11" style="stroke: #A80036; stroke-width: 1.0;"/><path d="M543.5,322.5 L540.2031,322.5 L539.7656,323.5 L539.7656,323.5 L540.2344,323.5 L540.75,324.125 L540.75,324.5 L540.75,324.875 L540.2344,325.5 L539.7656,325.5 L537.875,325.5 L537.2656,325.5 L536.75,324.875 L536.75,324.5 L536.75,324.125 L537.2656,323.5 L537.875,323.5 L540.1875,317.5 L539.3125,317.5 L538.2656,317.5 L537.75,316.875 L537.75,316.5 L537.75,316.125 L538.2656,315.5 L539.3125,315.5 L542.9844,315.5 L545.6719,323.5 L546.2344,323.5 L546.2344,323.5 L546.75,324.125 L546.75,324.5 L546.75,324.875 L546.2344,325.5 L545.6719,325.5 L543.7813,325.5 L543.2656,325.5 L542.75,324.875 L542.75,324.5 L542.75,324.125 L543.2656,323.5 L543.7813,323.5 L543.7813,323.5 L543.5,322.5 Z M542.9531,320.5 L541.75,316.9219 L540.7188,320.5 L542.9531,320.5 Z "/><text fill="#000000" font-family="sans-serif" font-size="12" font-style="italic" lengthAdjust="spacingAndGlyphs" textLength="91" x="562.25" y="325.9102">PlayableCellTile</text><line style="stroke: #A80036; stroke-width: 1.5;" x1="489" x2="694" y1="337" y2="337"/><polygon fill="#4177AF" points="499,345.418,495,351.418,503,351.418" style="stroke: #1963A0; stroke-width: 1.0;"/><text fill="#000000" font-family="sans-serif" font-size="11" lengthAdjust="spacingAndGlyphs" textLength="181" x="508" y="352.4189">PlayableCellTile(cell: Cell, tileColor: int)</text><ellipse cx="499" cy="363.2539" fill="#84BE84" rx="3" ry="3" style="stroke: #038048; stroke-width: 1.0;"/><text fill="#000000" font-family="sans-serif" font-size="11" lengthAdjust="spacingAndGlyphs" textLength="31" x="508" y="366.2549">paint()</text><polygon fill="#FFFF44" points="499,372.0898,503,376.0898,499,380.0898,495,376.0898" style="stroke: #B38D22; stroke-width: 1.0;"/><text fill="#000000" font-family="sans-serif" font-size="11" lengthAdjust="spacingAndGlyphs" textLength="111" x="508" y="380.0908">setPlayerBackground()</text><polygon fill="#FFFF44" points="499,385.9258,503,389.9258,499,393.9258,495,389.9258" style="stroke: #B38D22; stroke-width: 1.0;"/><text fill="#000000" font-family="sans-serif" font-size="11" lengthAdjust="spacingAndGlyphs" textLength="100" x="508" y="393.9268">setBoxBackground()</text><polygon fill="#FFFF44" points="499,399.7617,503,403.7617,499,407.7617,495,403.7617" style="stroke: #B38D22; stroke-width: 1.0;"/><text fill="#000000" font-family="sans-serif" font-size="11" lengthAdjust="spacingAndGlyphs" textLength="123" x="508" y="407.7627">setLightBoxBackground()</text><!--class EmptyCellTile--><rect fill="#FEFECE" filter="url(#fmkte08wxd75w)" height="53.8359" id="EmptyCellTile" style="stroke: #A80036; stroke-width: 1.5;" width="135" x="730" y="332.5"/><ellipse cx="757.15" cy="348.5" fill="#ADD1B2" rx="11" ry="11" style="stroke: #A80036; stroke-width: 1.0;"/><path d="M759.15,345 Q759.3531,344.5 759.5875,344.25 Q759.8219,344 760.0875,344 Q760.5563,344 760.8531,344.2813 Q761.15,344.5625 761.15,345.2188 L761.15,346.7813 Q761.15,347.4375 760.8688,347.7188 Q760.5875,348 760.15,348 Q759.7594,348 759.5094,347.8281 Q759.2594,347.6563 759.15,347.2031 Q759.1031,346.8906 758.9313,346.7188 Q758.6188,346.3906 758.0563,346.1953 Q757.4938,346 756.9313,346 Q756.2281,346 755.6422,346.2813 Q755.0563,346.5625 754.6031,347.1875 Q754.15,347.8125 754.15,348.6719 L754.15,349.5938 Q754.15,350.625 754.9938,351.3125 Q755.8375,352 757.3375,352 Q758.2281,352 758.8531,351.7969 Q759.2125,351.6875 759.6188,351.3281 Q759.8844,351.125 760.025,351.0625 Q760.1656,351 760.3375,351 Q760.6656,351 760.9078,351.2578 Q761.15,351.5156 761.15,351.875 Q761.15,352.2188 760.8063,352.625 Q760.3063,353.2188 759.5094,353.5469 Q758.4625,354 757.1813,354 Q755.6813,354 754.4781,353.4063 Q753.5094,352.9375 752.8297,351.9219 Q752.15,350.9063 752.15,349.7031 L752.15,348.6094 Q752.15,347.3594 752.7516,346.2656 Q753.3531,345.1719 754.4078,344.5859 Q755.4625,344 756.65,344 Q757.3688,344 757.9938,344.25 Q758.6188,344.5 759.15,345 Z "/><text fill="#000000" font-family="sans-serif" font-size="12" lengthAdjust="spacingAndGlyphs" textLength="76" x="773.85" y="353.4102">EmptyCellTile</text><line style="stroke: #A80036; stroke-width: 1.5;" x1="731" x2="864" y1="364.5" y2="364.5"/><polygon fill="#4177AF" points="741,372.918,737,378.918,745,378.918" style="stroke: #1963A0; stroke-width: 1.0;"/><text fill="#000000" font-family="sans-serif" font-size="11" lengthAdjust="spacingAndGlyphs" textLength="109" x="750" y="379.9189">EmptyCellTile(cell: Cell)</text><!--class FloorCellTile--><rect fill="#FEFECE" filter="url(#fmkte08wxd75w)" height="53.8359" id="FloorCellTile" style="stroke: #A80036; stroke-width: 1.5;" width="130" x="357.5" y="488"/><ellipse cx="385.1" cy="504" fill="#ADD1B2" rx="11" ry="11" style="stroke: #A80036; stroke-width: 1.0;"/><path d="M387.1,500.5 Q387.3031,500 387.5375,499.75 Q387.7719,499.5 388.0375,499.5 Q388.5063,499.5 388.8031,499.7813 Q389.1,500.0625 389.1,500.7188 L389.1,502.2813 Q389.1,502.9375 388.8188,503.2188 Q388.5375,503.5 388.1,503.5 Q387.7094,503.5 387.4594,503.3281 Q387.2094,503.1563 387.1,502.7031 Q387.0531,502.3906 386.8813,502.2188 Q386.5688,501.8906 386.0063,501.6953 Q385.4438,501.5 384.8813,501.5 Q384.1781,501.5 383.5922,501.7813 Q383.0063,502.0625 382.5531,502.6875 Q382.1,503.3125 382.1,504.1719 L382.1,505.0938 Q382.1,506.125 382.9438,506.8125 Q383.7875,507.5 385.2875,507.5 Q386.1781,507.5 386.8031,507.2969 Q387.1625,507.1875 387.5688,506.8281 Q387.8344,506.625 387.975,506.5625 Q388.1156,506.5 388.2875,506.5 Q388.6156,506.5 388.8578,506.7578 Q389.1,507.0156 389.1,507.375 Q389.1,507.7188 388.7563,508.125 Q388.2563,508.7188 387.4594,509.0469 Q386.4125,509.5 385.1313,509.5 Q383.6313,509.5 382.4281,508.9063 Q381.4594,508.4375 380.7797,507.4219 Q380.1,506.4063 380.1,505.2031 L380.1,504.1094 Q380.1,502.8594 380.7016,501.7656 Q381.3031,500.6719 382.3578,500.0859 Q383.4125,499.5 384.6,499.5 Q385.3188,499.5 385.9438,499.75 Q386.5688,500 387.1,500.5 Z "/><text fill="#000000" font-family="sans-serif" font-size="12" lengthAdjust="spacingAndGlyphs" textLength="70" x="401.9" y="508.9102">FloorCellTile</text><line style="stroke: #A80036; stroke-width: 1.5;" x1="358.5" x2="486.5" y1="520" y2="520"/><ellipse cx="368.5" cy="532.418" fill="#84BE84" rx="3" ry="3" style="stroke: #038048; stroke-width: 1.0;"/><text fill="#000000" font-family="sans-serif" font-size="11" lengthAdjust="spacingAndGlyphs" textLength="104" x="377.5" y="535.4189">FloorCellTile(cell: Cell)</text><!--class HoleCellTile--><rect fill="#FEFECE" filter="url(#fmkte08wxd75w)" height="81.5078" id="HoleCellTile" style="stroke: #A80036; stroke-width: 1.5;" width="137" x="523" y="474"/><ellipse cx="554.65" cy="490" fill="#ADD1B2" rx="11" ry="11" style="stroke: #A80036; stroke-width: 1.0;"/><path d="M556.65,486.5 Q556.8531,486 557.0875,485.75 Q557.3219,485.5 557.5875,485.5 Q558.0563,485.5 558.3531,485.7813 Q558.65,486.0625 558.65,486.7188 L558.65,488.2813 Q558.65,488.9375 558.3688,489.2188 Q558.0875,489.5 557.65,489.5 Q557.2594,489.5 557.0094,489.3281 Q556.7594,489.1563 556.65,488.7031 Q556.6031,488.3906 556.4313,488.2188 Q556.1188,487.8906 555.5563,487.6953 Q554.9938,487.5 554.4313,487.5 Q553.7281,487.5 553.1422,487.7813 Q552.5563,488.0625 552.1031,488.6875 Q551.65,489.3125 551.65,490.1719 L551.65,491.0938 Q551.65,492.125 552.4938,492.8125 Q553.3375,493.5 554.8375,493.5 Q555.7281,493.5 556.3531,493.2969 Q556.7125,493.1875 557.1188,492.8281 Q557.3844,492.625 557.525,492.5625 Q557.6656,492.5 557.8375,492.5 Q558.1656,492.5 558.4078,492.7578 Q558.65,493.0156 558.65,493.375 Q558.65,493.7188 558.3063,494.125 Q557.8063,494.7188 557.0094,495.0469 Q555.9625,495.5 554.6813,495.5 Q553.1813,495.5 551.9781,494.9063 Q551.0094,494.4375 550.3297,493.4219 Q549.65,492.4063 549.65,491.2031 L549.65,490.1094 Q549.65,488.8594 550.2516,487.7656 Q550.8531,486.6719 551.9078,486.0859 Q552.9625,485.5 554.15,485.5 Q554.8688,485.5 555.4938,485.75 Q556.1188,486 556.65,486.5 Z "/><text fill="#000000" font-family="sans-serif" font-size="12" lengthAdjust="spacingAndGlyphs" textLength="68" x="572.35" y="494.9102">HoleCellTile</text><line style="stroke: #A80036; stroke-width: 1.5;" x1="524" x2="659" y1="506" y2="506"/><polygon fill="#4177AF" points="534,514.418,530,520.418,538,520.418" style="stroke: #1963A0; stroke-width: 1.0;"/><text fill="#000000" font-family="sans-serif" font-size="11" lengthAdjust="spacingAndGlyphs" textLength="101" x="543" y="521.4189">HoleCellTile(cell: Cell)</text><ellipse cx="534" cy="532.2539" fill="#84BE84" rx="3" ry="3" style="stroke: #038048; stroke-width: 1.0;"/><text fill="#000000" font-family="sans-serif" font-size="11" lengthAdjust="spacingAndGlyphs" textLength="32" x="543" y="535.2549">clear()</text><polygon fill="#FFFF44" points="534,541.0898,538,545.0898,534,549.0898,530,545.0898" style="stroke: #B38D22; stroke-width: 1.0;"/><text fill="#000000" font-family="sans-serif" font-size="11" lengthAdjust="spacingAndGlyphs" textLength="111" x="543" y="549.0908">setPlayerBackground()</text><!--class DoorCellTile--><rect fill="#FEFECE" filter="url(#fmkte08wxd75w)" height="67.6719" id="DoorCellTile" style="stroke: #A80036; stroke-width: 1.5;" width="129" x="695" y="481"/><ellipse cx="722.6" cy="497" fill="#ADD1B2" rx="11" ry="11" style="stroke: #A80036; stroke-width: 1.0;"/><path d="M724.6,493.5 Q724.8031,493 725.0375,492.75 Q725.2719,492.5 725.5375,492.5 Q726.0063,492.5 726.3031,492.7813 Q726.6,493.0625 726.6,493.7188 L726.6,495.2813 Q726.6,495.9375 726.3188,496.2188 Q726.0375,496.5 725.6,496.5 Q725.2094,496.5 724.9594,496.3281 Q724.7094,496.1563 724.6,495.7031 Q724.5531,495.3906 724.3813,495.2188 Q724.0688,494.8906 723.5063,494.6953 Q722.9438,494.5 722.3813,494.5 Q721.6781,494.5 721.0922,494.7813 Q720.5063,495.0625 720.0531,495.6875 Q719.6,496.3125 719.6,497.1719 L719.6,498.0938 Q719.6,499.125 720.4438,499.8125 Q721.2875,500.5 722.7875,500.5 Q723.6781,500.5 724.3031,500.2969 Q724.6625,500.1875 725.0688,499.8281 Q725.3344,499.625 725.475,499.5625 Q725.6156,499.5 725.7875,499.5 Q726.1156,499.5 726.3578,499.7578 Q726.6,500.0156 726.6,500.375 Q726.6,500.7188 726.2563,501.125 Q725.7563,501.7188 724.9594,502.0469 Q723.9125,502.5 722.6313,502.5 Q721.1313,502.5 719.9281,501.9063 Q718.9594,501.4375 718.2797,500.4219 Q717.6,499.4063 717.6,498.2031 L717.6,497.1094 Q717.6,495.8594 718.2016,494.7656 Q718.8031,493.6719 719.8578,493.0859 Q720.9125,492.5 722.1,492.5 Q722.8188,492.5 723.4438,492.75 Q724.0688,493 724.6,493.5 Z "/><text fill="#000000" font-family="sans-serif" font-size="12" lengthAdjust="spacingAndGlyphs" textLength="69" x="739.4" y="501.9102">DoorCellTile</text><line style="stroke: #A80036; stroke-width: 1.5;" x1="696" x2="823" y1="513" y2="513"/><polygon fill="#4177AF" points="706,521.418,702,527.418,710,527.418" style="stroke: #1963A0; stroke-width: 1.0;"/><text fill="#000000" font-family="sans-serif" font-size="11" lengthAdjust="spacingAndGlyphs" textLength="103" x="715" y="528.4189">DoorCellTile(cell: Cell)</text><ellipse cx="706" cy="539.2539" fill="#84BE84" rx="3" ry="3" style="stroke: #038048; stroke-width: 1.0;"/><text fill="#000000" font-family="sans-serif" font-size="11" lengthAdjust="spacingAndGlyphs" textLength="32" x="715" y="542.2549">clear()</text><!--class WallCellTile--><rect fill="#FEFECE" filter="url(#fmkte08wxd75w)" height="53.8359" id="WallCellTile" style="stroke: #A80036; stroke-width: 1.5;" width="126" x="900.5" y="332.5"/><ellipse cx="928.1" cy="348.5" fill="#ADD1B2" rx="11" ry="11" style="stroke: #A80036; stroke-width: 1.0;"/><path d="M930.1,345 Q930.3031,344.5 930.5375,344.25 Q930.7719,344 931.0375,344 Q931.5063,344 931.8031,344.2813 Q932.1,344.5625 932.1,345.2188 L932.1,346.7813 Q932.1,347.4375 931.8188,347.7188 Q931.5375,348 931.1,348 Q930.7094,348 930.4594,347.8281 Q930.2094,347.6563 930.1,347.2031 Q930.0531,346.8906 929.8813,346.7188 Q929.5688,346.3906 929.0063,346.1953 Q928.4438,346 927.8813,346 Q927.1781,346 926.5922,346.2813 Q926.0063,346.5625 925.5531,347.1875 Q925.1,347.8125 925.1,348.6719 L925.1,349.5938 Q925.1,350.625 925.9438,351.3125 Q926.7875,352 928.2875,352 Q929.1781,352 929.8031,351.7969 Q930.1625,351.6875 930.5688,351.3281 Q930.8344,351.125 930.975,351.0625 Q931.1156,351 931.2875,351 Q931.6156,351 931.8578,351.2578 Q932.1,351.5156 932.1,351.875 Q932.1,352.2188 931.7563,352.625 Q931.2563,353.2188 930.4594,353.5469 Q929.4125,354 928.1313,354 Q926.6313,354 925.4281,353.4063 Q924.4594,352.9375 923.7797,351.9219 Q923.1,350.9063 923.1,349.7031 L923.1,348.6094 Q923.1,347.3594 923.7016,346.2656 Q924.3031,345.1719 925.3578,344.5859 Q926.4125,344 927.6,344 Q928.3188,344 928.9438,344.25 Q929.5688,344.5 930.1,345 Z "/><text fill="#000000" font-family="sans-serif" font-size="12" lengthAdjust="spacingAndGlyphs" textLength="66" x="944.9" y="353.4102">WallCellTile</text><line style="stroke: #A80036; stroke-width: 1.5;" x1="901.5" x2="1025.5" y1="364.5" y2="364.5"/><polygon fill="#4177AF" points="911.5,372.918,907.5,378.918,915.5,378.918" style="stroke: #1963A0; stroke-width: 1.0;"/><text fill="#000000" font-family="sans-serif" font-size="11" lengthAdjust="spacingAndGlyphs" textLength="100" x="920.5" y="379.9189">WallCellTile(cell: Cell)</text><!--class DirectionalCellTile--><rect fill="#FEFECE" filter="url(#fmkte08wxd75w)" height="89.5078" id="DirectionalCellTile" style="stroke: #A80036; stroke-width: 1.5;" width="231" x="194" y="618.5"/><ellipse cx="254.75" cy="634.5" fill="#A9DCDF" rx="11" ry="11" style="stroke: #A80036; stroke-width: 1.0;"/><path d="M256.5,636 L253.2031,636 L252.7656,637 L252.7656,637 L253.2344,637 L253.75,637.625 L253.75,638 L253.75,638.375 L253.2344,639 L252.7656,639 L250.875,639 L250.2656,639 L249.75,638.375 L249.75,638 L249.75,637.625 L250.2656,637 L250.875,637 L253.1875,631 L252.3125,631 L251.2656,631 L250.75,630.375 L250.75,630 L250.75,629.625 L251.2656,629 L252.3125,629 L255.9844,629 L258.6719,637 L259.2344,637 L259.2344,637 L259.75,637.625 L259.75,638 L259.75,638.375 L259.2344,639 L258.6719,639 L256.7813,639 L256.2656,639 L255.75,638.375 L255.75,638 L255.75,637.625 L256.2656,637 L256.7813,637 L256.7813,637 L256.5,636 Z M255.9531,634 L254.75,630.4219 L253.7188,634 L255.9531,634 Z "/><text fill="#000000" font-family="sans-serif" font-size="12" font-style="italic" lengthAdjust="spacingAndGlyphs" textLength="101" x="275.25" y="639.4102">DirectionalCellTile</text><line style="stroke: #A80036; stroke-width: 1.5;" x1="195" x2="424" y1="650.5" y2="650.5"/><rect fill="none" height="6" style="stroke: #C82930; stroke-width: 1.0;" width="6" x="202" y="659.918"/><text fill="#000000" font-family="sans-serif" font-size="11" lengthAdjust="spacingAndGlyphs" textLength="69" x="214" y="665.9189">direction: char</text><line style="stroke: #A80036; stroke-width: 1.5;" x1="195" x2="424" y1="672.3359" y2="672.3359"/><polygon fill="#4177AF" points="205,680.7539,201,686.7539,209,686.7539" style="stroke: #1963A0; stroke-width: 1.0;"/><text fill="#000000" font-family="sans-serif" font-size="11" lengthAdjust="spacingAndGlyphs" textLength="205" x="214" y="687.7549">DirectionalCellTile(cell: Cell, direction: char)</text><ellipse cx="205" cy="698.5898" fill="#84BE84" rx="3" ry="3" style="stroke: #038048; stroke-width: 1.0;"/><text fill="#000000" font-family="sans-serif" font-size="11" lengthAdjust="spacingAndGlyphs" textLength="32" x="214" y="701.5908">clear()</text><!--class UpCellTile--><rect fill="#FEFECE" filter="url(#fmkte08wxd75w)" height="53.8359" id="UpCellTile" style="stroke: #A80036; stroke-width: 1.5;" width="119" x="6" y="771"/><ellipse cx="34.05" cy="787" fill="#ADD1B2" rx="11" ry="11" style="stroke: #A80036; stroke-width: 1.0;"/><path d="M36.05,783.5 Q36.2531,783 36.4875,782.75 Q36.7219,782.5 36.9875,782.5 Q37.4563,782.5 37.7531,782.7813 Q38.05,783.0625 38.05,783.7188 L38.05,785.2813 Q38.05,785.9375 37.7688,786.2188 Q37.4875,786.5 37.05,786.5 Q36.6594,786.5 36.4094,786.3281 Q36.1594,786.1563 36.05,785.7031 Q36.0031,785.3906 35.8313,785.2188 Q35.5188,784.8906 34.9563,784.6953 Q34.3938,784.5 33.8313,784.5 Q33.1281,784.5 32.5422,784.7813 Q31.9562,785.0625 31.5031,785.6875 Q31.05,786.3125 31.05,787.1719 L31.05,788.0938 Q31.05,789.125 31.8937,789.8125 Q32.7375,790.5 34.2375,790.5 Q35.1281,790.5 35.7531,790.2969 Q36.1125,790.1875 36.5188,789.8281 Q36.7844,789.625 36.925,789.5625 Q37.0656,789.5 37.2375,789.5 Q37.5656,789.5 37.8078,789.7578 Q38.05,790.0156 38.05,790.375 Q38.05,790.7188 37.7063,791.125 Q37.2063,791.7188 36.4094,792.0469 Q35.3625,792.5 34.0813,792.5 Q32.5813,792.5 31.3781,791.9063 Q30.4094,791.4375 29.7297,790.4219 Q29.05,789.4063 29.05,788.2031 L29.05,787.1094 Q29.05,785.8594 29.6516,784.7656 Q30.2531,783.6719 31.3078,783.0859 Q32.3625,782.5 33.55,782.5 Q34.2688,782.5 34.8938,782.75 Q35.5188,783 36.05,783.5 Z "/><text fill="#000000" font-family="sans-serif" font-size="12" lengthAdjust="spacingAndGlyphs" textLength="58" x="50.95" y="791.9102">UpCellTile</text><line style="stroke: #A80036; stroke-width: 1.5;" x1="7" x2="124" y1="803" y2="803"/><ellipse cx="17" cy="815.418" fill="#84BE84" rx="3" ry="3" style="stroke: #038048; stroke-width: 1.0;"/><text fill="#000000" font-family="sans-serif" font-size="11" lengthAdjust="spacingAndGlyphs" textLength="93" x="26" y="818.4189">UpCellTile(cell: Cell)</text><!--class DownCellTile--><rect fill="#FEFECE" filter="url(#fmkte08wxd75w)" height="53.8359" id="DownCellTile" style="stroke: #A80036; stroke-width: 1.5;" width="135" x="160" y="771"/><ellipse cx="188.05" cy="787" fill="#ADD1B2" rx="11" ry="11" style="stroke: #A80036; stroke-width: 1.0;"/><path d="M190.05,783.5 Q190.2531,783 190.4875,782.75 Q190.7219,782.5 190.9875,782.5 Q191.4563,782.5 191.7531,782.7813 Q192.05,783.0625 192.05,783.7188 L192.05,785.2813 Q192.05,785.9375 191.7688,786.2188 Q191.4875,786.5 191.05,786.5 Q190.6594,786.5 190.4094,786.3281 Q190.1594,786.1563 190.05,785.7031 Q190.0031,785.3906 189.8313,785.2188 Q189.5188,784.8906 188.9563,784.6953 Q188.3938,784.5 187.8313,784.5 Q187.1281,784.5 186.5422,784.7813 Q185.9563,785.0625 185.5031,785.6875 Q185.05,786.3125 185.05,787.1719 L185.05,788.0938 Q185.05,789.125 185.8938,789.8125 Q186.7375,790.5 188.2375,790.5 Q189.1281,790.5 189.7531,790.2969 Q190.1125,790.1875 190.5188,789.8281 Q190.7844,789.625 190.925,789.5625 Q191.0656,789.5 191.2375,789.5 Q191.5656,789.5 191.8078,789.7578 Q192.05,790.0156 192.05,790.375 Q192.05,790.7188 191.7063,791.125 Q191.2063,791.7188 190.4094,792.0469 Q189.3625,792.5 188.0813,792.5 Q186.5813,792.5 185.3781,791.9063 Q184.4094,791.4375 183.7297,790.4219 Q183.05,789.4063 183.05,788.2031 L183.05,787.1094 Q183.05,785.8594 183.6516,784.7656 Q184.2531,783.6719 185.3078,783.0859 Q186.3625,782.5 187.55,782.5 Q188.2688,782.5 188.8938,782.75 Q189.5188,783 190.05,783.5 Z "/><text fill="#000000" font-family="sans-serif" font-size="12" lengthAdjust="spacingAndGlyphs" textLength="74" x="204.95" y="791.9102">DownCellTile</text><line style="stroke: #A80036; stroke-width: 1.5;" x1="161" x2="294" y1="803" y2="803"/><ellipse cx="171" cy="815.418" fill="#84BE84" rx="3" ry="3" style="stroke: #038048; stroke-width: 1.0;"/><text fill="#000000" font-family="sans-serif" font-size="11" lengthAdjust="spacingAndGlyphs" textLength="109" x="180" y="818.4189">DownCellTile(cell: Cell)</text><!--class LeftCellTile--><rect fill="#FEFECE" filter="url(#fmkte08wxd75w)" height="53.8359" id="LeftCellTile" style="stroke: #A80036; stroke-width: 1.5;" width="125" x="330" y="771"/><ellipse cx="358.95" cy="787" fill="#ADD1B2" rx="11" ry="11" style="stroke: #A80036; stroke-width: 1.0;"/><path d="M360.95,783.5 Q361.1531,783 361.3875,782.75 Q361.6219,782.5 361.8875,782.5 Q362.3563,782.5 362.6531,782.7813 Q362.95,783.0625 362.95,783.7188 L362.95,785.2813 Q362.95,785.9375 362.6688,786.2188 Q362.3875,786.5 361.95,786.5 Q361.5594,786.5 361.3094,786.3281 Q361.0594,786.1563 360.95,785.7031 Q360.9031,785.3906 360.7313,785.2188 Q360.4188,784.8906 359.8563,784.6953 Q359.2938,784.5 358.7313,784.5 Q358.0281,784.5 357.4422,784.7813 Q356.8563,785.0625 356.4031,785.6875 Q355.95,786.3125 355.95,787.1719 L355.95,788.0938 Q355.95,789.125 356.7938,789.8125 Q357.6375,790.5 359.1375,790.5 Q360.0281,790.5 360.6531,790.2969 Q361.0125,790.1875 361.4188,789.8281 Q361.6844,789.625 361.825,789.5625 Q361.9656,789.5 362.1375,789.5 Q362.4656,789.5 362.7078,789.7578 Q362.95,790.0156 362.95,790.375 Q362.95,790.7188 362.6063,791.125 Q362.1063,791.7188 361.3094,792.0469 Q360.2625,792.5 358.9813,792.5 Q357.4813,792.5 356.2781,791.9063 Q355.3094,791.4375 354.6297,790.4219 Q353.95,789.4063 353.95,788.2031 L353.95,787.1094 Q353.95,785.8594 354.5516,784.7656 Q355.1531,783.6719 356.2078,783.0859 Q357.2625,782.5 358.45,782.5 Q359.1688,782.5 359.7938,782.75 Q360.4188,783 360.95,783.5 Z "/><text fill="#000000" font-family="sans-serif" font-size="12" lengthAdjust="spacingAndGlyphs" textLength="62" x="376.05" y="791.9102">LeftCellTile</text><line style="stroke: #A80036; stroke-width: 1.5;" x1="331" x2="454" y1="803" y2="803"/><ellipse cx="341" cy="815.418" fill="#84BE84" rx="3" ry="3" style="stroke: #038048; stroke-width: 1.0;"/><text fill="#000000" font-family="sans-serif" font-size="11" lengthAdjust="spacingAndGlyphs" textLength="99" x="350" y="818.4189">LeftCellTile(cell: Cell)</text><!--class RightCellTile--><rect fill="#FEFECE" filter="url(#fmkte08wxd75w)" height="53.8359" id="RightCellTile" style="stroke: #A80036; stroke-width: 1.5;" width="130" x="490.5" y="771"/><ellipse cx="517.65" cy="787" fill="#ADD1B2" rx="11" ry="11" style="stroke: #A80036; stroke-width: 1.0;"/><path d="M519.65,783.5 Q519.8531,783 520.0875,782.75 Q520.3219,782.5 520.5875,782.5 Q521.0563,782.5 521.3531,782.7813 Q521.65,783.0625 521.65,783.7188 L521.65,785.2813 Q521.65,785.9375 521.3688,786.2188 Q521.0875,786.5 520.65,786.5 Q520.2594,786.5 520.0094,786.3281 Q519.7594,786.1563 519.65,785.7031 Q519.6031,785.3906 519.4313,785.2188 Q519.1188,784.8906 518.5563,784.6953 Q517.9938,784.5 517.4313,784.5 Q516.7281,784.5 516.1422,784.7813 Q515.5563,785.0625 515.1031,785.6875 Q514.65,786.3125 514.65,787.1719 L514.65,788.0938 Q514.65,789.125 515.4938,789.8125 Q516.3375,790.5 517.8375,790.5 Q518.7281,790.5 519.3531,790.2969 Q519.7125,790.1875 520.1188,789.8281 Q520.3844,789.625 520.525,789.5625 Q520.6656,789.5 520.8375,789.5 Q521.1656,789.5 521.4078,789.7578 Q521.65,790.0156 521.65,790.375 Q521.65,790.7188 521.3063,791.125 Q520.8063,791.7188 520.0094,792.0469 Q518.9625,792.5 517.6813,792.5 Q516.1813,792.5 514.9781,791.9063 Q514.0094,791.4375 513.3297,790.4219 Q512.65,789.4063 512.65,788.2031 L512.65,787.1094 Q512.65,785.8594 513.2516,784.7656 Q513.8531,783.6719 514.9078,783.0859 Q515.9625,782.5 517.15,782.5 Q517.8688,782.5 518.4938,782.75 Q519.1188,783 519.65,783.5 Z "/><text fill="#000000" font-family="sans-serif" font-size="12" lengthAdjust="spacingAndGlyphs" textLength="71" x="534.35" y="791.9102">RightCellTile</text><line style="stroke: #A80036; stroke-width: 1.5;" x1="491.5" x2="619.5" y1="803" y2="803"/><ellipse cx="501.5" cy="815.418" fill="#84BE84" rx="3" ry="3" style="stroke: #038048; stroke-width: 1.0;"/><text fill="#000000" font-family="sans-serif" font-size="11" lengthAdjust="spacingAndGlyphs" textLength="104" x="510.5" y="818.4189">RightCellTile(cell: Cell)</text><!--class ObjectiveCellTile--><rect fill="#FEFECE" filter="url(#fmkte08wxd75w)" height="95.3438" id="ObjectiveCellTile" style="stroke: #A80036; stroke-width: 1.5;" width="151" x="460" y="616"/><ellipse cx="487.15" cy="632" fill="#ADD1B2" rx="11" ry="11" style="stroke: #A80036; stroke-width: 1.0;"/><path d="M489.15,628.5 Q489.3531,628 489.5875,627.75 Q489.8219,627.5 490.0875,627.5 Q490.5563,627.5 490.8531,627.7813 Q491.15,628.0625 491.15,628.7188 L491.15,630.2813 Q491.15,630.9375 490.8688,631.2188 Q490.5875,631.5 490.15,631.5 Q489.7594,631.5 489.5094,631.3281 Q489.2594,631.1563 489.15,630.7031 Q489.1031,630.3906 488.9313,630.2188 Q488.6188,629.8906 488.0563,629.6953 Q487.4938,629.5 486.9313,629.5 Q486.2281,629.5 485.6422,629.7813 Q485.0563,630.0625 484.6031,630.6875 Q484.15,631.3125 484.15,632.1719 L484.15,633.0938 Q484.15,634.125 484.9938,634.8125 Q485.8375,635.5 487.3375,635.5 Q488.2281,635.5 488.8531,635.2969 Q489.2125,635.1875 489.6188,634.8281 Q489.8844,634.625 490.025,634.5625 Q490.1656,634.5 490.3375,634.5 Q490.6656,634.5 490.9078,634.7578 Q491.15,635.0156 491.15,635.375 Q491.15,635.7188 490.8063,636.125 Q490.3063,636.7188 489.5094,637.0469 Q488.4625,637.5 487.1813,637.5 Q485.6813,637.5 484.4781,636.9063 Q483.5094,636.4375 482.8297,635.4219 Q482.15,634.4063 482.15,633.2031 L482.15,632.1094 Q482.15,630.8594 482.7516,629.7656 Q483.3531,628.6719 484.4078,628.0859 Q485.4625,627.5 486.65,627.5 Q487.3688,627.5 487.9938,627.75 Q488.6188,628 489.15,628.5 Z "/><text fill="#000000" font-family="sans-serif" font-size="12" lengthAdjust="spacingAndGlyphs" textLength="92" x="503.85" y="636.9102">ObjectiveCellTile</text><line style="stroke: #A80036; stroke-width: 1.5;" x1="461" x2="610" y1="648" y2="648"/><polygon fill="#4177AF" points="471,656.418,467,662.418,475,662.418" style="stroke: #1963A0; stroke-width: 1.0;"/><text fill="#000000" font-family="sans-serif" font-size="11" lengthAdjust="spacingAndGlyphs" textLength="125" x="480" y="663.4189">ObjectiveCellTile(cell: Cell)</text><ellipse cx="471" cy="674.2539" fill="#84BE84" rx="3" ry="3" style="stroke: #038048; stroke-width: 1.0;"/><text fill="#000000" font-family="sans-serif" font-size="11" lengthAdjust="spacingAndGlyphs" textLength="32" x="480" y="677.2549">clear()</text><polygon fill="#FFFF44" points="471,683.0898,475,687.0898,471,691.0898,467,687.0898" style="stroke: #B38D22; stroke-width: 1.0;"/><text fill="#000000" font-family="sans-serif" font-size="11" lengthAdjust="spacingAndGlyphs" textLength="100" x="480" y="691.0908">setBoxBackground()</text><polygon fill="#FFFF44" points="471,696.9258,475,700.9258,471,704.9258,467,700.9258" style="stroke: #B38D22; stroke-width: 1.0;"/><text fill="#000000" font-family="sans-serif" font-size="11" lengthAdjust="spacingAndGlyphs" textLength="123" x="480" y="704.9268">setLightBoxBackground()</text><!--link Tile to CellTile--><path d="M797.5,60.323 C797.5,72.285 797.5,86.111 797.5,99.861 " fill="none" id="Tile-CellTile" style="stroke: #A80036; stroke-width: 1.0;"/><polygon fill="none" points="790.5,60.126,797.5,40.126,804.5,60.126,790.5,60.126" style="stroke: #A80036; stroke-width: 1.0;"/><!--link CellTile to PlayableCellTile--><path d="M702.854,258.498 C685.246,274.311 667.31,290.418 651.123,304.955 " fill="none" id="CellTile-PlayableCellTile" style="stroke: #A80036; stroke-width: 1.0;"/><polygon fill="none" points="698.298,253.181,717.855,245.026,707.652,263.597,698.298,253.181" style="stroke: #A80036; stroke-width: 1.0;"/><!--link CellTile to EmptyCellTile--><path d="M797.5,265.124 C797.5,289.805 797.5,314.57 797.5,332.388 " fill="none" id="CellTile-EmptyCellTile" style="stroke: #A80036; stroke-width: 1.0;"/><polygon fill="none" points="790.5,265.026,797.5,245.026,804.5,265.026,790.5,265.026" style="stroke: #A80036; stroke-width: 1.0;"/><!--link PlayableCellTile to FloorCellTile--><path d="M517.31,427.886 C494.01,449.048 469.65,471.175 451.456,487.7 " fill="none" id="PlayableCellTile-FloorCellTile" style="stroke: #A80036; stroke-width: 1.0;"/><polygon fill="none" points="512.881,422.452,532.392,414.187,522.294,432.815,512.881,422.452" style="stroke: #A80036; stroke-width: 1.0;"/><!--link PlayableCellTile to HoleCellTile--><path d="M591.5,434.405 C591.5,447.93 591.5,461.573 591.5,473.651 " fill="none" id="PlayableCellTile-HoleCellTile" style="stroke: #A80036; stroke-width: 1.0;"/><polygon fill="none" points="584.5,434.187,591.5,414.187,598.5,434.187,584.5,434.187" style="stroke: #A80036; stroke-width: 1.0;"/><!--link PlayableCellTile to DoorCellTile--><path d="M665.031,427.684 C685.123,446.042 706.026,465.141 723.047,480.693 " fill="none" id="PlayableCellTile-DoorCellTile" style="stroke: #A80036; stroke-width: 1.0;"/><polygon fill="none" points="660.302,432.845,650.258,414.187,669.745,422.51,660.302,432.845" style="stroke: #A80036; stroke-width: 1.0;"/><!--link CellTile to WallCellTile--><path d="M875.09,259.97 C898.735,286.322 922.968,313.329 940.07,332.388 " fill="none" id="CellTile-WallCellTile" style="stroke: #A80036; stroke-width: 1.0;"/><polygon fill="none" points="869.827,264.587,861.68,245.026,880.247,255.237,869.827,264.587" style="stroke: #A80036; stroke-width: 1.0;"/><!--link DirectionalCellTile to UpCellTile--><path d="M210.537,718.24 C177.141,736.3755 141.353,755.8091 113.684,770.8346 " fill="none" id="DirectionalCellTile-UpCellTile" style="stroke: #A80036; stroke-width: 1.0;"/><polygon fill="none" points="207.335,712.013,228.252,708.621,214.016,724.316,207.335,712.013" style="stroke: #A80036; stroke-width: 1.0;"/><!--link DirectionalCellTile to DownCellTile--><path d="M271.55,725.8209 C261.745,741.6646 251.706,757.8864 243.693,770.8346 " fill="none" id="DirectionalCellTile-DownCellTile" style="stroke: #A80036; stroke-width: 1.0;"/><polygon fill="none" points="265.718,721.944,282.195,708.621,277.623,729.311,265.718,721.944" style="stroke: #A80036; stroke-width: 1.0;"/><!--link DirectionalCellTile to LeftCellTile--><path d="M347.912,725.8209 C357.837,741.6646 367.999,757.8864 376.11,770.8346 " fill="none" id="DirectionalCellTile-LeftCellTile" style="stroke: #A80036; stroke-width: 1.0;"/><polygon fill="none" points="341.823,729.2858,337.138,708.621,353.687,721.854,341.823,729.2858" style="stroke: #A80036; stroke-width: 1.0;"/><!--link DirectionalCellTile to RightCellTile--><path d="M409.274,718.24 C442.944,736.3755 479.025,755.8091 506.921,770.8346 " fill="none" id="DirectionalCellTile-RightCellTile" style="stroke: #A80036; stroke-width: 1.0;"/><polygon fill="none" points="405.703,724.268,391.414,708.621,412.342,711.942,405.703,724.268" style="stroke: #A80036; stroke-width: 1.0;"/><!--link FloorCellTile to DirectionalCellTile--><path d="M390.038,558.085 C375.455,576.992 358.245,599.304 343.486,618.438 " fill="none" id="FloorCellTile-DirectionalCellTile" style="stroke: #A80036; stroke-width: 1.0;"/><polygon fill="none" points="384.54,553.752,402.298,542.191,395.625,562.303,384.54,553.752" style="stroke: #A80036; stroke-width: 1.0;"/><!--link FloorCellTile to ObjectiveCellTile--><path d="M454.932,558.046 C468.858,576.101 485.183,597.266 499.484,615.807 " fill="none" id="FloorCellTile-ObjectiveCellTile" style="stroke: #A80036; stroke-width: 1.0;"/><polygon fill="none" points="449.375,562.303,442.702,542.191,460.46,553.752,449.375,562.303" style="stroke: #A80036; stroke-width: 1.0;"/><!--
@startuml
hide empty members

Tile <|- - CellTile

CellTile <|- - PlayableCellTile
CellTile <|- - EmptyCellTile
PlayableCellTile <|- - FloorCellTile
PlayableCellTile <|- - HoleCellTile
PlayableCellTile <|- - DoorCellTile
CellTile <|- - WallCellTile

DirectionalCellTile <|- - UpCellTile
DirectionalCellTile <|- - DownCellTile
DirectionalCellTile <|- - LeftCellTile
DirectionalCellTile <|- - RightCellTile

FloorCellTile <|- - DirectionalCellTile
FloorCellTile <|- - ObjectiveCellTile

abstract class Tile

abstract class CellTile {
    +{static} SIDE: int
    -tileColor: int
    #cell: Cell

    ~CellTile(cell: Cell, tileColor: int)
    #init()
    #printChar(p: char, foreground: int)
    +{static} tileOf(cell: Cell): CellTile
}

abstract class PlayableCellTile {
    ~PlayableCellTile(cell: Cell, tileColor: int)
    +paint()
    #setPlayerBackground()
    #setBoxBackground()
    #setLightBoxBackground()
}

abstract class DirectionalCellTile {
    -direction: char
    ~DirectionalCellTile(cell: Cell, direction: char)
    +clear()
}

class FloorCellTile {
    +FloorCellTile(cell: Cell)
}

class UpCellTile {
    +UpCellTile(cell: Cell)
}

class DownCellTile {
    +DownCellTile(cell: Cell)
}

class LeftCellTile {
    +LeftCellTile(cell: Cell)
}

class RightCellTile {
    +RightCellTile(cell: Cell)
}

class EmptyCellTile {
    ~EmptyCellTile(cell: Cell)
}

class WallCellTile {
    ~WallCellTile(cell: Cell)
}

class HoleCellTile {
    ~HoleCellTile(cell: Cell)
    +clear()
    #setPlayerBackground()
}

class DoorCellTile {
    ~DoorCellTile(cell: Cell)
    +clear()
}

class ObjectiveCellTile {
    ~ObjectiveCellTile(cell: Cell)
    +clear()
    #setBoxBackground()
    #setLightBoxBackground()
}

@enduml

PlantUML version 1.2019.04(Fri Mar 29 15:44:36 GMT 2019)
(GPL source distribution)
Java Runtime: OpenJDK Runtime Environment
JVM: OpenJDK 64-Bit Server VM
Java Version: 1.8.0_202-release-1483-b39
Operating System: Windows 10
OS Version: 10.0
Default Encoding: Cp1252
Language: en
Country: US
--></g></svg>