<?xml version="1.0" encoding="UTF-8" standalone="no"?><svg xmlns="http://www.w3.org/2000/svg" xmlns:xlink="http://www.w3.org/1999/xlink" contentScriptType="application/ecmascript" contentStyleType="text/css" height="762px" preserveAspectRatio="none" style="width:1007px;height:762px;" version="1.1" viewBox="0 0 1007 762" width="1007px" zoomAndPan="magnify"><defs><filter height="300%" id="f17hhcpayotod" width="300%" x="-1" y="-1"><feGaussianBlur result="blurOut" stdDeviation="2.0"/><feColorMatrix in="blurOut" result="blurOut2" type="matrix" values="0 0 0 0 0 0 0 0 0 0 0 0 0 0 0 0 0 0 .4 0"/><feOffset dx="4.0" dy="4.0" in="blurOut2" result="blurOut3"/><feBlend in="SourceGraphic" in2="blurOut3" mode="normal"/></filter></defs><g><!--class Tile--><rect fill="#FEFECE" filter="url(#f17hhcpayotod)" height="48" id="Tile" style="stroke: #A80036; stroke-width: 1.5;" width="52" x="741.5" y="8"/><ellipse cx="756.5" cy="24" fill="#A9DCDF" rx="11" ry="11" style="stroke: #A80036; stroke-width: 1.0;"/><path d="M758.25,25.5 L754.9531,25.5 L754.5156,26.5 L754.5156,26.5 L754.9844,26.5 L755.5,27.125 L755.5,27.5 L755.5,27.875 L754.9844,28.5 L754.5156,28.5 L752.625,28.5 L752.0156,28.5 L751.5,27.875 L751.5,27.5 L751.5,27.125 L752.0156,26.5 L752.625,26.5 L754.9375,20.5 L754.0625,20.5 L753.0156,20.5 L752.5,19.875 L752.5,19.5 L752.5,19.125 L753.0156,18.5 L754.0625,18.5 L757.7344,18.5 L760.4219,26.5 L760.9844,26.5 L760.9844,26.5 L761.5,27.125 L761.5,27.5 L761.5,27.875 L760.9844,28.5 L760.4219,28.5 L758.5313,28.5 L758.0156,28.5 L757.5,27.875 L757.5,27.5 L757.5,27.125 L758.0156,26.5 L758.5313,26.5 L758.5313,26.5 L758.25,25.5 Z M757.7031,23.5 L756.5,19.9219 L755.4688,23.5 L757.7031,23.5 Z "/><text fill="#000000" font-family="sans-serif" font-size="12" font-style="italic" lengthAdjust="spacingAndGlyphs" textLength="20" x="770.5" y="28.9102">Tile</text><line style="stroke: #A80036; stroke-width: 1.5;" x1="742.5" x2="792.5" y1="40" y2="40"/><line style="stroke: #A80036; stroke-width: 1.5;" x1="742.5" x2="792.5" y1="48" y2="48"/><!--class CellTile--><rect fill="#FEFECE" filter="url(#f17hhcpayotod)" height="144.8516" id="CellTile" style="stroke: #A80036; stroke-width: 1.5;" width="189" x="673" y="116"/><ellipse cx="742.25" cy="132" fill="#A9DCDF" rx="11" ry="11" style="stroke: #A80036; stroke-width: 1.0;"/><path d="M744,133.5 L740.7031,133.5 L740.2656,134.5 L740.2656,134.5 L740.7344,134.5 L741.25,135.125 L741.25,135.5 L741.25,135.875 L740.7344,136.5 L740.2656,136.5 L738.375,136.5 L737.7656,136.5 L737.25,135.875 L737.25,135.5 L737.25,135.125 L737.7656,134.5 L738.375,134.5 L740.6875,128.5 L739.8125,128.5 L738.7656,128.5 L738.25,127.875 L738.25,127.5 L738.25,127.125 L738.7656,126.5 L739.8125,126.5 L743.4844,126.5 L746.1719,134.5 L746.7344,134.5 L746.7344,134.5 L747.25,135.125 L747.25,135.5 L747.25,135.875 L746.7344,136.5 L746.1719,136.5 L744.2813,136.5 L743.7656,136.5 L743.25,135.875 L743.25,135.5 L743.25,135.125 L743.7656,134.5 L744.2813,134.5 L744.2813,134.5 L744,133.5 Z M743.4531,131.5 L742.25,127.9219 L741.2188,131.5 L743.4531,131.5 Z "/><text fill="#000000" font-family="sans-serif" font-size="12" font-style="italic" lengthAdjust="spacingAndGlyphs" textLength="42" x="762.75" y="136.9102">CellTile</text><line style="stroke: #A80036; stroke-width: 1.5;" x1="674" x2="861" y1="148" y2="148"/><ellipse cx="684" cy="160.418" fill="none" rx="3" ry="3" style="stroke: #038048; stroke-width: 1.0;"/><text fill="#000000" font-family="sans-serif" font-size="11" lengthAdjust="spacingAndGlyphs" text-decoration="underline" textLength="39" x="693" y="163.4189">SIDE: int</text><rect fill="none" height="6" style="stroke: #C82930; stroke-width: 1.0;" width="6" x="681" y="171.2539"/><text fill="#000000" font-family="sans-serif" font-size="11" lengthAdjust="spacingAndGlyphs" textLength="55" x="693" y="177.2549">tileColor: int</text><polygon fill="none" points="684,183.0898,688,187.0898,684,191.0898,680,187.0898" style="stroke: #B38D22; stroke-width: 1.0;"/><text fill="#000000" font-family="sans-serif" font-size="11" lengthAdjust="spacingAndGlyphs" textLength="39" x="693" y="191.0908">cell: Cell</text><line style="stroke: #A80036; stroke-width: 1.5;" x1="674" x2="861" y1="197.5078" y2="197.5078"/><ellipse cx="684" cy="209.9258" fill="#84BE84" rx="3" ry="3" style="stroke: #038048; stroke-width: 1.0;"/><text fill="#000000" font-family="sans-serif" font-size="11" lengthAdjust="spacingAndGlyphs" textLength="141" x="693" y="212.9268">CellTile(cell: Cell, tileColor: int)</text><polygon fill="#FFFF44" points="684,218.7617,688,222.7617,684,226.7617,680,222.7617" style="stroke: #B38D22; stroke-width: 1.0;"/><text fill="#000000" font-family="sans-serif" font-size="11" lengthAdjust="spacingAndGlyphs" textLength="21" x="693" y="226.7627">init()</text><polygon fill="#FFFF44" points="684,232.5977,688,236.5977,684,240.5977,680,236.5977" style="stroke: #B38D22; stroke-width: 1.0;"/><text fill="#000000" font-family="sans-serif" font-size="11" lengthAdjust="spacingAndGlyphs" textLength="163" x="693" y="240.5986">printChar(p: char, foreground: int)</text><ellipse cx="684" cy="251.4336" fill="#84BE84" rx="3" ry="3" style="stroke: #038048; stroke-width: 1.0;"/><text fill="#000000" font-family="sans-serif" font-size="11" lengthAdjust="spacingAndGlyphs" text-decoration="underline" textLength="111" x="693" y="254.4346">tileOf(cell: Cell): CellTile</text><!--class PlayableCellTile--><rect fill="#FEFECE" filter="url(#f17hhcpayotod)" height="117.1797" id="PlayableCellTile" style="stroke: #A80036; stroke-width: 1.5;" width="207" x="458" y="321"/><ellipse cx="511.75" cy="337" fill="#A9DCDF" rx="11" ry="11" style="stroke: #A80036; stroke-width: 1.0;"/><path d="M513.5,338.5 L510.2031,338.5 L509.7656,339.5 L509.7656,339.5 L510.2344,339.5 L510.75,340.125 L510.75,340.5 L510.75,340.875 L510.2344,341.5 L509.7656,341.5 L507.875,341.5 L507.2656,341.5 L506.75,340.875 L506.75,340.5 L506.75,340.125 L507.2656,339.5 L507.875,339.5 L510.1875,333.5 L509.3125,333.5 L508.2656,333.5 L507.75,332.875 L507.75,332.5 L507.75,332.125 L508.2656,331.5 L509.3125,331.5 L512.9844,331.5 L515.6719,339.5 L516.2344,339.5 L516.2344,339.5 L516.75,340.125 L516.75,340.5 L516.75,340.875 L516.2344,341.5 L515.6719,341.5 L513.7813,341.5 L513.2656,341.5 L512.75,340.875 L512.75,340.5 L512.75,340.125 L513.2656,339.5 L513.7813,339.5 L513.7813,339.5 L513.5,338.5 Z M512.9531,336.5 L511.75,332.9219 L510.7188,336.5 L512.9531,336.5 Z "/><text fill="#000000" font-family="sans-serif" font-size="12" font-style="italic" lengthAdjust="spacingAndGlyphs" textLength="91" x="532.25" y="341.9102">PlayableCellTile</text><line style="stroke: #A80036; stroke-width: 1.5;" x1="459" x2="664" y1="353" y2="353"/><line style="stroke: #A80036; stroke-width: 1.5;" x1="459" x2="664" y1="361" y2="361"/><ellipse cx="469" cy="373.418" fill="#84BE84" rx="3" ry="3" style="stroke: #038048; stroke-width: 1.0;"/><text fill="#000000" font-family="sans-serif" font-size="11" lengthAdjust="spacingAndGlyphs" textLength="181" x="478" y="376.4189">PlayableCellTile(cell: Cell, tileColor: int)</text><ellipse cx="469" cy="387.2539" fill="#84BE84" rx="3" ry="3" style="stroke: #038048; stroke-width: 1.0;"/><text fill="#000000" font-family="sans-serif" font-size="11" lengthAdjust="spacingAndGlyphs" textLength="31" x="478" y="390.2549">paint()</text><polygon fill="#FFFF44" points="469,396.0898,473,400.0898,469,404.0898,465,400.0898" style="stroke: #B38D22; stroke-width: 1.0;"/><text fill="#000000" font-family="sans-serif" font-size="11" lengthAdjust="spacingAndGlyphs" textLength="111" x="478" y="404.0908">setPlayerBackground()</text><polygon fill="#FFFF44" points="469,409.9258,473,413.9258,469,417.9258,465,413.9258" style="stroke: #B38D22; stroke-width: 1.0;"/><text fill="#000000" font-family="sans-serif" font-size="11" lengthAdjust="spacingAndGlyphs" textLength="100" x="478" y="417.9268">setBoxBackground()</text><polygon fill="#FFFF44" points="469,423.7617,473,427.7617,469,431.7617,465,427.7617" style="stroke: #B38D22; stroke-width: 1.0;"/><text fill="#000000" font-family="sans-serif" font-size="11" lengthAdjust="spacingAndGlyphs" textLength="123" x="478" y="431.7627">setLightBoxBackground()</text><!--class EmptyCellTile--><rect fill="#FEFECE" filter="url(#f17hhcpayotod)" height="61.8359" id="EmptyCellTile" style="stroke: #A80036; stroke-width: 1.5;" width="135" x="700" y="348.5"/><ellipse cx="727.15" cy="364.5" fill="#ADD1B2" rx="11" ry="11" style="stroke: #A80036; stroke-width: 1.0;"/><path d="M729.15,361 Q729.3531,360.5 729.5875,360.25 Q729.8219,360 730.0875,360 Q730.5563,360 730.8531,360.2813 Q731.15,360.5625 731.15,361.2188 L731.15,362.7813 Q731.15,363.4375 730.8688,363.7188 Q730.5875,364 730.15,364 Q729.7594,364 729.5094,363.8281 Q729.2594,363.6563 729.15,363.2031 Q729.1031,362.8906 728.9313,362.7188 Q728.6188,362.3906 728.0563,362.1953 Q727.4938,362 726.9313,362 Q726.2281,362 725.6422,362.2813 Q725.0563,362.5625 724.6031,363.1875 Q724.15,363.8125 724.15,364.6719 L724.15,365.5938 Q724.15,366.625 724.9938,367.3125 Q725.8375,368 727.3375,368 Q728.2281,368 728.8531,367.7969 Q729.2125,367.6875 729.6188,367.3281 Q729.8844,367.125 730.025,367.0625 Q730.1656,367 730.3375,367 Q730.6656,367 730.9078,367.2578 Q731.15,367.5156 731.15,367.875 Q731.15,368.2188 730.8063,368.625 Q730.3063,369.2188 729.5094,369.5469 Q728.4625,370 727.1813,370 Q725.6813,370 724.4781,369.4063 Q723.5094,368.9375 722.8297,367.9219 Q722.15,366.9063 722.15,365.7031 L722.15,364.6094 Q722.15,363.3594 722.7516,362.2656 Q723.3531,361.1719 724.4078,360.5859 Q725.4625,360 726.65,360 Q727.3688,360 727.9938,360.25 Q728.6188,360.5 729.15,361 Z "/><text fill="#000000" font-family="sans-serif" font-size="12" lengthAdjust="spacingAndGlyphs" textLength="76" x="743.85" y="369.4102">EmptyCellTile</text><line style="stroke: #A80036; stroke-width: 1.5;" x1="701" x2="834" y1="380.5" y2="380.5"/><line style="stroke: #A80036; stroke-width: 1.5;" x1="701" x2="834" y1="388.5" y2="388.5"/><ellipse cx="711" cy="400.918" fill="#84BE84" rx="3" ry="3" style="stroke: #038048; stroke-width: 1.0;"/><text fill="#000000" font-family="sans-serif" font-size="11" lengthAdjust="spacingAndGlyphs" textLength="109" x="720" y="403.9189">EmptyCellTile(cell: Cell)</text><!--class FloorCellTile--><rect fill="#FEFECE" filter="url(#f17hhcpayotod)" height="61.8359" id="FloorCellTile" style="stroke: #A80036; stroke-width: 1.5;" width="130" x="327.5" y="512"/><ellipse cx="355.1" cy="528" fill="#ADD1B2" rx="11" ry="11" style="stroke: #A80036; stroke-width: 1.0;"/><path d="M357.1,524.5 Q357.3031,524 357.5375,523.75 Q357.7719,523.5 358.0375,523.5 Q358.5063,523.5 358.8031,523.7813 Q359.1,524.0625 359.1,524.7188 L359.1,526.2813 Q359.1,526.9375 358.8188,527.2188 Q358.5375,527.5 358.1,527.5 Q357.7094,527.5 357.4594,527.3281 Q357.2094,527.1563 357.1,526.7031 Q357.0531,526.3906 356.8813,526.2188 Q356.5688,525.8906 356.0063,525.6953 Q355.4438,525.5 354.8813,525.5 Q354.1781,525.5 353.5922,525.7813 Q353.0063,526.0625 352.5531,526.6875 Q352.1,527.3125 352.1,528.1719 L352.1,529.0938 Q352.1,530.125 352.9438,530.8125 Q353.7875,531.5 355.2875,531.5 Q356.1781,531.5 356.8031,531.2969 Q357.1625,531.1875 357.5688,530.8281 Q357.8344,530.625 357.975,530.5625 Q358.1156,530.5 358.2875,530.5 Q358.6156,530.5 358.8578,530.7578 Q359.1,531.0156 359.1,531.375 Q359.1,531.7188 358.7563,532.125 Q358.2563,532.7188 357.4594,533.0469 Q356.4125,533.5 355.1313,533.5 Q353.6313,533.5 352.4281,532.9063 Q351.4594,532.4375 350.7797,531.4219 Q350.1,530.4063 350.1,529.2031 L350.1,528.1094 Q350.1,526.8594 350.7016,525.7656 Q351.3031,524.6719 352.3578,524.0859 Q353.4125,523.5 354.6,523.5 Q355.3188,523.5 355.9438,523.75 Q356.5688,524 357.1,524.5 Z "/><text fill="#000000" font-family="sans-serif" font-size="12" lengthAdjust="spacingAndGlyphs" textLength="70" x="371.9" y="532.9102">FloorCellTile</text><line style="stroke: #A80036; stroke-width: 1.5;" x1="328.5" x2="456.5" y1="544" y2="544"/><line style="stroke: #A80036; stroke-width: 1.5;" x1="328.5" x2="456.5" y1="552" y2="552"/><ellipse cx="338.5" cy="564.418" fill="#84BE84" rx="3" ry="3" style="stroke: #038048; stroke-width: 1.0;"/><text fill="#000000" font-family="sans-serif" font-size="11" lengthAdjust="spacingAndGlyphs" textLength="104" x="347.5" y="567.4189">FloorCellTile(cell: Cell)</text><!--class HoleCellTile--><rect fill="#FEFECE" filter="url(#f17hhcpayotod)" height="89.5078" id="HoleCellTile" style="stroke: #A80036; stroke-width: 1.5;" width="137" x="493" y="498"/><ellipse cx="524.65" cy="514" fill="#ADD1B2" rx="11" ry="11" style="stroke: #A80036; stroke-width: 1.0;"/><path d="M526.65,510.5 Q526.8531,510 527.0875,509.75 Q527.3219,509.5 527.5875,509.5 Q528.0563,509.5 528.3531,509.7813 Q528.65,510.0625 528.65,510.7188 L528.65,512.2813 Q528.65,512.9375 528.3688,513.2188 Q528.0875,513.5 527.65,513.5 Q527.2594,513.5 527.0094,513.3281 Q526.7594,513.1563 526.65,512.7031 Q526.6031,512.3906 526.4313,512.2188 Q526.1188,511.8906 525.5563,511.6953 Q524.9938,511.5 524.4313,511.5 Q523.7281,511.5 523.1422,511.7813 Q522.5563,512.0625 522.1031,512.6875 Q521.65,513.3125 521.65,514.1719 L521.65,515.0938 Q521.65,516.125 522.4938,516.8125 Q523.3375,517.5 524.8375,517.5 Q525.7281,517.5 526.3531,517.2969 Q526.7125,517.1875 527.1188,516.8281 Q527.3844,516.625 527.525,516.5625 Q527.6656,516.5 527.8375,516.5 Q528.1656,516.5 528.4078,516.7578 Q528.65,517.0156 528.65,517.375 Q528.65,517.7188 528.3063,518.125 Q527.8063,518.7188 527.0094,519.0469 Q525.9625,519.5 524.6813,519.5 Q523.1813,519.5 521.9781,518.9063 Q521.0094,518.4375 520.3297,517.4219 Q519.65,516.4063 519.65,515.2031 L519.65,514.1094 Q519.65,512.8594 520.2516,511.7656 Q520.8531,510.6719 521.9078,510.0859 Q522.9625,509.5 524.15,509.5 Q524.8688,509.5 525.4938,509.75 Q526.1188,510 526.65,510.5 Z "/><text fill="#000000" font-family="sans-serif" font-size="12" lengthAdjust="spacingAndGlyphs" textLength="68" x="542.35" y="518.9102">HoleCellTile</text><line style="stroke: #A80036; stroke-width: 1.5;" x1="494" x2="629" y1="530" y2="530"/><line style="stroke: #A80036; stroke-width: 1.5;" x1="494" x2="629" y1="538" y2="538"/><ellipse cx="504" cy="550.418" fill="#84BE84" rx="3" ry="3" style="stroke: #038048; stroke-width: 1.0;"/><text fill="#000000" font-family="sans-serif" font-size="11" lengthAdjust="spacingAndGlyphs" textLength="101" x="513" y="553.4189">HoleCellTile(cell: Cell)</text><ellipse cx="504" cy="564.2539" fill="#84BE84" rx="3" ry="3" style="stroke: #038048; stroke-width: 1.0;"/><text fill="#000000" font-family="sans-serif" font-size="11" lengthAdjust="spacingAndGlyphs" textLength="32" x="513" y="567.2549">clear()</text><polygon fill="#FFFF44" points="504,573.0898,508,577.0898,504,581.0898,500,577.0898" style="stroke: #B38D22; stroke-width: 1.0;"/><text fill="#000000" font-family="sans-serif" font-size="11" lengthAdjust="spacingAndGlyphs" textLength="111" x="513" y="581.0908">setPlayerBackground()</text><!--class DoorCellTile--><rect fill="#FEFECE" filter="url(#f17hhcpayotod)" height="75.6719" id="DoorCellTile" style="stroke: #A80036; stroke-width: 1.5;" width="129" x="665" y="505"/><ellipse cx="692.6" cy="521" fill="#ADD1B2" rx="11" ry="11" style="stroke: #A80036; stroke-width: 1.0;"/><path d="M694.6,517.5 Q694.8031,517 695.0375,516.75 Q695.2719,516.5 695.5375,516.5 Q696.0063,516.5 696.3031,516.7813 Q696.6,517.0625 696.6,517.7188 L696.6,519.2813 Q696.6,519.9375 696.3188,520.2188 Q696.0375,520.5 695.6,520.5 Q695.2094,520.5 694.9594,520.3281 Q694.7094,520.1563 694.6,519.7031 Q694.5531,519.3906 694.3813,519.2188 Q694.0688,518.8906 693.5063,518.6953 Q692.9438,518.5 692.3813,518.5 Q691.6781,518.5 691.0922,518.7813 Q690.5063,519.0625 690.0531,519.6875 Q689.6,520.3125 689.6,521.1719 L689.6,522.0938 Q689.6,523.125 690.4438,523.8125 Q691.2875,524.5 692.7875,524.5 Q693.6781,524.5 694.3031,524.2969 Q694.6625,524.1875 695.0688,523.8281 Q695.3344,523.625 695.475,523.5625 Q695.6156,523.5 695.7875,523.5 Q696.1156,523.5 696.3578,523.7578 Q696.6,524.0156 696.6,524.375 Q696.6,524.7188 696.2563,525.125 Q695.7563,525.7188 694.9594,526.0469 Q693.9125,526.5 692.6313,526.5 Q691.1313,526.5 689.9281,525.9063 Q688.9594,525.4375 688.2797,524.4219 Q687.6,523.4063 687.6,522.2031 L687.6,521.1094 Q687.6,519.8594 688.2016,518.7656 Q688.8031,517.6719 689.8578,517.0859 Q690.9125,516.5 692.1,516.5 Q692.8188,516.5 693.4438,516.75 Q694.0688,517 694.6,517.5 Z "/><text fill="#000000" font-family="sans-serif" font-size="12" lengthAdjust="spacingAndGlyphs" textLength="69" x="709.4" y="525.9102">DoorCellTile</text><line style="stroke: #A80036; stroke-width: 1.5;" x1="666" x2="793" y1="537" y2="537"/><line style="stroke: #A80036; stroke-width: 1.5;" x1="666" x2="793" y1="545" y2="545"/><ellipse cx="676" cy="557.418" fill="#84BE84" rx="3" ry="3" style="stroke: #038048; stroke-width: 1.0;"/><text fill="#000000" font-family="sans-serif" font-size="11" lengthAdjust="spacingAndGlyphs" textLength="103" x="685" y="560.4189">DoorCellTile(cell: Cell)</text><ellipse cx="676" cy="571.2539" fill="#84BE84" rx="3" ry="3" style="stroke: #038048; stroke-width: 1.0;"/><text fill="#000000" font-family="sans-serif" font-size="11" lengthAdjust="spacingAndGlyphs" textLength="32" x="685" y="574.2549">clear()</text><!--class WallCellTile--><rect fill="#FEFECE" filter="url(#f17hhcpayotod)" height="61.8359" id="WallCellTile" style="stroke: #A80036; stroke-width: 1.5;" width="126" x="870.5" y="348.5"/><ellipse cx="898.1" cy="364.5" fill="#ADD1B2" rx="11" ry="11" style="stroke: #A80036; stroke-width: 1.0;"/><path d="M900.1,361 Q900.3031,360.5 900.5375,360.25 Q900.7719,360 901.0375,360 Q901.5063,360 901.8031,360.2813 Q902.1,360.5625 902.1,361.2188 L902.1,362.7813 Q902.1,363.4375 901.8188,363.7188 Q901.5375,364 901.1,364 Q900.7094,364 900.4594,363.8281 Q900.2094,363.6563 900.1,363.2031 Q900.0531,362.8906 899.8813,362.7188 Q899.5688,362.3906 899.0063,362.1953 Q898.4438,362 897.8813,362 Q897.1781,362 896.5922,362.2813 Q896.0063,362.5625 895.5531,363.1875 Q895.1,363.8125 895.1,364.6719 L895.1,365.5938 Q895.1,366.625 895.9438,367.3125 Q896.7875,368 898.2875,368 Q899.1781,368 899.8031,367.7969 Q900.1625,367.6875 900.5688,367.3281 Q900.8344,367.125 900.975,367.0625 Q901.1156,367 901.2875,367 Q901.6156,367 901.8578,367.2578 Q902.1,367.5156 902.1,367.875 Q902.1,368.2188 901.7563,368.625 Q901.2563,369.2188 900.4594,369.5469 Q899.4125,370 898.1313,370 Q896.6313,370 895.4281,369.4063 Q894.4594,368.9375 893.7797,367.9219 Q893.1,366.9063 893.1,365.7031 L893.1,364.6094 Q893.1,363.3594 893.7016,362.2656 Q894.3031,361.1719 895.3578,360.5859 Q896.4125,360 897.6,360 Q898.3188,360 898.9438,360.25 Q899.5688,360.5 900.1,361 Z "/><text fill="#000000" font-family="sans-serif" font-size="12" lengthAdjust="spacingAndGlyphs" textLength="66" x="914.9" y="369.4102">WallCellTile</text><line style="stroke: #A80036; stroke-width: 1.5;" x1="871.5" x2="995.5" y1="380.5" y2="380.5"/><line style="stroke: #A80036; stroke-width: 1.5;" x1="871.5" x2="995.5" y1="388.5" y2="388.5"/><ellipse cx="881.5" cy="400.918" fill="#84BE84" rx="3" ry="3" style="stroke: #038048; stroke-width: 1.0;"/><text fill="#000000" font-family="sans-serif" font-size="11" lengthAdjust="spacingAndGlyphs" textLength="100" x="890.5" y="403.9189">WallCellTile(cell: Cell)</text><!--class UpCellTile--><rect fill="#FEFECE" filter="url(#f17hhcpayotod)" height="75.6719" id="UpCellTile" style="stroke: #A80036; stroke-width: 1.5;" width="119" x="6" y="661.5"/><ellipse cx="34.05" cy="677.5" fill="#ADD1B2" rx="11" ry="11" style="stroke: #A80036; stroke-width: 1.0;"/><path d="M36.05,674 Q36.2531,673.5 36.4875,673.25 Q36.7219,673 36.9875,673 Q37.4563,673 37.7531,673.2813 Q38.05,673.5625 38.05,674.2188 L38.05,675.7813 Q38.05,676.4375 37.7688,676.7188 Q37.4875,677 37.05,677 Q36.6594,677 36.4094,676.8281 Q36.1594,676.6563 36.05,676.2031 Q36.0031,675.8906 35.8313,675.7188 Q35.5188,675.3906 34.9563,675.1953 Q34.3938,675 33.8313,675 Q33.1281,675 32.5422,675.2813 Q31.9562,675.5625 31.5031,676.1875 Q31.05,676.8125 31.05,677.6719 L31.05,678.5938 Q31.05,679.625 31.8937,680.3125 Q32.7375,681 34.2375,681 Q35.1281,681 35.7531,680.7969 Q36.1125,680.6875 36.5188,680.3281 Q36.7844,680.125 36.925,680.0625 Q37.0656,680 37.2375,680 Q37.5656,680 37.8078,680.2578 Q38.05,680.5156 38.05,680.875 Q38.05,681.2188 37.7063,681.625 Q37.2063,682.2188 36.4094,682.5469 Q35.3625,683 34.0813,683 Q32.5813,683 31.3781,682.4063 Q30.4094,681.9375 29.7297,680.9219 Q29.05,679.9063 29.05,678.7031 L29.05,677.6094 Q29.05,676.3594 29.6516,675.2656 Q30.2531,674.1719 31.3078,673.5859 Q32.3625,673 33.55,673 Q34.2688,673 34.8938,673.25 Q35.5188,673.5 36.05,674 Z "/><text fill="#000000" font-family="sans-serif" font-size="12" lengthAdjust="spacingAndGlyphs" textLength="58" x="50.95" y="682.4102">UpCellTile</text><line style="stroke: #A80036; stroke-width: 1.5;" x1="7" x2="124" y1="693.5" y2="693.5"/><line style="stroke: #A80036; stroke-width: 1.5;" x1="7" x2="124" y1="701.5" y2="701.5"/><ellipse cx="17" cy="713.918" fill="#84BE84" rx="3" ry="3" style="stroke: #038048; stroke-width: 1.0;"/><text fill="#000000" font-family="sans-serif" font-size="11" lengthAdjust="spacingAndGlyphs" textLength="93" x="26" y="716.9189">UpCellTile(cell: Cell)</text><ellipse cx="17" cy="727.7539" fill="#84BE84" rx="3" ry="3" style="stroke: #038048; stroke-width: 1.0;"/><text fill="#000000" font-family="sans-serif" font-size="11" lengthAdjust="spacingAndGlyphs" textLength="32" x="26" y="730.7549">clear()</text><!--class DownCellTile--><rect fill="#FEFECE" filter="url(#f17hhcpayotod)" height="75.6719" id="DownCellTile" style="stroke: #A80036; stroke-width: 1.5;" width="135" x="160" y="661.5"/><ellipse cx="188.05" cy="677.5" fill="#ADD1B2" rx="11" ry="11" style="stroke: #A80036; stroke-width: 1.0;"/><path d="M190.05,674 Q190.2531,673.5 190.4875,673.25 Q190.7219,673 190.9875,673 Q191.4563,673 191.7531,673.2813 Q192.05,673.5625 192.05,674.2188 L192.05,675.7813 Q192.05,676.4375 191.7688,676.7188 Q191.4875,677 191.05,677 Q190.6594,677 190.4094,676.8281 Q190.1594,676.6563 190.05,676.2031 Q190.0031,675.8906 189.8313,675.7188 Q189.5188,675.3906 188.9563,675.1953 Q188.3938,675 187.8313,675 Q187.1281,675 186.5422,675.2813 Q185.9563,675.5625 185.5031,676.1875 Q185.05,676.8125 185.05,677.6719 L185.05,678.5938 Q185.05,679.625 185.8938,680.3125 Q186.7375,681 188.2375,681 Q189.1281,681 189.7531,680.7969 Q190.1125,680.6875 190.5188,680.3281 Q190.7844,680.125 190.925,680.0625 Q191.0656,680 191.2375,680 Q191.5656,680 191.8078,680.2578 Q192.05,680.5156 192.05,680.875 Q192.05,681.2188 191.7063,681.625 Q191.2063,682.2188 190.4094,682.5469 Q189.3625,683 188.0813,683 Q186.5813,683 185.3781,682.4063 Q184.4094,681.9375 183.7297,680.9219 Q183.05,679.9063 183.05,678.7031 L183.05,677.6094 Q183.05,676.3594 183.6516,675.2656 Q184.2531,674.1719 185.3078,673.5859 Q186.3625,673 187.55,673 Q188.2688,673 188.8938,673.25 Q189.5188,673.5 190.05,674 Z "/><text fill="#000000" font-family="sans-serif" font-size="12" lengthAdjust="spacingAndGlyphs" textLength="74" x="204.95" y="682.4102">DownCellTile</text><line style="stroke: #A80036; stroke-width: 1.5;" x1="161" x2="294" y1="693.5" y2="693.5"/><line style="stroke: #A80036; stroke-width: 1.5;" x1="161" x2="294" y1="701.5" y2="701.5"/><ellipse cx="171" cy="713.918" fill="#84BE84" rx="3" ry="3" style="stroke: #038048; stroke-width: 1.0;"/><text fill="#000000" font-family="sans-serif" font-size="11" lengthAdjust="spacingAndGlyphs" textLength="109" x="180" y="716.9189">DownCellTile(cell: Cell)</text><ellipse cx="171" cy="727.7539" fill="#84BE84" rx="3" ry="3" style="stroke: #038048; stroke-width: 1.0;"/><text fill="#000000" font-family="sans-serif" font-size="11" lengthAdjust="spacingAndGlyphs" textLength="32" x="180" y="730.7549">clear()</text><!--class LeftCellTile--><rect fill="#FEFECE" filter="url(#f17hhcpayotod)" height="75.6719" id="LeftCellTile" style="stroke: #A80036; stroke-width: 1.5;" width="125" x="330" y="661.5"/><ellipse cx="358.95" cy="677.5" fill="#ADD1B2" rx="11" ry="11" style="stroke: #A80036; stroke-width: 1.0;"/><path d="M360.95,674 Q361.1531,673.5 361.3875,673.25 Q361.6219,673 361.8875,673 Q362.3563,673 362.6531,673.2813 Q362.95,673.5625 362.95,674.2188 L362.95,675.7813 Q362.95,676.4375 362.6688,676.7188 Q362.3875,677 361.95,677 Q361.5594,677 361.3094,676.8281 Q361.0594,676.6563 360.95,676.2031 Q360.9031,675.8906 360.7313,675.7188 Q360.4188,675.3906 359.8563,675.1953 Q359.2938,675 358.7313,675 Q358.0281,675 357.4422,675.2813 Q356.8563,675.5625 356.4031,676.1875 Q355.95,676.8125 355.95,677.6719 L355.95,678.5938 Q355.95,679.625 356.7938,680.3125 Q357.6375,681 359.1375,681 Q360.0281,681 360.6531,680.7969 Q361.0125,680.6875 361.4188,680.3281 Q361.6844,680.125 361.825,680.0625 Q361.9656,680 362.1375,680 Q362.4656,680 362.7078,680.2578 Q362.95,680.5156 362.95,680.875 Q362.95,681.2188 362.6063,681.625 Q362.1063,682.2188 361.3094,682.5469 Q360.2625,683 358.9813,683 Q357.4813,683 356.2781,682.4063 Q355.3094,681.9375 354.6297,680.9219 Q353.95,679.9063 353.95,678.7031 L353.95,677.6094 Q353.95,676.3594 354.5516,675.2656 Q355.1531,674.1719 356.2078,673.5859 Q357.2625,673 358.45,673 Q359.1688,673 359.7938,673.25 Q360.4188,673.5 360.95,674 Z "/><text fill="#000000" font-family="sans-serif" font-size="12" lengthAdjust="spacingAndGlyphs" textLength="62" x="376.05" y="682.4102">LeftCellTile</text><line style="stroke: #A80036; stroke-width: 1.5;" x1="331" x2="454" y1="693.5" y2="693.5"/><line style="stroke: #A80036; stroke-width: 1.5;" x1="331" x2="454" y1="701.5" y2="701.5"/><ellipse cx="341" cy="713.918" fill="#84BE84" rx="3" ry="3" style="stroke: #038048; stroke-width: 1.0;"/><text fill="#000000" font-family="sans-serif" font-size="11" lengthAdjust="spacingAndGlyphs" textLength="99" x="350" y="716.9189">LeftCellTile(cell: Cell)</text><ellipse cx="341" cy="727.7539" fill="#84BE84" rx="3" ry="3" style="stroke: #038048; stroke-width: 1.0;"/><text fill="#000000" font-family="sans-serif" font-size="11" lengthAdjust="spacingAndGlyphs" textLength="32" x="350" y="730.7549">clear()</text><!--class RightCellTile--><rect fill="#FEFECE" filter="url(#f17hhcpayotod)" height="75.6719" id="RightCellTile" style="stroke: #A80036; stroke-width: 1.5;" width="130" x="490.5" y="661.5"/><ellipse cx="517.65" cy="677.5" fill="#ADD1B2" rx="11" ry="11" style="stroke: #A80036; stroke-width: 1.0;"/><path d="M519.65,674 Q519.8531,673.5 520.0875,673.25 Q520.3219,673 520.5875,673 Q521.0563,673 521.3531,673.2813 Q521.65,673.5625 521.65,674.2188 L521.65,675.7813 Q521.65,676.4375 521.3688,676.7188 Q521.0875,677 520.65,677 Q520.2594,677 520.0094,676.8281 Q519.7594,676.6563 519.65,676.2031 Q519.6031,675.8906 519.4313,675.7188 Q519.1188,675.3906 518.5563,675.1953 Q517.9938,675 517.4313,675 Q516.7281,675 516.1422,675.2813 Q515.5563,675.5625 515.1031,676.1875 Q514.65,676.8125 514.65,677.6719 L514.65,678.5938 Q514.65,679.625 515.4938,680.3125 Q516.3375,681 517.8375,681 Q518.7281,681 519.3531,680.7969 Q519.7125,680.6875 520.1188,680.3281 Q520.3844,680.125 520.525,680.0625 Q520.6656,680 520.8375,680 Q521.1656,680 521.4078,680.2578 Q521.65,680.5156 521.65,680.875 Q521.65,681.2188 521.3063,681.625 Q520.8063,682.2188 520.0094,682.5469 Q518.9625,683 517.6813,683 Q516.1813,683 514.9781,682.4063 Q514.0094,681.9375 513.3297,680.9219 Q512.65,679.9063 512.65,678.7031 L512.65,677.6094 Q512.65,676.3594 513.2516,675.2656 Q513.8531,674.1719 514.9078,673.5859 Q515.9625,673 517.15,673 Q517.8688,673 518.4938,673.25 Q519.1188,673.5 519.65,674 Z "/><text fill="#000000" font-family="sans-serif" font-size="12" lengthAdjust="spacingAndGlyphs" textLength="71" x="534.35" y="682.4102">RightCellTile</text><line style="stroke: #A80036; stroke-width: 1.5;" x1="491.5" x2="619.5" y1="693.5" y2="693.5"/><line style="stroke: #A80036; stroke-width: 1.5;" x1="491.5" x2="619.5" y1="701.5" y2="701.5"/><ellipse cx="501.5" cy="713.918" fill="#84BE84" rx="3" ry="3" style="stroke: #038048; stroke-width: 1.0;"/><text fill="#000000" font-family="sans-serif" font-size="11" lengthAdjust="spacingAndGlyphs" textLength="104" x="510.5" y="716.9189">RightCellTile(cell: Cell)</text><ellipse cx="501.5" cy="727.7539" fill="#84BE84" rx="3" ry="3" style="stroke: #038048; stroke-width: 1.0;"/><text fill="#000000" font-family="sans-serif" font-size="11" lengthAdjust="spacingAndGlyphs" textLength="32" x="510.5" y="730.7549">clear()</text><!--class ObjectiveCellTile--><rect fill="#FEFECE" filter="url(#f17hhcpayotod)" height="103.3438" id="ObjectiveCellTile" style="stroke: #A80036; stroke-width: 1.5;" width="151" x="656" y="648"/><ellipse cx="683.15" cy="664" fill="#ADD1B2" rx="11" ry="11" style="stroke: #A80036; stroke-width: 1.0;"/><path d="M685.15,660.5 Q685.3531,660 685.5875,659.75 Q685.8219,659.5 686.0875,659.5 Q686.5563,659.5 686.8531,659.7813 Q687.15,660.0625 687.15,660.7188 L687.15,662.2813 Q687.15,662.9375 686.8688,663.2188 Q686.5875,663.5 686.15,663.5 Q685.7594,663.5 685.5094,663.3281 Q685.2594,663.1563 685.15,662.7031 Q685.1031,662.3906 684.9313,662.2188 Q684.6188,661.8906 684.0563,661.6953 Q683.4938,661.5 682.9313,661.5 Q682.2281,661.5 681.6422,661.7813 Q681.0563,662.0625 680.6031,662.6875 Q680.15,663.3125 680.15,664.1719 L680.15,665.0938 Q680.15,666.125 680.9938,666.8125 Q681.8375,667.5 683.3375,667.5 Q684.2281,667.5 684.8531,667.2969 Q685.2125,667.1875 685.6188,666.8281 Q685.8844,666.625 686.025,666.5625 Q686.1656,666.5 686.3375,666.5 Q686.6656,666.5 686.9078,666.7578 Q687.15,667.0156 687.15,667.375 Q687.15,667.7188 686.8063,668.125 Q686.3063,668.7188 685.5094,669.0469 Q684.4625,669.5 683.1813,669.5 Q681.6813,669.5 680.4781,668.9063 Q679.5094,668.4375 678.8297,667.4219 Q678.15,666.4063 678.15,665.2031 L678.15,664.1094 Q678.15,662.8594 678.7516,661.7656 Q679.3531,660.6719 680.4078,660.0859 Q681.4625,659.5 682.65,659.5 Q683.3688,659.5 683.9938,659.75 Q684.6188,660 685.15,660.5 Z "/><text fill="#000000" font-family="sans-serif" font-size="12" lengthAdjust="spacingAndGlyphs" textLength="92" x="699.85" y="668.9102">ObjectiveCellTile</text><line style="stroke: #A80036; stroke-width: 1.5;" x1="657" x2="806" y1="680" y2="680"/><line style="stroke: #A80036; stroke-width: 1.5;" x1="657" x2="806" y1="688" y2="688"/><ellipse cx="667" cy="700.418" fill="#84BE84" rx="3" ry="3" style="stroke: #038048; stroke-width: 1.0;"/><text fill="#000000" font-family="sans-serif" font-size="11" lengthAdjust="spacingAndGlyphs" textLength="125" x="676" y="703.4189">ObjectiveCellTile(cell: Cell)</text><ellipse cx="667" cy="714.2539" fill="#84BE84" rx="3" ry="3" style="stroke: #038048; stroke-width: 1.0;"/><text fill="#000000" font-family="sans-serif" font-size="11" lengthAdjust="spacingAndGlyphs" textLength="32" x="676" y="717.2549">clear()</text><polygon fill="#FFFF44" points="667,723.0898,671,727.0898,667,731.0898,663,727.0898" style="stroke: #B38D22; stroke-width: 1.0;"/><text fill="#000000" font-family="sans-serif" font-size="11" lengthAdjust="spacingAndGlyphs" textLength="100" x="676" y="731.0908">setBoxBackground()</text><polygon fill="#FFFF44" points="667,736.9258,671,740.9258,667,744.9258,663,740.9258" style="stroke: #B38D22; stroke-width: 1.0;"/><text fill="#000000" font-family="sans-serif" font-size="11" lengthAdjust="spacingAndGlyphs" textLength="123" x="676" y="744.9268">setLightBoxBackground()</text><!--link Tile to CellTile--><path d="M767.5,76.388 C767.5,88.701 767.5,102.445 767.5,115.955 " fill="none" id="Tile-CellTile" style="stroke: #A80036; stroke-width: 1.0;"/><polygon fill="none" points="760.5,76.13,767.5,56.13,774.5,76.13,760.5,76.13" style="stroke: #A80036; stroke-width: 1.0;"/><!--link CellTile to PlayableCellTile--><path d="M674.516,274.811 C657.501,290.422 640.117,306.371 624.247,320.931 " fill="none" id="CellTile-PlayableCellTile" style="stroke: #A80036; stroke-width: 1.0;"/><polygon fill="none" points="669.857,269.585,689.327,261.222,679.322,279.901,669.857,269.585" style="stroke: #A80036; stroke-width: 1.0;"/><!--link CellTile to EmptyCellTile--><path d="M767.5,281.291 C767.5,305.412 767.5,329.769 767.5,348.068 " fill="none" id="CellTile-EmptyCellTile" style="stroke: #A80036; stroke-width: 1.0;"/><polygon fill="none" points="760.5,281.222,767.5,261.222,774.5,281.222,760.5,281.222" style="stroke: #A80036; stroke-width: 1.0;"/><!--link PlayableCellTile to FloorCellTile--><path d="M486.406,452.261 C464.535,473.161 441.813,494.875 424.199,511.708 " fill="none" id="PlayableCellTile-FloorCellTile" style="stroke: #A80036; stroke-width: 1.0;"/><polygon fill="none" points="481.669,447.106,500.964,438.349,491.341,457.228,481.669,447.106" style="stroke: #A80036; stroke-width: 1.0;"/><!--link PlayableCellTile to HoleCellTile--><path d="M561.5,458.613 C561.5,472.145 561.5,485.776 561.5,497.984 " fill="none" id="PlayableCellTile-HoleCellTile" style="stroke: #A80036; stroke-width: 1.0;"/><polygon fill="none" points="554.5,458.349,561.5,438.349,568.5,458.349,554.5,458.349" style="stroke: #A80036; stroke-width: 1.0;"/><!--link PlayableCellTile to DoorCellTile--><path d="M636.271,452.378 C655.156,470.533 674.671,489.292 690.935,504.927 " fill="none" id="PlayableCellTile-DoorCellTile" style="stroke: #A80036; stroke-width: 1.0;"/><polygon fill="none" points="631.245,457.256,621.677,438.349,640.947,447.163,631.245,457.256" style="stroke: #A80036; stroke-width: 1.0;"/><!--link CellTile to WallCellTile--><path d="M843.993,276.592 C866.503,302.22 889.655,328.58 906.772,348.068 " fill="none" id="CellTile-WallCellTile" style="stroke: #A80036; stroke-width: 1.0;"/><polygon fill="none" points="838.433,280.869,830.494,261.222,848.952,271.63,838.433,280.869" style="stroke: #A80036; stroke-width: 1.0;"/><!--link FloorCellTile to UpCellTile--><path d="M308.4,574.473 C259.036,593.461 196.036,619.627 142.5,648 C134.872,652.0426 127.036,656.6267 119.42,661.344 " fill="none" id="FloorCellTile-UpCellTile" style="stroke: #A80036; stroke-width: 1.0;"/><polygon fill="none" points="306.1,567.858,327.283,567.302,311.071,580.946,306.1,567.858" style="stroke: #A80036; stroke-width: 1.0;"/><!--link FloorCellTile to DownCellTile--><path d="M345.664,587.856 C320.895,611.049 290.814,639.215 267.202,661.3245 " fill="none" id="FloorCellTile-DownCellTile" style="stroke: #A80036; stroke-width: 1.0;"/><polygon fill="none" points="340.911,582.716,360.295,574.156,350.48,592.936,340.911,582.716" style="stroke: #A80036; stroke-width: 1.0;"/><!--link FloorCellTile to LeftCellTile--><path d="M392.5,594.203 C392.5,616.049 392.5,641.196 392.5,661.3245 " fill="none" id="FloorCellTile-LeftCellTile" style="stroke: #A80036; stroke-width: 1.0;"/><polygon fill="none" points="385.5,594.156,392.5,574.156,399.5,594.156,385.5,594.156" style="stroke: #A80036; stroke-width: 1.0;"/><!--link FloorCellTile to RightCellTile--><path d="M439.115,588.184 C463.518,611.314 493.063,639.319 516.279,661.3245 " fill="none" id="FloorCellTile-RightCellTile" style="stroke: #A80036; stroke-width: 1.0;"/><polygon fill="none" points="434.015,592.995,424.315,574.156,443.646,582.834,434.015,592.995" style="stroke: #A80036; stroke-width: 1.0;"/><!--link FloorCellTile to ObjectiveCellTile--><path d="M464.814,583.061 C468.406,584.772 471.982,586.429 475.5,588 C545.985,619.483 568.174,616.164 638.5,648 C644.191,650.576 650.01,653.3587 655.824,656.2476 " fill="none" id="FloorCellTile-ObjectiveCellTile" style="stroke: #A80036; stroke-width: 1.0;"/><polygon fill="none" points="461.703,589.331,446.897,574.172,467.925,576.79,461.703,589.331" style="stroke: #A80036; stroke-width: 1.0;"/><!--
@startuml

Tile <|- - CellTile

CellTile <|- - PlayableCellTile
CellTile <|- - EmptyCellTile
PlayableCellTile <|- - FloorCellTile
PlayableCellTile <|- - HoleCellTile
PlayableCellTile <|- - DoorCellTile
CellTile <|- - WallCellTile

FloorCellTile <|- - UpCellTile
FloorCellTile <|- - DownCellTile
FloorCellTile <|- - LeftCellTile
FloorCellTile <|- - RightCellTile
FloorCellTile <|- - ObjectiveCellTile

abstract class Tile

abstract class CellTile {
    +{static} SIDE: int
    -tileColor: int
    #cell: Cell

    +CellTile(cell: Cell, tileColor: int)
    #init()
    #printChar(p: char, foreground: int)
    +{static} tileOf(cell: Cell): CellTile
}

abstract class PlayableCellTile {
    +PlayableCellTile(cell: Cell, tileColor: int)
    +paint()
    #setPlayerBackground()
    #setBoxBackground()
    #setLightBoxBackground()
}

class FloorCellTile {
    +FloorCellTile(cell: Cell)
}

class UpCellTile {
    +UpCellTile(cell: Cell)
    +clear()
}

class DownCellTile {
    +DownCellTile(cell: Cell)
    +clear()
}

class LeftCellTile {
    +LeftCellTile(cell: Cell)
    +clear()
}

class RightCellTile {
    +RightCellTile(cell: Cell)
    +clear()
}

class EmptyCellTile {
    +EmptyCellTile(cell: Cell)
}

class WallCellTile {
    +WallCellTile(cell: Cell)
}

class HoleCellTile {
    +HoleCellTile(cell: Cell)
    +clear()
    #setPlayerBackground()
}

class DoorCellTile {
    +DoorCellTile(cell: Cell)
    +clear()
}

class ObjectiveCellTile {
    +ObjectiveCellTile(cell: Cell)
    +clear()
    #setBoxBackground()
    #setLightBoxBackground()
}

@enduml

PlantUML version 1.2019.04(Fri Mar 29 15:44:36 GMT 2019)
(GPL source distribution)
Java Runtime: OpenJDK Runtime Environment
JVM: OpenJDK 64-Bit Server VM
Java Version: 1.8.0_202-release-1483-b39
Operating System: Windows 10
OS Version: 10.0
Default Encoding: Cp1252
Language: pt
Country: PT
--></g></svg>