<?xml version="1.0" encoding="UTF-8" standalone="no"?><svg xmlns="http://www.w3.org/2000/svg" xmlns:xlink="http://www.w3.org/1999/xlink" contentScriptType="application/ecmascript" contentStyleType="text/css" height="722px" preserveAspectRatio="none" style="width:1007px;height:722px;" version="1.1" viewBox="0 0 1007 722" width="1007px" zoomAndPan="magnify"><defs><filter height="300%" id="flwyq6dymmqnc" width="300%" x="-1" y="-1"><feGaussianBlur result="blurOut" stdDeviation="2.0"/><feColorMatrix in="blurOut" result="blurOut2" type="matrix" values="0 0 0 0 0 0 0 0 0 0 0 0 0 0 0 0 0 0 .4 0"/><feOffset dx="4.0" dy="4.0" in="blurOut2" result="blurOut3"/><feBlend in="SourceGraphic" in2="blurOut3" mode="normal"/></filter></defs><g><!--class Tile--><rect fill="#FEFECE" filter="url(#flwyq6dymmqnc)" height="32" id="Tile" style="stroke: #A80036; stroke-width: 1.5;" width="52" x="741.5" y="8"/><ellipse cx="756.5" cy="24" fill="#A9DCDF" rx="11" ry="11" style="stroke: #A80036; stroke-width: 1.0;"/><path d="M758.25,25.5 L754.9531,25.5 L754.5156,26.5 L754.5156,26.5 L754.9844,26.5 L755.5,27.125 L755.5,27.5 L755.5,27.875 L754.9844,28.5 L754.5156,28.5 L752.625,28.5 L752.0156,28.5 L751.5,27.875 L751.5,27.5 L751.5,27.125 L752.0156,26.5 L752.625,26.5 L754.9375,20.5 L754.0625,20.5 L753.0156,20.5 L752.5,19.875 L752.5,19.5 L752.5,19.125 L753.0156,18.5 L754.0625,18.5 L757.7344,18.5 L760.4219,26.5 L760.9844,26.5 L760.9844,26.5 L761.5,27.125 L761.5,27.5 L761.5,27.875 L760.9844,28.5 L760.4219,28.5 L758.5313,28.5 L758.0156,28.5 L757.5,27.875 L757.5,27.5 L757.5,27.125 L758.0156,26.5 L758.5313,26.5 L758.5313,26.5 L758.25,25.5 Z M757.7031,23.5 L756.5,19.9219 L755.4688,23.5 L757.7031,23.5 Z "/><text fill="#000000" font-family="sans-serif" font-size="12" font-style="italic" lengthAdjust="spacingAndGlyphs" textLength="20" x="770.5" y="28.9102">Tile</text><!--class CellTile--><rect fill="#FEFECE" filter="url(#flwyq6dymmqnc)" height="144.8516" id="CellTile" style="stroke: #A80036; stroke-width: 1.5;" width="189" x="673" y="100"/><ellipse cx="742.25" cy="116" fill="#A9DCDF" rx="11" ry="11" style="stroke: #A80036; stroke-width: 1.0;"/><path d="M744,117.5 L740.7031,117.5 L740.2656,118.5 L740.2656,118.5 L740.7344,118.5 L741.25,119.125 L741.25,119.5 L741.25,119.875 L740.7344,120.5 L740.2656,120.5 L738.375,120.5 L737.7656,120.5 L737.25,119.875 L737.25,119.5 L737.25,119.125 L737.7656,118.5 L738.375,118.5 L740.6875,112.5 L739.8125,112.5 L738.7656,112.5 L738.25,111.875 L738.25,111.5 L738.25,111.125 L738.7656,110.5 L739.8125,110.5 L743.4844,110.5 L746.1719,118.5 L746.7344,118.5 L746.7344,118.5 L747.25,119.125 L747.25,119.5 L747.25,119.875 L746.7344,120.5 L746.1719,120.5 L744.2813,120.5 L743.7656,120.5 L743.25,119.875 L743.25,119.5 L743.25,119.125 L743.7656,118.5 L744.2813,118.5 L744.2813,118.5 L744,117.5 Z M743.4531,115.5 L742.25,111.9219 L741.2188,115.5 L743.4531,115.5 Z "/><text fill="#000000" font-family="sans-serif" font-size="12" font-style="italic" lengthAdjust="spacingAndGlyphs" textLength="42" x="762.75" y="120.9102">CellTile</text><line style="stroke: #A80036; stroke-width: 1.5;" x1="674" x2="861" y1="132" y2="132"/><ellipse cx="684" cy="144.418" fill="none" rx="3" ry="3" style="stroke: #038048; stroke-width: 1.0;"/><text fill="#000000" font-family="sans-serif" font-size="11" lengthAdjust="spacingAndGlyphs" text-decoration="underline" textLength="39" x="693" y="147.4189">SIDE: int</text><rect fill="none" height="6" style="stroke: #C82930; stroke-width: 1.0;" width="6" x="681" y="155.2539"/><text fill="#000000" font-family="sans-serif" font-size="11" lengthAdjust="spacingAndGlyphs" textLength="55" x="693" y="161.2549">tileColor: int</text><polygon fill="none" points="684,167.0898,688,171.0898,684,175.0898,680,171.0898" style="stroke: #B38D22; stroke-width: 1.0;"/><text fill="#000000" font-family="sans-serif" font-size="11" lengthAdjust="spacingAndGlyphs" textLength="39" x="693" y="175.0908">cell: Cell</text><line style="stroke: #A80036; stroke-width: 1.5;" x1="674" x2="861" y1="181.5078" y2="181.5078"/><ellipse cx="684" cy="193.9258" fill="#84BE84" rx="3" ry="3" style="stroke: #038048; stroke-width: 1.0;"/><text fill="#000000" font-family="sans-serif" font-size="11" lengthAdjust="spacingAndGlyphs" textLength="141" x="693" y="196.9268">CellTile(cell: Cell, tileColor: int)</text><polygon fill="#FFFF44" points="684,202.7617,688,206.7617,684,210.7617,680,206.7617" style="stroke: #B38D22; stroke-width: 1.0;"/><text fill="#000000" font-family="sans-serif" font-size="11" lengthAdjust="spacingAndGlyphs" textLength="21" x="693" y="210.7627">init()</text><polygon fill="#FFFF44" points="684,216.5977,688,220.5977,684,224.5977,680,220.5977" style="stroke: #B38D22; stroke-width: 1.0;"/><text fill="#000000" font-family="sans-serif" font-size="11" lengthAdjust="spacingAndGlyphs" textLength="163" x="693" y="224.5986">printChar(p: char, foreground: int)</text><ellipse cx="684" cy="235.4336" fill="#84BE84" rx="3" ry="3" style="stroke: #038048; stroke-width: 1.0;"/><text fill="#000000" font-family="sans-serif" font-size="11" lengthAdjust="spacingAndGlyphs" text-decoration="underline" textLength="111" x="693" y="238.4346">tileOf(cell: Cell): CellTile</text><!--class PlayableCellTile--><rect fill="#FEFECE" filter="url(#flwyq6dymmqnc)" height="109.1797" id="PlayableCellTile" style="stroke: #A80036; stroke-width: 1.5;" width="207" x="458" y="305"/><ellipse cx="511.75" cy="321" fill="#A9DCDF" rx="11" ry="11" style="stroke: #A80036; stroke-width: 1.0;"/><path d="M513.5,322.5 L510.2031,322.5 L509.7656,323.5 L509.7656,323.5 L510.2344,323.5 L510.75,324.125 L510.75,324.5 L510.75,324.875 L510.2344,325.5 L509.7656,325.5 L507.875,325.5 L507.2656,325.5 L506.75,324.875 L506.75,324.5 L506.75,324.125 L507.2656,323.5 L507.875,323.5 L510.1875,317.5 L509.3125,317.5 L508.2656,317.5 L507.75,316.875 L507.75,316.5 L507.75,316.125 L508.2656,315.5 L509.3125,315.5 L512.9844,315.5 L515.6719,323.5 L516.2344,323.5 L516.2344,323.5 L516.75,324.125 L516.75,324.5 L516.75,324.875 L516.2344,325.5 L515.6719,325.5 L513.7813,325.5 L513.2656,325.5 L512.75,324.875 L512.75,324.5 L512.75,324.125 L513.2656,323.5 L513.7813,323.5 L513.7813,323.5 L513.5,322.5 Z M512.9531,320.5 L511.75,316.9219 L510.7188,320.5 L512.9531,320.5 Z "/><text fill="#000000" font-family="sans-serif" font-size="12" font-style="italic" lengthAdjust="spacingAndGlyphs" textLength="91" x="532.25" y="325.9102">PlayableCellTile</text><line style="stroke: #A80036; stroke-width: 1.5;" x1="459" x2="664" y1="337" y2="337"/><ellipse cx="469" cy="349.418" fill="#84BE84" rx="3" ry="3" style="stroke: #038048; stroke-width: 1.0;"/><text fill="#000000" font-family="sans-serif" font-size="11" lengthAdjust="spacingAndGlyphs" textLength="181" x="478" y="352.4189">PlayableCellTile(cell: Cell, tileColor: int)</text><ellipse cx="469" cy="363.2539" fill="#84BE84" rx="3" ry="3" style="stroke: #038048; stroke-width: 1.0;"/><text fill="#000000" font-family="sans-serif" font-size="11" lengthAdjust="spacingAndGlyphs" textLength="31" x="478" y="366.2549">paint()</text><polygon fill="#FFFF44" points="469,372.0898,473,376.0898,469,380.0898,465,376.0898" style="stroke: #B38D22; stroke-width: 1.0;"/><text fill="#000000" font-family="sans-serif" font-size="11" lengthAdjust="spacingAndGlyphs" textLength="111" x="478" y="380.0908">setPlayerBackground()</text><polygon fill="#FFFF44" points="469,385.9258,473,389.9258,469,393.9258,465,389.9258" style="stroke: #B38D22; stroke-width: 1.0;"/><text fill="#000000" font-family="sans-serif" font-size="11" lengthAdjust="spacingAndGlyphs" textLength="100" x="478" y="393.9268">setBoxBackground()</text><polygon fill="#FFFF44" points="469,399.7617,473,403.7617,469,407.7617,465,403.7617" style="stroke: #B38D22; stroke-width: 1.0;"/><text fill="#000000" font-family="sans-serif" font-size="11" lengthAdjust="spacingAndGlyphs" textLength="123" x="478" y="407.7627">setLightBoxBackground()</text><!--class EmptyCellTile--><rect fill="#FEFECE" filter="url(#flwyq6dymmqnc)" height="53.8359" id="EmptyCellTile" style="stroke: #A80036; stroke-width: 1.5;" width="135" x="700" y="332.5"/><ellipse cx="727.15" cy="348.5" fill="#ADD1B2" rx="11" ry="11" style="stroke: #A80036; stroke-width: 1.0;"/><path d="M729.15,345 Q729.3531,344.5 729.5875,344.25 Q729.8219,344 730.0875,344 Q730.5563,344 730.8531,344.2813 Q731.15,344.5625 731.15,345.2188 L731.15,346.7813 Q731.15,347.4375 730.8688,347.7188 Q730.5875,348 730.15,348 Q729.7594,348 729.5094,347.8281 Q729.2594,347.6563 729.15,347.2031 Q729.1031,346.8906 728.9313,346.7188 Q728.6188,346.3906 728.0563,346.1953 Q727.4938,346 726.9313,346 Q726.2281,346 725.6422,346.2813 Q725.0563,346.5625 724.6031,347.1875 Q724.15,347.8125 724.15,348.6719 L724.15,349.5938 Q724.15,350.625 724.9938,351.3125 Q725.8375,352 727.3375,352 Q728.2281,352 728.8531,351.7969 Q729.2125,351.6875 729.6188,351.3281 Q729.8844,351.125 730.025,351.0625 Q730.1656,351 730.3375,351 Q730.6656,351 730.9078,351.2578 Q731.15,351.5156 731.15,351.875 Q731.15,352.2188 730.8063,352.625 Q730.3063,353.2188 729.5094,353.5469 Q728.4625,354 727.1813,354 Q725.6813,354 724.4781,353.4063 Q723.5094,352.9375 722.8297,351.9219 Q722.15,350.9063 722.15,349.7031 L722.15,348.6094 Q722.15,347.3594 722.7516,346.2656 Q723.3531,345.1719 724.4078,344.5859 Q725.4625,344 726.65,344 Q727.3688,344 727.9938,344.25 Q728.6188,344.5 729.15,345 Z "/><text fill="#000000" font-family="sans-serif" font-size="12" lengthAdjust="spacingAndGlyphs" textLength="76" x="743.85" y="353.4102">EmptyCellTile</text><line style="stroke: #A80036; stroke-width: 1.5;" x1="701" x2="834" y1="364.5" y2="364.5"/><ellipse cx="711" cy="376.918" fill="#84BE84" rx="3" ry="3" style="stroke: #038048; stroke-width: 1.0;"/><text fill="#000000" font-family="sans-serif" font-size="11" lengthAdjust="spacingAndGlyphs" textLength="109" x="720" y="379.9189">EmptyCellTile(cell: Cell)</text><!--class FloorCellTile--><rect fill="#FEFECE" filter="url(#flwyq6dymmqnc)" height="53.8359" id="FloorCellTile" style="stroke: #A80036; stroke-width: 1.5;" width="130" x="327.5" y="488"/><ellipse cx="355.1" cy="504" fill="#ADD1B2" rx="11" ry="11" style="stroke: #A80036; stroke-width: 1.0;"/><path d="M357.1,500.5 Q357.3031,500 357.5375,499.75 Q357.7719,499.5 358.0375,499.5 Q358.5063,499.5 358.8031,499.7813 Q359.1,500.0625 359.1,500.7188 L359.1,502.2813 Q359.1,502.9375 358.8188,503.2188 Q358.5375,503.5 358.1,503.5 Q357.7094,503.5 357.4594,503.3281 Q357.2094,503.1563 357.1,502.7031 Q357.0531,502.3906 356.8813,502.2188 Q356.5688,501.8906 356.0063,501.6953 Q355.4438,501.5 354.8813,501.5 Q354.1781,501.5 353.5922,501.7813 Q353.0063,502.0625 352.5531,502.6875 Q352.1,503.3125 352.1,504.1719 L352.1,505.0938 Q352.1,506.125 352.9438,506.8125 Q353.7875,507.5 355.2875,507.5 Q356.1781,507.5 356.8031,507.2969 Q357.1625,507.1875 357.5688,506.8281 Q357.8344,506.625 357.975,506.5625 Q358.1156,506.5 358.2875,506.5 Q358.6156,506.5 358.8578,506.7578 Q359.1,507.0156 359.1,507.375 Q359.1,507.7188 358.7563,508.125 Q358.2563,508.7188 357.4594,509.0469 Q356.4125,509.5 355.1313,509.5 Q353.6313,509.5 352.4281,508.9063 Q351.4594,508.4375 350.7797,507.4219 Q350.1,506.4063 350.1,505.2031 L350.1,504.1094 Q350.1,502.8594 350.7016,501.7656 Q351.3031,500.6719 352.3578,500.0859 Q353.4125,499.5 354.6,499.5 Q355.3188,499.5 355.9438,499.75 Q356.5688,500 357.1,500.5 Z "/><text fill="#000000" font-family="sans-serif" font-size="12" lengthAdjust="spacingAndGlyphs" textLength="70" x="371.9" y="508.9102">FloorCellTile</text><line style="stroke: #A80036; stroke-width: 1.5;" x1="328.5" x2="456.5" y1="520" y2="520"/><ellipse cx="338.5" cy="532.418" fill="#84BE84" rx="3" ry="3" style="stroke: #038048; stroke-width: 1.0;"/><text fill="#000000" font-family="sans-serif" font-size="11" lengthAdjust="spacingAndGlyphs" textLength="104" x="347.5" y="535.4189">FloorCellTile(cell: Cell)</text><!--class HoleCellTile--><rect fill="#FEFECE" filter="url(#flwyq6dymmqnc)" height="81.5078" id="HoleCellTile" style="stroke: #A80036; stroke-width: 1.5;" width="137" x="493" y="474"/><ellipse cx="524.65" cy="490" fill="#ADD1B2" rx="11" ry="11" style="stroke: #A80036; stroke-width: 1.0;"/><path d="M526.65,486.5 Q526.8531,486 527.0875,485.75 Q527.3219,485.5 527.5875,485.5 Q528.0563,485.5 528.3531,485.7813 Q528.65,486.0625 528.65,486.7188 L528.65,488.2813 Q528.65,488.9375 528.3688,489.2188 Q528.0875,489.5 527.65,489.5 Q527.2594,489.5 527.0094,489.3281 Q526.7594,489.1563 526.65,488.7031 Q526.6031,488.3906 526.4313,488.2188 Q526.1188,487.8906 525.5563,487.6953 Q524.9938,487.5 524.4313,487.5 Q523.7281,487.5 523.1422,487.7813 Q522.5563,488.0625 522.1031,488.6875 Q521.65,489.3125 521.65,490.1719 L521.65,491.0938 Q521.65,492.125 522.4938,492.8125 Q523.3375,493.5 524.8375,493.5 Q525.7281,493.5 526.3531,493.2969 Q526.7125,493.1875 527.1188,492.8281 Q527.3844,492.625 527.525,492.5625 Q527.6656,492.5 527.8375,492.5 Q528.1656,492.5 528.4078,492.7578 Q528.65,493.0156 528.65,493.375 Q528.65,493.7188 528.3063,494.125 Q527.8063,494.7188 527.0094,495.0469 Q525.9625,495.5 524.6813,495.5 Q523.1813,495.5 521.9781,494.9063 Q521.0094,494.4375 520.3297,493.4219 Q519.65,492.4063 519.65,491.2031 L519.65,490.1094 Q519.65,488.8594 520.2516,487.7656 Q520.8531,486.6719 521.9078,486.0859 Q522.9625,485.5 524.15,485.5 Q524.8688,485.5 525.4938,485.75 Q526.1188,486 526.65,486.5 Z "/><text fill="#000000" font-family="sans-serif" font-size="12" lengthAdjust="spacingAndGlyphs" textLength="68" x="542.35" y="494.9102">HoleCellTile</text><line style="stroke: #A80036; stroke-width: 1.5;" x1="494" x2="629" y1="506" y2="506"/><ellipse cx="504" cy="518.418" fill="#84BE84" rx="3" ry="3" style="stroke: #038048; stroke-width: 1.0;"/><text fill="#000000" font-family="sans-serif" font-size="11" lengthAdjust="spacingAndGlyphs" textLength="101" x="513" y="521.4189">HoleCellTile(cell: Cell)</text><ellipse cx="504" cy="532.2539" fill="#84BE84" rx="3" ry="3" style="stroke: #038048; stroke-width: 1.0;"/><text fill="#000000" font-family="sans-serif" font-size="11" lengthAdjust="spacingAndGlyphs" textLength="32" x="513" y="535.2549">clear()</text><polygon fill="#FFFF44" points="504,541.0898,508,545.0898,504,549.0898,500,545.0898" style="stroke: #B38D22; stroke-width: 1.0;"/><text fill="#000000" font-family="sans-serif" font-size="11" lengthAdjust="spacingAndGlyphs" textLength="111" x="513" y="549.0908">setPlayerBackground()</text><!--class DoorCellTile--><rect fill="#FEFECE" filter="url(#flwyq6dymmqnc)" height="67.6719" id="DoorCellTile" style="stroke: #A80036; stroke-width: 1.5;" width="129" x="665" y="481"/><ellipse cx="692.6" cy="497" fill="#ADD1B2" rx="11" ry="11" style="stroke: #A80036; stroke-width: 1.0;"/><path d="M694.6,493.5 Q694.8031,493 695.0375,492.75 Q695.2719,492.5 695.5375,492.5 Q696.0063,492.5 696.3031,492.7813 Q696.6,493.0625 696.6,493.7188 L696.6,495.2813 Q696.6,495.9375 696.3188,496.2188 Q696.0375,496.5 695.6,496.5 Q695.2094,496.5 694.9594,496.3281 Q694.7094,496.1563 694.6,495.7031 Q694.5531,495.3906 694.3813,495.2188 Q694.0688,494.8906 693.5063,494.6953 Q692.9438,494.5 692.3813,494.5 Q691.6781,494.5 691.0922,494.7813 Q690.5063,495.0625 690.0531,495.6875 Q689.6,496.3125 689.6,497.1719 L689.6,498.0938 Q689.6,499.125 690.4438,499.8125 Q691.2875,500.5 692.7875,500.5 Q693.6781,500.5 694.3031,500.2969 Q694.6625,500.1875 695.0688,499.8281 Q695.3344,499.625 695.475,499.5625 Q695.6156,499.5 695.7875,499.5 Q696.1156,499.5 696.3578,499.7578 Q696.6,500.0156 696.6,500.375 Q696.6,500.7188 696.2563,501.125 Q695.7563,501.7188 694.9594,502.0469 Q693.9125,502.5 692.6313,502.5 Q691.1313,502.5 689.9281,501.9063 Q688.9594,501.4375 688.2797,500.4219 Q687.6,499.4063 687.6,498.2031 L687.6,497.1094 Q687.6,495.8594 688.2016,494.7656 Q688.8031,493.6719 689.8578,493.0859 Q690.9125,492.5 692.1,492.5 Q692.8188,492.5 693.4438,492.75 Q694.0688,493 694.6,493.5 Z "/><text fill="#000000" font-family="sans-serif" font-size="12" lengthAdjust="spacingAndGlyphs" textLength="69" x="709.4" y="501.9102">DoorCellTile</text><line style="stroke: #A80036; stroke-width: 1.5;" x1="666" x2="793" y1="513" y2="513"/><ellipse cx="676" cy="525.418" fill="#84BE84" rx="3" ry="3" style="stroke: #038048; stroke-width: 1.0;"/><text fill="#000000" font-family="sans-serif" font-size="11" lengthAdjust="spacingAndGlyphs" textLength="103" x="685" y="528.4189">DoorCellTile(cell: Cell)</text><ellipse cx="676" cy="539.2539" fill="#84BE84" rx="3" ry="3" style="stroke: #038048; stroke-width: 1.0;"/><text fill="#000000" font-family="sans-serif" font-size="11" lengthAdjust="spacingAndGlyphs" textLength="32" x="685" y="542.2549">clear()</text><!--class WallCellTile--><rect fill="#FEFECE" filter="url(#flwyq6dymmqnc)" height="53.8359" id="WallCellTile" style="stroke: #A80036; stroke-width: 1.5;" width="126" x="870.5" y="332.5"/><ellipse cx="898.1" cy="348.5" fill="#ADD1B2" rx="11" ry="11" style="stroke: #A80036; stroke-width: 1.0;"/><path d="M900.1,345 Q900.3031,344.5 900.5375,344.25 Q900.7719,344 901.0375,344 Q901.5063,344 901.8031,344.2813 Q902.1,344.5625 902.1,345.2188 L902.1,346.7813 Q902.1,347.4375 901.8188,347.7188 Q901.5375,348 901.1,348 Q900.7094,348 900.4594,347.8281 Q900.2094,347.6563 900.1,347.2031 Q900.0531,346.8906 899.8813,346.7188 Q899.5688,346.3906 899.0063,346.1953 Q898.4438,346 897.8813,346 Q897.1781,346 896.5922,346.2813 Q896.0063,346.5625 895.5531,347.1875 Q895.1,347.8125 895.1,348.6719 L895.1,349.5938 Q895.1,350.625 895.9438,351.3125 Q896.7875,352 898.2875,352 Q899.1781,352 899.8031,351.7969 Q900.1625,351.6875 900.5688,351.3281 Q900.8344,351.125 900.975,351.0625 Q901.1156,351 901.2875,351 Q901.6156,351 901.8578,351.2578 Q902.1,351.5156 902.1,351.875 Q902.1,352.2188 901.7563,352.625 Q901.2563,353.2188 900.4594,353.5469 Q899.4125,354 898.1313,354 Q896.6313,354 895.4281,353.4063 Q894.4594,352.9375 893.7797,351.9219 Q893.1,350.9063 893.1,349.7031 L893.1,348.6094 Q893.1,347.3594 893.7016,346.2656 Q894.3031,345.1719 895.3578,344.5859 Q896.4125,344 897.6,344 Q898.3188,344 898.9438,344.25 Q899.5688,344.5 900.1,345 Z "/><text fill="#000000" font-family="sans-serif" font-size="12" lengthAdjust="spacingAndGlyphs" textLength="66" x="914.9" y="353.4102">WallCellTile</text><line style="stroke: #A80036; stroke-width: 1.5;" x1="871.5" x2="995.5" y1="364.5" y2="364.5"/><ellipse cx="881.5" cy="376.918" fill="#84BE84" rx="3" ry="3" style="stroke: #038048; stroke-width: 1.0;"/><text fill="#000000" font-family="sans-serif" font-size="11" lengthAdjust="spacingAndGlyphs" textLength="100" x="890.5" y="379.9189">WallCellTile(cell: Cell)</text><!--class UpCellTile--><rect fill="#FEFECE" filter="url(#flwyq6dymmqnc)" height="67.6719" id="UpCellTile" style="stroke: #A80036; stroke-width: 1.5;" width="119" x="6" y="629.5"/><ellipse cx="34.05" cy="645.5" fill="#ADD1B2" rx="11" ry="11" style="stroke: #A80036; stroke-width: 1.0;"/><path d="M36.05,642 Q36.2531,641.5 36.4875,641.25 Q36.7219,641 36.9875,641 Q37.4563,641 37.7531,641.2813 Q38.05,641.5625 38.05,642.2188 L38.05,643.7813 Q38.05,644.4375 37.7688,644.7188 Q37.4875,645 37.05,645 Q36.6594,645 36.4094,644.8281 Q36.1594,644.6563 36.05,644.2031 Q36.0031,643.8906 35.8313,643.7188 Q35.5188,643.3906 34.9563,643.1953 Q34.3938,643 33.8313,643 Q33.1281,643 32.5422,643.2813 Q31.9562,643.5625 31.5031,644.1875 Q31.05,644.8125 31.05,645.6719 L31.05,646.5938 Q31.05,647.625 31.8937,648.3125 Q32.7375,649 34.2375,649 Q35.1281,649 35.7531,648.7969 Q36.1125,648.6875 36.5188,648.3281 Q36.7844,648.125 36.925,648.0625 Q37.0656,648 37.2375,648 Q37.5656,648 37.8078,648.2578 Q38.05,648.5156 38.05,648.875 Q38.05,649.2188 37.7063,649.625 Q37.2063,650.2188 36.4094,650.5469 Q35.3625,651 34.0813,651 Q32.5813,651 31.3781,650.4063 Q30.4094,649.9375 29.7297,648.9219 Q29.05,647.9063 29.05,646.7031 L29.05,645.6094 Q29.05,644.3594 29.6516,643.2656 Q30.2531,642.1719 31.3078,641.5859 Q32.3625,641 33.55,641 Q34.2688,641 34.8938,641.25 Q35.5188,641.5 36.05,642 Z "/><text fill="#000000" font-family="sans-serif" font-size="12" lengthAdjust="spacingAndGlyphs" textLength="58" x="50.95" y="650.4102">UpCellTile</text><line style="stroke: #A80036; stroke-width: 1.5;" x1="7" x2="124" y1="661.5" y2="661.5"/><ellipse cx="17" cy="673.918" fill="#84BE84" rx="3" ry="3" style="stroke: #038048; stroke-width: 1.0;"/><text fill="#000000" font-family="sans-serif" font-size="11" lengthAdjust="spacingAndGlyphs" textLength="93" x="26" y="676.9189">UpCellTile(cell: Cell)</text><ellipse cx="17" cy="687.7539" fill="#84BE84" rx="3" ry="3" style="stroke: #038048; stroke-width: 1.0;"/><text fill="#000000" font-family="sans-serif" font-size="11" lengthAdjust="spacingAndGlyphs" textLength="32" x="26" y="690.7549">clear()</text><!--class DownCellTile--><rect fill="#FEFECE" filter="url(#flwyq6dymmqnc)" height="67.6719" id="DownCellTile" style="stroke: #A80036; stroke-width: 1.5;" width="135" x="160" y="629.5"/><ellipse cx="188.05" cy="645.5" fill="#ADD1B2" rx="11" ry="11" style="stroke: #A80036; stroke-width: 1.0;"/><path d="M190.05,642 Q190.2531,641.5 190.4875,641.25 Q190.7219,641 190.9875,641 Q191.4563,641 191.7531,641.2813 Q192.05,641.5625 192.05,642.2188 L192.05,643.7813 Q192.05,644.4375 191.7688,644.7188 Q191.4875,645 191.05,645 Q190.6594,645 190.4094,644.8281 Q190.1594,644.6563 190.05,644.2031 Q190.0031,643.8906 189.8313,643.7188 Q189.5188,643.3906 188.9563,643.1953 Q188.3938,643 187.8313,643 Q187.1281,643 186.5422,643.2813 Q185.9563,643.5625 185.5031,644.1875 Q185.05,644.8125 185.05,645.6719 L185.05,646.5938 Q185.05,647.625 185.8938,648.3125 Q186.7375,649 188.2375,649 Q189.1281,649 189.7531,648.7969 Q190.1125,648.6875 190.5188,648.3281 Q190.7844,648.125 190.925,648.0625 Q191.0656,648 191.2375,648 Q191.5656,648 191.8078,648.2578 Q192.05,648.5156 192.05,648.875 Q192.05,649.2188 191.7063,649.625 Q191.2063,650.2188 190.4094,650.5469 Q189.3625,651 188.0813,651 Q186.5813,651 185.3781,650.4063 Q184.4094,649.9375 183.7297,648.9219 Q183.05,647.9063 183.05,646.7031 L183.05,645.6094 Q183.05,644.3594 183.6516,643.2656 Q184.2531,642.1719 185.3078,641.5859 Q186.3625,641 187.55,641 Q188.2688,641 188.8938,641.25 Q189.5188,641.5 190.05,642 Z "/><text fill="#000000" font-family="sans-serif" font-size="12" lengthAdjust="spacingAndGlyphs" textLength="74" x="204.95" y="650.4102">DownCellTile</text><line style="stroke: #A80036; stroke-width: 1.5;" x1="161" x2="294" y1="661.5" y2="661.5"/><ellipse cx="171" cy="673.918" fill="#84BE84" rx="3" ry="3" style="stroke: #038048; stroke-width: 1.0;"/><text fill="#000000" font-family="sans-serif" font-size="11" lengthAdjust="spacingAndGlyphs" textLength="109" x="180" y="676.9189">DownCellTile(cell: Cell)</text><ellipse cx="171" cy="687.7539" fill="#84BE84" rx="3" ry="3" style="stroke: #038048; stroke-width: 1.0;"/><text fill="#000000" font-family="sans-serif" font-size="11" lengthAdjust="spacingAndGlyphs" textLength="32" x="180" y="690.7549">clear()</text><!--class LeftCellTile--><rect fill="#FEFECE" filter="url(#flwyq6dymmqnc)" height="67.6719" id="LeftCellTile" style="stroke: #A80036; stroke-width: 1.5;" width="125" x="330" y="629.5"/><ellipse cx="358.95" cy="645.5" fill="#ADD1B2" rx="11" ry="11" style="stroke: #A80036; stroke-width: 1.0;"/><path d="M360.95,642 Q361.1531,641.5 361.3875,641.25 Q361.6219,641 361.8875,641 Q362.3563,641 362.6531,641.2813 Q362.95,641.5625 362.95,642.2188 L362.95,643.7813 Q362.95,644.4375 362.6688,644.7188 Q362.3875,645 361.95,645 Q361.5594,645 361.3094,644.8281 Q361.0594,644.6563 360.95,644.2031 Q360.9031,643.8906 360.7313,643.7188 Q360.4188,643.3906 359.8563,643.1953 Q359.2938,643 358.7313,643 Q358.0281,643 357.4422,643.2813 Q356.8563,643.5625 356.4031,644.1875 Q355.95,644.8125 355.95,645.6719 L355.95,646.5938 Q355.95,647.625 356.7938,648.3125 Q357.6375,649 359.1375,649 Q360.0281,649 360.6531,648.7969 Q361.0125,648.6875 361.4188,648.3281 Q361.6844,648.125 361.825,648.0625 Q361.9656,648 362.1375,648 Q362.4656,648 362.7078,648.2578 Q362.95,648.5156 362.95,648.875 Q362.95,649.2188 362.6063,649.625 Q362.1063,650.2188 361.3094,650.5469 Q360.2625,651 358.9813,651 Q357.4813,651 356.2781,650.4063 Q355.3094,649.9375 354.6297,648.9219 Q353.95,647.9063 353.95,646.7031 L353.95,645.6094 Q353.95,644.3594 354.5516,643.2656 Q355.1531,642.1719 356.2078,641.5859 Q357.2625,641 358.45,641 Q359.1688,641 359.7938,641.25 Q360.4188,641.5 360.95,642 Z "/><text fill="#000000" font-family="sans-serif" font-size="12" lengthAdjust="spacingAndGlyphs" textLength="62" x="376.05" y="650.4102">LeftCellTile</text><line style="stroke: #A80036; stroke-width: 1.5;" x1="331" x2="454" y1="661.5" y2="661.5"/><ellipse cx="341" cy="673.918" fill="#84BE84" rx="3" ry="3" style="stroke: #038048; stroke-width: 1.0;"/><text fill="#000000" font-family="sans-serif" font-size="11" lengthAdjust="spacingAndGlyphs" textLength="99" x="350" y="676.9189">LeftCellTile(cell: Cell)</text><ellipse cx="341" cy="687.7539" fill="#84BE84" rx="3" ry="3" style="stroke: #038048; stroke-width: 1.0;"/><text fill="#000000" font-family="sans-serif" font-size="11" lengthAdjust="spacingAndGlyphs" textLength="32" x="350" y="690.7549">clear()</text><!--class RightCellTile--><rect fill="#FEFECE" filter="url(#flwyq6dymmqnc)" height="67.6719" id="RightCellTile" style="stroke: #A80036; stroke-width: 1.5;" width="130" x="490.5" y="629.5"/><ellipse cx="517.65" cy="645.5" fill="#ADD1B2" rx="11" ry="11" style="stroke: #A80036; stroke-width: 1.0;"/><path d="M519.65,642 Q519.8531,641.5 520.0875,641.25 Q520.3219,641 520.5875,641 Q521.0563,641 521.3531,641.2813 Q521.65,641.5625 521.65,642.2188 L521.65,643.7813 Q521.65,644.4375 521.3688,644.7188 Q521.0875,645 520.65,645 Q520.2594,645 520.0094,644.8281 Q519.7594,644.6563 519.65,644.2031 Q519.6031,643.8906 519.4313,643.7188 Q519.1188,643.3906 518.5563,643.1953 Q517.9938,643 517.4313,643 Q516.7281,643 516.1422,643.2813 Q515.5563,643.5625 515.1031,644.1875 Q514.65,644.8125 514.65,645.6719 L514.65,646.5938 Q514.65,647.625 515.4938,648.3125 Q516.3375,649 517.8375,649 Q518.7281,649 519.3531,648.7969 Q519.7125,648.6875 520.1188,648.3281 Q520.3844,648.125 520.525,648.0625 Q520.6656,648 520.8375,648 Q521.1656,648 521.4078,648.2578 Q521.65,648.5156 521.65,648.875 Q521.65,649.2188 521.3063,649.625 Q520.8063,650.2188 520.0094,650.5469 Q518.9625,651 517.6813,651 Q516.1813,651 514.9781,650.4063 Q514.0094,649.9375 513.3297,648.9219 Q512.65,647.9063 512.65,646.7031 L512.65,645.6094 Q512.65,644.3594 513.2516,643.2656 Q513.8531,642.1719 514.9078,641.5859 Q515.9625,641 517.15,641 Q517.8688,641 518.4938,641.25 Q519.1188,641.5 519.65,642 Z "/><text fill="#000000" font-family="sans-serif" font-size="12" lengthAdjust="spacingAndGlyphs" textLength="71" x="534.35" y="650.4102">RightCellTile</text><line style="stroke: #A80036; stroke-width: 1.5;" x1="491.5" x2="619.5" y1="661.5" y2="661.5"/><ellipse cx="501.5" cy="673.918" fill="#84BE84" rx="3" ry="3" style="stroke: #038048; stroke-width: 1.0;"/><text fill="#000000" font-family="sans-serif" font-size="11" lengthAdjust="spacingAndGlyphs" textLength="104" x="510.5" y="676.9189">RightCellTile(cell: Cell)</text><ellipse cx="501.5" cy="687.7539" fill="#84BE84" rx="3" ry="3" style="stroke: #038048; stroke-width: 1.0;"/><text fill="#000000" font-family="sans-serif" font-size="11" lengthAdjust="spacingAndGlyphs" textLength="32" x="510.5" y="690.7549">clear()</text><!--class ObjectiveCellTile--><rect fill="#FEFECE" filter="url(#flwyq6dymmqnc)" height="95.3438" id="ObjectiveCellTile" style="stroke: #A80036; stroke-width: 1.5;" width="151" x="656" y="616"/><ellipse cx="683.15" cy="632" fill="#ADD1B2" rx="11" ry="11" style="stroke: #A80036; stroke-width: 1.0;"/><path d="M685.15,628.5 Q685.3531,628 685.5875,627.75 Q685.8219,627.5 686.0875,627.5 Q686.5563,627.5 686.8531,627.7813 Q687.15,628.0625 687.15,628.7188 L687.15,630.2813 Q687.15,630.9375 686.8688,631.2188 Q686.5875,631.5 686.15,631.5 Q685.7594,631.5 685.5094,631.3281 Q685.2594,631.1563 685.15,630.7031 Q685.1031,630.3906 684.9313,630.2188 Q684.6188,629.8906 684.0563,629.6953 Q683.4938,629.5 682.9313,629.5 Q682.2281,629.5 681.6422,629.7813 Q681.0563,630.0625 680.6031,630.6875 Q680.15,631.3125 680.15,632.1719 L680.15,633.0938 Q680.15,634.125 680.9938,634.8125 Q681.8375,635.5 683.3375,635.5 Q684.2281,635.5 684.8531,635.2969 Q685.2125,635.1875 685.6188,634.8281 Q685.8844,634.625 686.025,634.5625 Q686.1656,634.5 686.3375,634.5 Q686.6656,634.5 686.9078,634.7578 Q687.15,635.0156 687.15,635.375 Q687.15,635.7188 686.8063,636.125 Q686.3063,636.7188 685.5094,637.0469 Q684.4625,637.5 683.1813,637.5 Q681.6813,637.5 680.4781,636.9063 Q679.5094,636.4375 678.8297,635.4219 Q678.15,634.4063 678.15,633.2031 L678.15,632.1094 Q678.15,630.8594 678.7516,629.7656 Q679.3531,628.6719 680.4078,628.0859 Q681.4625,627.5 682.65,627.5 Q683.3688,627.5 683.9938,627.75 Q684.6188,628 685.15,628.5 Z "/><text fill="#000000" font-family="sans-serif" font-size="12" lengthAdjust="spacingAndGlyphs" textLength="92" x="699.85" y="636.9102">ObjectiveCellTile</text><line style="stroke: #A80036; stroke-width: 1.5;" x1="657" x2="806" y1="648" y2="648"/><ellipse cx="667" cy="660.418" fill="#84BE84" rx="3" ry="3" style="stroke: #038048; stroke-width: 1.0;"/><text fill="#000000" font-family="sans-serif" font-size="11" lengthAdjust="spacingAndGlyphs" textLength="125" x="676" y="663.4189">ObjectiveCellTile(cell: Cell)</text><ellipse cx="667" cy="674.2539" fill="#84BE84" rx="3" ry="3" style="stroke: #038048; stroke-width: 1.0;"/><text fill="#000000" font-family="sans-serif" font-size="11" lengthAdjust="spacingAndGlyphs" textLength="32" x="676" y="677.2549">clear()</text><polygon fill="#FFFF44" points="667,683.0898,671,687.0898,667,691.0898,663,687.0898" style="stroke: #B38D22; stroke-width: 1.0;"/><text fill="#000000" font-family="sans-serif" font-size="11" lengthAdjust="spacingAndGlyphs" textLength="100" x="676" y="691.0908">setBoxBackground()</text><polygon fill="#FFFF44" points="667,696.9258,671,700.9258,667,704.9258,663,700.9258" style="stroke: #B38D22; stroke-width: 1.0;"/><text fill="#000000" font-family="sans-serif" font-size="11" lengthAdjust="spacingAndGlyphs" textLength="123" x="676" y="704.9268">setLightBoxBackground()</text><!--link Tile to CellTile--><path d="M767.5,60.323 C767.5,72.285 767.5,86.111 767.5,99.861 " fill="none" id="Tile-CellTile" style="stroke: #A80036; stroke-width: 1.0;"/><polygon fill="none" points="760.5,60.126,767.5,40.126,774.5,60.126,760.5,60.126" style="stroke: #A80036; stroke-width: 1.0;"/><!--link CellTile to PlayableCellTile--><path d="M672.854,258.498 C655.246,274.311 637.31,290.418 621.123,304.955 " fill="none" id="CellTile-PlayableCellTile" style="stroke: #A80036; stroke-width: 1.0;"/><polygon fill="none" points="668.298,253.181,687.855,245.026,677.652,263.597,668.298,253.181" style="stroke: #A80036; stroke-width: 1.0;"/><!--link CellTile to EmptyCellTile--><path d="M767.5,265.124 C767.5,289.805 767.5,314.57 767.5,332.388 " fill="none" id="CellTile-EmptyCellTile" style="stroke: #A80036; stroke-width: 1.0;"/><polygon fill="none" points="760.5,265.026,767.5,245.026,774.5,265.026,760.5,265.026" style="stroke: #A80036; stroke-width: 1.0;"/><!--link PlayableCellTile to FloorCellTile--><path d="M487.31,427.886 C464.01,449.048 439.65,471.175 421.456,487.7 " fill="none" id="PlayableCellTile-FloorCellTile" style="stroke: #A80036; stroke-width: 1.0;"/><polygon fill="none" points="482.881,422.452,502.392,414.187,492.294,432.815,482.881,422.452" style="stroke: #A80036; stroke-width: 1.0;"/><!--link PlayableCellTile to HoleCellTile--><path d="M561.5,434.405 C561.5,447.93 561.5,461.573 561.5,473.651 " fill="none" id="PlayableCellTile-HoleCellTile" style="stroke: #A80036; stroke-width: 1.0;"/><polygon fill="none" points="554.5,434.187,561.5,414.187,568.5,434.187,554.5,434.187" style="stroke: #A80036; stroke-width: 1.0;"/><!--link PlayableCellTile to DoorCellTile--><path d="M635.031,427.684 C655.123,446.042 676.026,465.141 693.047,480.693 " fill="none" id="PlayableCellTile-DoorCellTile" style="stroke: #A80036; stroke-width: 1.0;"/><polygon fill="none" points="630.302,432.845,620.258,414.187,639.745,422.51,630.302,432.845" style="stroke: #A80036; stroke-width: 1.0;"/><!--link CellTile to WallCellTile--><path d="M845.09,259.97 C868.735,286.322 892.968,313.329 910.07,332.388 " fill="none" id="CellTile-WallCellTile" style="stroke: #A80036; stroke-width: 1.0;"/><polygon fill="none" points="839.827,264.587,831.68,245.026,850.247,255.237,839.827,264.587" style="stroke: #A80036; stroke-width: 1.0;"/><!--link FloorCellTile to UpCellTile--><path d="M308.444,545.714 C259.22,564.073 196.345,589.195 142.5,616 C134.392,620.0365 126.005,624.6308 117.882,629.323 " fill="none" id="FloorCellTile-UpCellTile" style="stroke: #A80036; stroke-width: 1.0;"/><polygon fill="none" points="306.085,539.123,327.272,538.772,310.928,552.259,306.085,539.123" style="stroke: #A80036; stroke-width: 1.0;"/><!--link FloorCellTile to DownCellTile--><path d="M347.778,555.708 C321.803,578.77 289.456,607.491 264.851,629.337 " fill="none" id="FloorCellTile-DownCellTile" style="stroke: #A80036; stroke-width: 1.0;"/><polygon fill="none" points="343.398,550.236,363.001,542.191,352.693,560.705,343.398,550.236" style="stroke: #A80036; stroke-width: 1.0;"/><!--link FloorCellTile to LeftCellTile--><path d="M392.5,562.376 C392.5,584.128 392.5,609.552 392.5,629.337 " fill="none" id="FloorCellTile-LeftCellTile" style="stroke: #A80036; stroke-width: 1.0;"/><polygon fill="none" points="385.5,562.191,392.5,542.191,399.5,562.191,385.5,562.191" style="stroke: #A80036; stroke-width: 1.0;"/><!--link FloorCellTile to RightCellTile--><path d="M436.68,555.708 C462.34,578.77 494.295,607.491 518.602,629.337 " fill="none" id="FloorCellTile-RightCellTile" style="stroke: #A80036; stroke-width: 1.0;"/><polygon fill="none" points="431.837,560.767,421.641,542.191,441.195,550.354,431.837,560.767" style="stroke: #A80036; stroke-width: 1.0;"/><!--link FloorCellTile to ObjectiveCellTile--><path d="M463.096,550.586 C467.275,552.458 471.432,554.276 475.5,556 C546.576,586.125 567.645,585.358 638.5,616 C644.216,618.472 650.081,621.1223 655.95,623.8579 " fill="none" id="FloorCellTile-ObjectiveCellTile" style="stroke: #A80036; stroke-width: 1.0;"/><polygon fill="none" points="460.068,556.899,444.84,542.165,465.933,544.186,460.068,556.899" style="stroke: #A80036; stroke-width: 1.0;"/><!--
@startuml
hide empty members

Tile <|- - CellTile

CellTile <|- - PlayableCellTile
CellTile <|- - EmptyCellTile
PlayableCellTile <|- - FloorCellTile
PlayableCellTile <|- - HoleCellTile
PlayableCellTile <|- - DoorCellTile
CellTile <|- - WallCellTile

FloorCellTile <|- - UpCellTile
FloorCellTile <|- - DownCellTile
FloorCellTile <|- - LeftCellTile
FloorCellTile <|- - RightCellTile
FloorCellTile <|- - ObjectiveCellTile

abstract class Tile

abstract class CellTile {
    +{static} SIDE: int
    -tileColor: int
    #cell: Cell

    +CellTile(cell: Cell, tileColor: int)
    #init()
    #printChar(p: char, foreground: int)
    +{static} tileOf(cell: Cell): CellTile
}

abstract class PlayableCellTile {
    +PlayableCellTile(cell: Cell, tileColor: int)
    +paint()
    #setPlayerBackground()
    #setBoxBackground()
    #setLightBoxBackground()
}

class FloorCellTile {
    +FloorCellTile(cell: Cell)
}

class UpCellTile {
    +UpCellTile(cell: Cell)
    +clear()
}

class DownCellTile {
    +DownCellTile(cell: Cell)
    +clear()
}

class LeftCellTile {
    +LeftCellTile(cell: Cell)
    +clear()
}

class RightCellTile {
    +RightCellTile(cell: Cell)
    +clear()
}

class EmptyCellTile {
    +EmptyCellTile(cell: Cell)
}

class WallCellTile {
    +WallCellTile(cell: Cell)
}

class HoleCellTile {
    +HoleCellTile(cell: Cell)
    +clear()
    #setPlayerBackground()
}

class DoorCellTile {
    +DoorCellTile(cell: Cell)
    +clear()
}

class ObjectiveCellTile {
    +ObjectiveCellTile(cell: Cell)
    +clear()
    #setBoxBackground()
    #setLightBoxBackground()
}

@enduml

PlantUML version 1.2019.04(Fri Mar 29 15:44:36 GMT 2019)
(GPL source distribution)
Java Runtime: OpenJDK Runtime Environment
JVM: OpenJDK 64-Bit Server VM
Java Version: 1.8.0_202-release-1483-b39
Operating System: Windows 10
OS Version: 10.0
Default Encoding: Cp1252
Language: pt
Country: PT
--></g></svg>