<?xml version="1.0" encoding="UTF-8" standalone="no"?><svg xmlns="http://www.w3.org/2000/svg" xmlns:xlink="http://www.w3.org/1999/xlink" contentScriptType="application/ecmascript" contentStyleType="text/css" height="817px" preserveAspectRatio="none" style="width:1051px;height:817px;" version="1.1" viewBox="0 0 1051 817" width="1051px" zoomAndPan="magnify"><defs><filter height="300%" id="fjn21otq3d5qq" width="300%" x="-1" y="-1"><feGaussianBlur result="blurOut" stdDeviation="2.0"/><feColorMatrix in="blurOut" result="blurOut2" type="matrix" values="0 0 0 0 0 0 0 0 0 0 0 0 0 0 0 0 0 0 .4 0"/><feOffset dx="4.0" dy="4.0" in="blurOut2" result="blurOut3"/><feBlend in="SourceGraphic" in2="blurOut3" mode="normal"/></filter></defs><g><!--class Cell--><rect fill="#FEFECE" filter="url(#fjn21otq3d5qq)" height="200.1953" id="Cell" style="stroke: #A80036; stroke-width: 1.5;" width="243" x="700.5" y="8"/><ellipse cx="806.75" cy="24" fill="#A9DCDF" rx="11" ry="11" style="stroke: #A80036; stroke-width: 1.0;"/><path d="M808.5,25.5 L805.2031,25.5 L804.7656,26.5 L804.7656,26.5 L805.2344,26.5 L805.75,27.125 L805.75,27.5 L805.75,27.875 L805.2344,28.5 L804.7656,28.5 L802.875,28.5 L802.2656,28.5 L801.75,27.875 L801.75,27.5 L801.75,27.125 L802.2656,26.5 L802.875,26.5 L805.1875,20.5 L804.3125,20.5 L803.2656,20.5 L802.75,19.875 L802.75,19.5 L802.75,19.125 L803.2656,18.5 L804.3125,18.5 L807.9844,18.5 L810.6719,26.5 L811.2344,26.5 L811.2344,26.5 L811.75,27.125 L811.75,27.5 L811.75,27.875 L811.2344,28.5 L810.6719,28.5 L808.7813,28.5 L808.2656,28.5 L807.75,27.875 L807.75,27.5 L807.75,27.125 L808.2656,26.5 L808.7813,26.5 L808.7813,26.5 L808.5,25.5 Z M807.9531,23.5 L806.75,19.9219 L805.7188,23.5 L807.9531,23.5 Z "/><text fill="#000000" font-family="sans-serif" font-size="12" font-style="italic" lengthAdjust="spacingAndGlyphs" textLength="22" x="827.25" y="28.9102">Cell</text><line style="stroke: #A80036; stroke-width: 1.5;" x1="701.5" x2="942.5" y1="40" y2="40"/><rect fill="none" height="6" style="stroke: #C82930; stroke-width: 1.0;" width="6" x="708.5" y="49.418"/><text fill="#000000" font-family="sans-serif" font-size="11" lengthAdjust="spacingAndGlyphs" textLength="49" x="720.5" y="55.4189">type: char</text><ellipse cx="711.5" cy="66.2539" fill="none" rx="3" ry="3" style="stroke: #038048; stroke-width: 1.0;"/><text fill="#000000" font-family="sans-serif" font-size="11" lengthAdjust="spacingAndGlyphs" textLength="33" x="720.5" y="69.2549">line: int</text><ellipse cx="711.5" cy="80.0898" fill="none" rx="3" ry="3" style="stroke: #038048; stroke-width: 1.0;"/><text fill="#000000" font-family="sans-serif" font-size="11" lengthAdjust="spacingAndGlyphs" textLength="51" x="720.5" y="83.0908">column: int</text><polygon fill="none" points="711.5,88.9258,715.5,92.9258,711.5,96.9258,707.5,92.9258" style="stroke: #B38D22; stroke-width: 1.0;"/><text fill="#000000" font-family="sans-serif" font-size="11" lengthAdjust="spacingAndGlyphs" textLength="58" x="720.5" y="96.9268">actor: Actor</text><line style="stroke: #A80036; stroke-width: 1.5;" x1="701.5" x2="942.5" y1="103.3438" y2="103.3438"/><ellipse cx="711.5" cy="115.7617" fill="#84BE84" rx="3" ry="3" style="stroke: #038048; stroke-width: 1.0;"/><text fill="#000000" font-family="sans-serif" font-size="11" lengthAdjust="spacingAndGlyphs" textLength="128" x="720.5" y="118.7627">Cell(l: int, c: int, type: char)</text><ellipse cx="711.5" cy="129.5977" fill="#84BE84" rx="3" ry="3" style="stroke: #038048; stroke-width: 1.0;"/><text fill="#000000" font-family="sans-serif" font-size="11" lengthAdjust="spacingAndGlyphs" textLength="217" x="720.5" y="132.5986">canHaveActor(dir: Dir, actor: Actor): boolean</text><ellipse cx="711.5" cy="143.4336" fill="#84BE84" rx="3" ry="3" style="stroke: #038048; stroke-width: 1.0;"/><text fill="#000000" font-family="sans-serif" font-size="11" lengthAdjust="spacingAndGlyphs" textLength="108" x="720.5" y="146.4346">setActor(actor: Actor)</text><ellipse cx="711.5" cy="157.2695" fill="#84BE84" rx="3" ry="3" style="stroke: #038048; stroke-width: 1.0;"/><text fill="#000000" font-family="sans-serif" font-size="11" lengthAdjust="spacingAndGlyphs" textLength="83" x="720.5" y="160.2705">getActor(): Actor</text><ellipse cx="711.5" cy="171.1055" fill="#84BE84" rx="3" ry="3" style="stroke: #038048; stroke-width: 1.0;"/><text fill="#000000" font-family="sans-serif" font-size="11" lengthAdjust="spacingAndGlyphs" textLength="97" x="720.5" y="174.1064">hasActor(): boolean</text><ellipse cx="711.5" cy="184.9414" fill="#84BE84" rx="3" ry="3" style="stroke: #038048; stroke-width: 1.0;"/><text fill="#000000" font-family="sans-serif" font-size="11" lengthAdjust="spacingAndGlyphs" textLength="75" x="720.5" y="187.9424">getType(): char</text><ellipse cx="711.5" cy="198.7773" fill="#84BE84" rx="3" ry="3" style="stroke: #038048; stroke-width: 1.0;"/><text fill="#000000" font-family="sans-serif" font-size="11" lengthAdjust="spacingAndGlyphs" text-decoration="underline" textLength="180" x="720.5" y="201.7783">getCellByType(l: int, c: int, type: char)</text><!--class PlayableCell--><rect fill="#FEFECE" filter="url(#fjn21otq3d5qq)" height="75.6719" id="PlayableCell" style="stroke: #A80036; stroke-width: 1.5;" width="243" x="479.5" y="268"/><ellipse cx="561.25" cy="284" fill="#A9DCDF" rx="11" ry="11" style="stroke: #A80036; stroke-width: 1.0;"/><path d="M563,285.5 L559.7031,285.5 L559.2656,286.5 L559.2656,286.5 L559.7344,286.5 L560.25,287.125 L560.25,287.5 L560.25,287.875 L559.7344,288.5 L559.2656,288.5 L557.375,288.5 L556.7656,288.5 L556.25,287.875 L556.25,287.5 L556.25,287.125 L556.7656,286.5 L557.375,286.5 L559.6875,280.5 L558.8125,280.5 L557.7656,280.5 L557.25,279.875 L557.25,279.5 L557.25,279.125 L557.7656,278.5 L558.8125,278.5 L562.4844,278.5 L565.1719,286.5 L565.7344,286.5 L565.7344,286.5 L566.25,287.125 L566.25,287.5 L566.25,287.875 L565.7344,288.5 L565.1719,288.5 L563.2813,288.5 L562.7656,288.5 L562.25,287.875 L562.25,287.5 L562.25,287.125 L562.7656,286.5 L563.2813,286.5 L563.2813,286.5 L563,285.5 Z M562.4531,283.5 L561.25,279.9219 L560.2188,283.5 L562.4531,283.5 Z "/><text fill="#000000" font-family="sans-serif" font-size="12" font-style="italic" lengthAdjust="spacingAndGlyphs" textLength="71" x="581.75" y="288.9102">PlayableCell</text><line style="stroke: #A80036; stroke-width: 1.5;" x1="480.5" x2="721.5" y1="300" y2="300"/><line style="stroke: #A80036; stroke-width: 1.5;" x1="480.5" x2="721.5" y1="308" y2="308"/><ellipse cx="490.5" cy="320.418" fill="#84BE84" rx="3" ry="3" style="stroke: #038048; stroke-width: 1.0;"/><text fill="#000000" font-family="sans-serif" font-size="11" lengthAdjust="spacingAndGlyphs" textLength="168" x="499.5" y="323.4189">PlayableCell(l: int, c: int, type: char)</text><ellipse cx="490.5" cy="334.2539" fill="#84BE84" rx="3" ry="3" style="stroke: #038048; stroke-width: 1.0;"/><text fill="#000000" font-family="sans-serif" font-size="11" lengthAdjust="spacingAndGlyphs" textLength="217" x="499.5" y="337.2549">canHaveActor(dir: Dir, actor: Actor): boolean</text><!--class EmptyCell--><rect fill="#FEFECE" filter="url(#fjn21otq3d5qq)" height="75.6719" id="EmptyCell" style="stroke: #A80036; stroke-width: 1.5;" width="128" x="758" y="268"/><ellipse cx="791" cy="284" fill="#ADD1B2" rx="11" ry="11" style="stroke: #A80036; stroke-width: 1.0;"/><path d="M793,280.5 Q793.2031,280 793.4375,279.75 Q793.6719,279.5 793.9375,279.5 Q794.4063,279.5 794.7031,279.7813 Q795,280.0625 795,280.7188 L795,282.2813 Q795,282.9375 794.7188,283.2188 Q794.4375,283.5 794,283.5 Q793.6094,283.5 793.3594,283.3281 Q793.1094,283.1563 793,282.7031 Q792.9531,282.3906 792.7813,282.2188 Q792.4688,281.8906 791.9063,281.6953 Q791.3438,281.5 790.7813,281.5 Q790.0781,281.5 789.4922,281.7813 Q788.9063,282.0625 788.4531,282.6875 Q788,283.3125 788,284.1719 L788,285.0938 Q788,286.125 788.8438,286.8125 Q789.6875,287.5 791.1875,287.5 Q792.0781,287.5 792.7031,287.2969 Q793.0625,287.1875 793.4688,286.8281 Q793.7344,286.625 793.875,286.5625 Q794.0156,286.5 794.1875,286.5 Q794.5156,286.5 794.7578,286.7578 Q795,287.0156 795,287.375 Q795,287.7188 794.6563,288.125 Q794.1563,288.7188 793.3594,289.0469 Q792.3125,289.5 791.0313,289.5 Q789.5313,289.5 788.3281,288.9063 Q787.3594,288.4375 786.6797,287.4219 Q786,286.4063 786,285.2031 L786,284.1094 Q786,282.8594 786.6016,281.7656 Q787.2031,280.6719 788.2578,280.0859 Q789.3125,279.5 790.5,279.5 Q791.2188,279.5 791.8438,279.75 Q792.4688,280 793,280.5 Z "/><text fill="#000000" font-family="sans-serif" font-size="12" lengthAdjust="spacingAndGlyphs" textLength="56" x="809" y="288.9102">EmptyCell</text><line style="stroke: #A80036; stroke-width: 1.5;" x1="759" x2="885" y1="300" y2="300"/><ellipse cx="769" cy="312.418" fill="none" rx="3" ry="3" style="stroke: #038048; stroke-width: 1.0;"/><text fill="#000000" font-family="sans-serif" font-size="11" lengthAdjust="spacingAndGlyphs" text-decoration="underline" textLength="54" x="778" y="315.4189">TYPE: char</text><line style="stroke: #A80036; stroke-width: 1.5;" x1="759" x2="885" y1="321.8359" y2="321.8359"/><ellipse cx="769" cy="334.2539" fill="#84BE84" rx="3" ry="3" style="stroke: #038048; stroke-width: 1.0;"/><text fill="#000000" font-family="sans-serif" font-size="11" lengthAdjust="spacingAndGlyphs" textLength="102" x="778" y="337.2549">EmptyCell(l: int, c: int)</text><!--class FloorCell--><rect fill="#FEFECE" filter="url(#fjn21otq3d5qq)" height="89.5078" id="FloorCell" style="stroke: #A80036; stroke-width: 1.5;" width="178" x="328" y="404"/><ellipse cx="387.75" cy="420" fill="#ADD1B2" rx="11" ry="11" style="stroke: #A80036; stroke-width: 1.0;"/><path d="M389.75,416.5 Q389.9531,416 390.1875,415.75 Q390.4219,415.5 390.6875,415.5 Q391.1563,415.5 391.4531,415.7813 Q391.75,416.0625 391.75,416.7188 L391.75,418.2813 Q391.75,418.9375 391.4688,419.2188 Q391.1875,419.5 390.75,419.5 Q390.3594,419.5 390.1094,419.3281 Q389.8594,419.1563 389.75,418.7031 Q389.7031,418.3906 389.5313,418.2188 Q389.2188,417.8906 388.6563,417.6953 Q388.0938,417.5 387.5313,417.5 Q386.8281,417.5 386.2422,417.7813 Q385.6563,418.0625 385.2031,418.6875 Q384.75,419.3125 384.75,420.1719 L384.75,421.0938 Q384.75,422.125 385.5938,422.8125 Q386.4375,423.5 387.9375,423.5 Q388.8281,423.5 389.4531,423.2969 Q389.8125,423.1875 390.2188,422.8281 Q390.4844,422.625 390.625,422.5625 Q390.7656,422.5 390.9375,422.5 Q391.2656,422.5 391.5078,422.7578 Q391.75,423.0156 391.75,423.375 Q391.75,423.7188 391.4063,424.125 Q390.9063,424.7188 390.1094,425.0469 Q389.0625,425.5 387.7813,425.5 Q386.2813,425.5 385.0781,424.9063 Q384.1094,424.4375 383.4297,423.4219 Q382.75,422.4063 382.75,421.2031 L382.75,420.1094 Q382.75,418.8594 383.3516,417.7656 Q383.9531,416.6719 385.0078,416.0859 Q386.0625,415.5 387.25,415.5 Q387.9688,415.5 388.5938,415.75 Q389.2188,416 389.75,416.5 Z "/><text fill="#000000" font-family="sans-serif" font-size="12" lengthAdjust="spacingAndGlyphs" textLength="50" x="408.25" y="424.9102">FloorCell</text><line style="stroke: #A80036; stroke-width: 1.5;" x1="329" x2="505" y1="436" y2="436"/><ellipse cx="339" cy="448.418" fill="none" rx="3" ry="3" style="stroke: #038048; stroke-width: 1.0;"/><text fill="#000000" font-family="sans-serif" font-size="11" lengthAdjust="spacingAndGlyphs" text-decoration="underline" textLength="54" x="348" y="451.4189">TYPE: char</text><line style="stroke: #A80036; stroke-width: 1.5;" x1="329" x2="505" y1="457.8359" y2="457.8359"/><ellipse cx="339" cy="470.2539" fill="#84BE84" rx="3" ry="3" style="stroke: #038048; stroke-width: 1.0;"/><text fill="#000000" font-family="sans-serif" font-size="11" lengthAdjust="spacingAndGlyphs" textLength="97" x="348" y="473.2549">FloorCell(l: int, c: int)</text><polygon fill="#FFFF44" points="339,479.0898,343,483.0898,339,487.0898,335,483.0898" style="stroke: #B38D22; stroke-width: 1.0;"/><text fill="#000000" font-family="sans-serif" font-size="11" lengthAdjust="spacingAndGlyphs" textLength="152" x="348" y="487.0908">FloorCell(l: int, c: int, type: char)</text><!--class HoleCell--><rect fill="#FEFECE" filter="url(#fjn21otq3d5qq)" height="75.6719" id="HoleCell" style="stroke: #A80036; stroke-width: 1.5;" width="120" x="541" y="411"/><ellipse cx="574" cy="427" fill="#ADD1B2" rx="11" ry="11" style="stroke: #A80036; stroke-width: 1.0;"/><path d="M576,423.5 Q576.2031,423 576.4375,422.75 Q576.6719,422.5 576.9375,422.5 Q577.4063,422.5 577.7031,422.7813 Q578,423.0625 578,423.7188 L578,425.2813 Q578,425.9375 577.7188,426.2188 Q577.4375,426.5 577,426.5 Q576.6094,426.5 576.3594,426.3281 Q576.1094,426.1563 576,425.7031 Q575.9531,425.3906 575.7813,425.2188 Q575.4688,424.8906 574.9063,424.6953 Q574.3438,424.5 573.7813,424.5 Q573.0781,424.5 572.4922,424.7813 Q571.9063,425.0625 571.4531,425.6875 Q571,426.3125 571,427.1719 L571,428.0938 Q571,429.125 571.8438,429.8125 Q572.6875,430.5 574.1875,430.5 Q575.0781,430.5 575.7031,430.2969 Q576.0625,430.1875 576.4688,429.8281 Q576.7344,429.625 576.875,429.5625 Q577.0156,429.5 577.1875,429.5 Q577.5156,429.5 577.7578,429.7578 Q578,430.0156 578,430.375 Q578,430.7188 577.6563,431.125 Q577.1563,431.7188 576.3594,432.0469 Q575.3125,432.5 574.0313,432.5 Q572.5313,432.5 571.3281,431.9063 Q570.3594,431.4375 569.6797,430.4219 Q569,429.4063 569,428.2031 L569,427.1094 Q569,425.8594 569.6016,424.7656 Q570.2031,423.6719 571.2578,423.0859 Q572.3125,422.5 573.5,422.5 Q574.2188,422.5 574.8438,422.75 Q575.4688,423 576,423.5 Z "/><text fill="#000000" font-family="sans-serif" font-size="12" lengthAdjust="spacingAndGlyphs" textLength="48" x="592" y="431.9102">HoleCell</text><line style="stroke: #A80036; stroke-width: 1.5;" x1="542" x2="660" y1="443" y2="443"/><ellipse cx="552" cy="455.418" fill="none" rx="3" ry="3" style="stroke: #038048; stroke-width: 1.0;"/><text fill="#000000" font-family="sans-serif" font-size="11" lengthAdjust="spacingAndGlyphs" text-decoration="underline" textLength="54" x="561" y="458.4189">TYPE: char</text><line style="stroke: #A80036; stroke-width: 1.5;" x1="542" x2="660" y1="464.8359" y2="464.8359"/><ellipse cx="552" cy="477.2539" fill="#84BE84" rx="3" ry="3" style="stroke: #038048; stroke-width: 1.0;"/><text fill="#000000" font-family="sans-serif" font-size="11" lengthAdjust="spacingAndGlyphs" textLength="94" x="561" y="480.2549">HoleCell(l: int, c: int)</text><!--class DoorCell--><rect fill="#FEFECE" filter="url(#fjn21otq3d5qq)" height="75.6719" id="DoorCell" style="stroke: #A80036; stroke-width: 1.5;" width="122" x="696" y="411"/><ellipse cx="729.45" cy="427" fill="#ADD1B2" rx="11" ry="11" style="stroke: #A80036; stroke-width: 1.0;"/><path d="M731.45,423.5 Q731.6531,423 731.8875,422.75 Q732.1219,422.5 732.3875,422.5 Q732.8563,422.5 733.1531,422.7813 Q733.45,423.0625 733.45,423.7188 L733.45,425.2813 Q733.45,425.9375 733.1688,426.2188 Q732.8875,426.5 732.45,426.5 Q732.0594,426.5 731.8094,426.3281 Q731.5594,426.1563 731.45,425.7031 Q731.4031,425.3906 731.2313,425.2188 Q730.9188,424.8906 730.3563,424.6953 Q729.7938,424.5 729.2313,424.5 Q728.5281,424.5 727.9422,424.7813 Q727.3563,425.0625 726.9031,425.6875 Q726.45,426.3125 726.45,427.1719 L726.45,428.0938 Q726.45,429.125 727.2938,429.8125 Q728.1375,430.5 729.6375,430.5 Q730.5281,430.5 731.1531,430.2969 Q731.5125,430.1875 731.9188,429.8281 Q732.1844,429.625 732.325,429.5625 Q732.4656,429.5 732.6375,429.5 Q732.9656,429.5 733.2078,429.7578 Q733.45,430.0156 733.45,430.375 Q733.45,430.7188 733.1063,431.125 Q732.6063,431.7188 731.8094,432.0469 Q730.7625,432.5 729.4813,432.5 Q727.9813,432.5 726.7781,431.9063 Q725.8094,431.4375 725.1297,430.4219 Q724.45,429.4063 724.45,428.2031 L724.45,427.1094 Q724.45,425.8594 725.0516,424.7656 Q725.6531,423.6719 726.7078,423.0859 Q727.7625,422.5 728.95,422.5 Q729.6688,422.5 730.2938,422.75 Q730.9188,423 731.45,423.5 Z "/><text fill="#000000" font-family="sans-serif" font-size="12" lengthAdjust="spacingAndGlyphs" textLength="49" x="747.55" y="431.9102">DoorCell</text><line style="stroke: #A80036; stroke-width: 1.5;" x1="697" x2="817" y1="443" y2="443"/><ellipse cx="707" cy="455.418" fill="none" rx="3" ry="3" style="stroke: #038048; stroke-width: 1.0;"/><text fill="#000000" font-family="sans-serif" font-size="11" lengthAdjust="spacingAndGlyphs" text-decoration="underline" textLength="54" x="716" y="458.4189">TYPE: char</text><line style="stroke: #A80036; stroke-width: 1.5;" x1="697" x2="817" y1="464.8359" y2="464.8359"/><ellipse cx="707" cy="477.2539" fill="#84BE84" rx="3" ry="3" style="stroke: #038048; stroke-width: 1.0;"/><text fill="#000000" font-family="sans-serif" font-size="11" lengthAdjust="spacingAndGlyphs" textLength="96" x="716" y="480.2549">DoorCell(l: int, c: int)</text><!--class WallCell--><rect fill="#FEFECE" filter="url(#fjn21otq3d5qq)" height="75.6719" id="WallCell" style="stroke: #A80036; stroke-width: 1.5;" width="119" x="921.5" y="268"/><ellipse cx="954.95" cy="284" fill="#ADD1B2" rx="11" ry="11" style="stroke: #A80036; stroke-width: 1.0;"/><path d="M956.95,280.5 Q957.1531,280 957.3875,279.75 Q957.6219,279.5 957.8875,279.5 Q958.3563,279.5 958.6531,279.7813 Q958.95,280.0625 958.95,280.7188 L958.95,282.2813 Q958.95,282.9375 958.6688,283.2188 Q958.3875,283.5 957.95,283.5 Q957.5594,283.5 957.3094,283.3281 Q957.0594,283.1563 956.95,282.7031 Q956.9031,282.3906 956.7313,282.2188 Q956.4188,281.8906 955.8563,281.6953 Q955.2938,281.5 954.7313,281.5 Q954.0281,281.5 953.4422,281.7813 Q952.8563,282.0625 952.4031,282.6875 Q951.95,283.3125 951.95,284.1719 L951.95,285.0938 Q951.95,286.125 952.7938,286.8125 Q953.6375,287.5 955.1375,287.5 Q956.0281,287.5 956.6531,287.2969 Q957.0125,287.1875 957.4188,286.8281 Q957.6844,286.625 957.825,286.5625 Q957.9656,286.5 958.1375,286.5 Q958.4656,286.5 958.7078,286.7578 Q958.95,287.0156 958.95,287.375 Q958.95,287.7188 958.6063,288.125 Q958.1063,288.7188 957.3094,289.0469 Q956.2625,289.5 954.9813,289.5 Q953.4813,289.5 952.2781,288.9063 Q951.3094,288.4375 950.6297,287.4219 Q949.95,286.4063 949.95,285.2031 L949.95,284.1094 Q949.95,282.8594 950.5516,281.7656 Q951.1531,280.6719 952.2078,280.0859 Q953.2625,279.5 954.45,279.5 Q955.1688,279.5 955.7938,279.75 Q956.4188,280 956.95,280.5 Z "/><text fill="#000000" font-family="sans-serif" font-size="12" lengthAdjust="spacingAndGlyphs" textLength="46" x="973.05" y="288.9102">WallCell</text><line style="stroke: #A80036; stroke-width: 1.5;" x1="922.5" x2="1039.5" y1="300" y2="300"/><ellipse cx="932.5" cy="312.418" fill="none" rx="3" ry="3" style="stroke: #038048; stroke-width: 1.0;"/><text fill="#000000" font-family="sans-serif" font-size="11" lengthAdjust="spacingAndGlyphs" text-decoration="underline" textLength="54" x="941.5" y="315.4189">TYPE: char</text><line style="stroke: #A80036; stroke-width: 1.5;" x1="922.5" x2="1039.5" y1="321.8359" y2="321.8359"/><ellipse cx="932.5" cy="334.2539" fill="#84BE84" rx="3" ry="3" style="stroke: #038048; stroke-width: 1.0;"/><text fill="#000000" font-family="sans-serif" font-size="11" lengthAdjust="spacingAndGlyphs" textLength="93" x="941.5" y="337.2549">WallCell(l: int, c: int)</text><!--class DirectionalCell--><rect fill="#FEFECE" filter="url(#fjn21otq3d5qq)" height="103.3438" id="DirectionalCell" style="stroke: #A80036; stroke-width: 1.5;" width="270" x="161" y="554"/><ellipse cx="251.25" cy="570" fill="#A9DCDF" rx="11" ry="11" style="stroke: #A80036; stroke-width: 1.0;"/><path d="M253,571.5 L249.7031,571.5 L249.2656,572.5 L249.2656,572.5 L249.7344,572.5 L250.25,573.125 L250.25,573.5 L250.25,573.875 L249.7344,574.5 L249.2656,574.5 L247.375,574.5 L246.7656,574.5 L246.25,573.875 L246.25,573.5 L246.25,573.125 L246.7656,572.5 L247.375,572.5 L249.6875,566.5 L248.8125,566.5 L247.7656,566.5 L247.25,565.875 L247.25,565.5 L247.25,565.125 L247.7656,564.5 L248.8125,564.5 L252.4844,564.5 L255.1719,572.5 L255.7344,572.5 L255.7344,572.5 L256.25,573.125 L256.25,573.5 L256.25,573.875 L255.7344,574.5 L255.1719,574.5 L253.2813,574.5 L252.7656,574.5 L252.25,573.875 L252.25,573.5 L252.25,573.125 L252.7656,572.5 L253.2813,572.5 L253.2813,572.5 L253,571.5 Z M252.4531,569.5 L251.25,565.9219 L250.2188,569.5 L252.4531,569.5 Z "/><text fill="#000000" font-family="sans-serif" font-size="12" font-style="italic" lengthAdjust="spacingAndGlyphs" textLength="81" x="271.75" y="574.9102">DirectionalCell</text><line style="stroke: #A80036; stroke-width: 1.5;" x1="162" x2="430" y1="586" y2="586"/><rect fill="none" height="6" style="stroke: #C82930; stroke-width: 1.0;" width="6" x="169" y="595.418"/><text fill="#000000" font-family="sans-serif" font-size="11" lengthAdjust="spacingAndGlyphs" textLength="60" x="181" y="601.4189">direction: Dir</text><line style="stroke: #A80036; stroke-width: 1.5;" x1="162" x2="430" y1="607.8359" y2="607.8359"/><polygon fill="#4177AF" points="172,616.2539,168,622.2539,176,622.2539" style="stroke: #1963A0; stroke-width: 1.0;"/><text fill="#000000" font-family="sans-serif" font-size="11" lengthAdjust="spacingAndGlyphs" textLength="244" x="181" y="623.2549">DirectionalCell(l: int, c: int, type: char, direction: Dir)</text><ellipse cx="172" cy="634.0898" fill="#84BE84" rx="3" ry="3" style="stroke: #038048; stroke-width: 1.0;"/><text fill="#000000" font-family="sans-serif" font-size="11" lengthAdjust="spacingAndGlyphs" textLength="84" x="181" y="637.0908">getDirection(): Dir</text><ellipse cx="172" cy="647.9258" fill="#84BE84" rx="3" ry="3" style="stroke: #038048; stroke-width: 1.0;"/><text fill="#000000" font-family="sans-serif" font-size="11" lengthAdjust="spacingAndGlyphs" textLength="217" x="181" y="650.9268">canHaveActor(dir: Dir, actor: Actor): boolean</text><!--class ObjectiveCell--><rect fill="#FEFECE" filter="url(#fjn21otq3d5qq)" height="75.6719" id="ObjectiveCell" style="stroke: #A80036; stroke-width: 1.5;" width="144" x="466" y="567.5"/><ellipse cx="499" cy="583.5" fill="#ADD1B2" rx="11" ry="11" style="stroke: #A80036; stroke-width: 1.0;"/><path d="M501,580 Q501.2031,579.5 501.4375,579.25 Q501.6719,579 501.9375,579 Q502.4063,579 502.7031,579.2813 Q503,579.5625 503,580.2188 L503,581.7813 Q503,582.4375 502.7188,582.7188 Q502.4375,583 502,583 Q501.6094,583 501.3594,582.8281 Q501.1094,582.6563 501,582.2031 Q500.9531,581.8906 500.7813,581.7188 Q500.4688,581.3906 499.9063,581.1953 Q499.3438,581 498.7813,581 Q498.0781,581 497.4922,581.2813 Q496.9063,581.5625 496.4531,582.1875 Q496,582.8125 496,583.6719 L496,584.5938 Q496,585.625 496.8438,586.3125 Q497.6875,587 499.1875,587 Q500.0781,587 500.7031,586.7969 Q501.0625,586.6875 501.4688,586.3281 Q501.7344,586.125 501.875,586.0625 Q502.0156,586 502.1875,586 Q502.5156,586 502.7578,586.2578 Q503,586.5156 503,586.875 Q503,587.2188 502.6563,587.625 Q502.1563,588.2188 501.3594,588.5469 Q500.3125,589 499.0313,589 Q497.5313,589 496.3281,588.4063 Q495.3594,587.9375 494.6797,586.9219 Q494,585.9063 494,584.7031 L494,583.6094 Q494,582.3594 494.6016,581.2656 Q495.2031,580.1719 496.2578,579.5859 Q497.3125,579 498.5,579 Q499.2188,579 499.8438,579.25 Q500.4688,579.5 501,580 Z "/><text fill="#000000" font-family="sans-serif" font-size="12" lengthAdjust="spacingAndGlyphs" textLength="72" x="517" y="588.4102">ObjectiveCell</text><line style="stroke: #A80036; stroke-width: 1.5;" x1="467" x2="609" y1="599.5" y2="599.5"/><ellipse cx="477" cy="611.918" fill="none" rx="3" ry="3" style="stroke: #038048; stroke-width: 1.0;"/><text fill="#000000" font-family="sans-serif" font-size="11" lengthAdjust="spacingAndGlyphs" text-decoration="underline" textLength="54" x="486" y="614.9189">TYPE: char</text><line style="stroke: #A80036; stroke-width: 1.5;" x1="467" x2="609" y1="621.3359" y2="621.3359"/><ellipse cx="477" cy="633.7539" fill="#84BE84" rx="3" ry="3" style="stroke: #038048; stroke-width: 1.0;"/><text fill="#000000" font-family="sans-serif" font-size="11" lengthAdjust="spacingAndGlyphs" textLength="118" x="486" y="636.7549">ObjectiveCell(l: int, c: int)</text><!--class UpCell--><rect fill="#FEFECE" filter="url(#fjn21otq3d5qq)" height="89.5078" id="UpCell" style="stroke: #A80036; stroke-width: 1.5;" width="112" x="6" y="717"/><ellipse cx="39.9" cy="733" fill="#ADD1B2" rx="11" ry="11" style="stroke: #A80036; stroke-width: 1.0;"/><path d="M41.9,729.5 Q42.1031,729 42.3375,728.75 Q42.5719,728.5 42.8375,728.5 Q43.3063,728.5 43.6031,728.7813 Q43.9,729.0625 43.9,729.7188 L43.9,731.2813 Q43.9,731.9375 43.6188,732.2188 Q43.3375,732.5 42.9,732.5 Q42.5094,732.5 42.2594,732.3281 Q42.0094,732.1563 41.9,731.7031 Q41.8531,731.3906 41.6813,731.2188 Q41.3688,730.8906 40.8063,730.6953 Q40.2438,730.5 39.6813,730.5 Q38.9781,730.5 38.3922,730.7813 Q37.8063,731.0625 37.3531,731.6875 Q36.9,732.3125 36.9,733.1719 L36.9,734.0938 Q36.9,735.125 37.7438,735.8125 Q38.5875,736.5 40.0875,736.5 Q40.9781,736.5 41.6031,736.2969 Q41.9625,736.1875 42.3688,735.8281 Q42.6344,735.625 42.775,735.5625 Q42.9156,735.5 43.0875,735.5 Q43.4156,735.5 43.6578,735.7578 Q43.9,736.0156 43.9,736.375 Q43.9,736.7188 43.5563,737.125 Q43.0563,737.7188 42.2594,738.0469 Q41.2125,738.5 39.9313,738.5 Q38.4313,738.5 37.2281,737.9063 Q36.2594,737.4375 35.5797,736.4219 Q34.9,735.4063 34.9,734.2031 L34.9,733.1094 Q34.9,731.8594 35.5016,730.7656 Q36.1031,729.6719 37.1578,729.0859 Q38.2125,728.5 39.4,728.5 Q40.1188,728.5 40.7438,728.75 Q41.3688,729 41.9,729.5 Z "/><text fill="#000000" font-family="sans-serif" font-size="12" lengthAdjust="spacingAndGlyphs" textLength="38" x="58.1" y="737.9102">UpCell</text><line style="stroke: #A80036; stroke-width: 1.5;" x1="7" x2="117" y1="749" y2="749"/><ellipse cx="17" cy="761.418" fill="none" rx="3" ry="3" style="stroke: #038048; stroke-width: 1.0;"/><text fill="#000000" font-family="sans-serif" font-size="11" lengthAdjust="spacingAndGlyphs" text-decoration="underline" textLength="54" x="26" y="764.4189">TYPE: char</text><ellipse cx="17" cy="775.2539" fill="none" rx="3" ry="3" style="stroke: #038048; stroke-width: 1.0;"/><text fill="#000000" font-family="sans-serif" font-size="11" lengthAdjust="spacingAndGlyphs" text-decoration="underline" textLength="71" x="26" y="778.2549">DIRECTION: Dir</text><line style="stroke: #A80036; stroke-width: 1.5;" x1="7" x2="117" y1="784.6719" y2="784.6719"/><ellipse cx="17" cy="797.0898" fill="#84BE84" rx="3" ry="3" style="stroke: #038048; stroke-width: 1.0;"/><text fill="#000000" font-family="sans-serif" font-size="11" lengthAdjust="spacingAndGlyphs" textLength="86" x="26" y="800.0908">UpCell(l: int, c: int)</text><!--class DownCell--><rect fill="#FEFECE" filter="url(#fjn21otq3d5qq)" height="89.5078" id="DownCell" style="stroke: #A80036; stroke-width: 1.5;" width="128" x="153" y="717"/><ellipse cx="186.9" cy="733" fill="#ADD1B2" rx="11" ry="11" style="stroke: #A80036; stroke-width: 1.0;"/><path d="M188.9,729.5 Q189.1031,729 189.3375,728.75 Q189.5719,728.5 189.8375,728.5 Q190.3063,728.5 190.6031,728.7813 Q190.9,729.0625 190.9,729.7188 L190.9,731.2813 Q190.9,731.9375 190.6188,732.2188 Q190.3375,732.5 189.9,732.5 Q189.5094,732.5 189.2594,732.3281 Q189.0094,732.1563 188.9,731.7031 Q188.8531,731.3906 188.6813,731.2188 Q188.3688,730.8906 187.8063,730.6953 Q187.2438,730.5 186.6813,730.5 Q185.9781,730.5 185.3922,730.7813 Q184.8063,731.0625 184.3531,731.6875 Q183.9,732.3125 183.9,733.1719 L183.9,734.0938 Q183.9,735.125 184.7438,735.8125 Q185.5875,736.5 187.0875,736.5 Q187.9781,736.5 188.6031,736.2969 Q188.9625,736.1875 189.3688,735.8281 Q189.6344,735.625 189.775,735.5625 Q189.9156,735.5 190.0875,735.5 Q190.4156,735.5 190.6578,735.7578 Q190.9,736.0156 190.9,736.375 Q190.9,736.7188 190.5563,737.125 Q190.0563,737.7188 189.2594,738.0469 Q188.2125,738.5 186.9313,738.5 Q185.4313,738.5 184.2281,737.9063 Q183.2594,737.4375 182.5797,736.4219 Q181.9,735.4063 181.9,734.2031 L181.9,733.1094 Q181.9,731.8594 182.5016,730.7656 Q183.1031,729.6719 184.1578,729.0859 Q185.2125,728.5 186.4,728.5 Q187.1188,728.5 187.7438,728.75 Q188.3688,729 188.9,729.5 Z "/><text fill="#000000" font-family="sans-serif" font-size="12" lengthAdjust="spacingAndGlyphs" textLength="54" x="205.1" y="737.9102">DownCell</text><line style="stroke: #A80036; stroke-width: 1.5;" x1="154" x2="280" y1="749" y2="749"/><ellipse cx="164" cy="761.418" fill="none" rx="3" ry="3" style="stroke: #038048; stroke-width: 1.0;"/><text fill="#000000" font-family="sans-serif" font-size="11" lengthAdjust="spacingAndGlyphs" text-decoration="underline" textLength="54" x="173" y="764.4189">TYPE: char</text><ellipse cx="164" cy="775.2539" fill="none" rx="3" ry="3" style="stroke: #038048; stroke-width: 1.0;"/><text fill="#000000" font-family="sans-serif" font-size="11" lengthAdjust="spacingAndGlyphs" text-decoration="underline" textLength="71" x="173" y="778.2549">DIRECTION: Dir</text><line style="stroke: #A80036; stroke-width: 1.5;" x1="154" x2="280" y1="784.6719" y2="784.6719"/><ellipse cx="164" cy="797.0898" fill="#84BE84" rx="3" ry="3" style="stroke: #038048; stroke-width: 1.0;"/><text fill="#000000" font-family="sans-serif" font-size="11" lengthAdjust="spacingAndGlyphs" textLength="102" x="173" y="800.0908">DownCell(l: int, c: int)</text><!--class LeftCell--><rect fill="#FEFECE" filter="url(#fjn21otq3d5qq)" height="89.5078" id="LeftCell" style="stroke: #A80036; stroke-width: 1.5;" width="118" x="316" y="717"/><ellipse cx="350.8" cy="733" fill="#ADD1B2" rx="11" ry="11" style="stroke: #A80036; stroke-width: 1.0;"/><path d="M352.8,729.5 Q353.0031,729 353.2375,728.75 Q353.4719,728.5 353.7375,728.5 Q354.2063,728.5 354.5031,728.7813 Q354.8,729.0625 354.8,729.7188 L354.8,731.2813 Q354.8,731.9375 354.5188,732.2188 Q354.2375,732.5 353.8,732.5 Q353.4094,732.5 353.1594,732.3281 Q352.9094,732.1563 352.8,731.7031 Q352.7531,731.3906 352.5813,731.2188 Q352.2688,730.8906 351.7063,730.6953 Q351.1438,730.5 350.5813,730.5 Q349.8781,730.5 349.2922,730.7813 Q348.7063,731.0625 348.2531,731.6875 Q347.8,732.3125 347.8,733.1719 L347.8,734.0938 Q347.8,735.125 348.6438,735.8125 Q349.4875,736.5 350.9875,736.5 Q351.8781,736.5 352.5031,736.2969 Q352.8625,736.1875 353.2688,735.8281 Q353.5344,735.625 353.675,735.5625 Q353.8156,735.5 353.9875,735.5 Q354.3156,735.5 354.5578,735.7578 Q354.8,736.0156 354.8,736.375 Q354.8,736.7188 354.4563,737.125 Q353.9563,737.7188 353.1594,738.0469 Q352.1125,738.5 350.8313,738.5 Q349.3313,738.5 348.1281,737.9063 Q347.1594,737.4375 346.4797,736.4219 Q345.8,735.4063 345.8,734.2031 L345.8,733.1094 Q345.8,731.8594 346.4016,730.7656 Q347.0031,729.6719 348.0578,729.0859 Q349.1125,728.5 350.3,728.5 Q351.0188,728.5 351.6438,728.75 Q352.2688,729 352.8,729.5 Z "/><text fill="#000000" font-family="sans-serif" font-size="12" lengthAdjust="spacingAndGlyphs" textLength="42" x="369.2" y="737.9102">LeftCell</text><line style="stroke: #A80036; stroke-width: 1.5;" x1="317" x2="433" y1="749" y2="749"/><ellipse cx="327" cy="761.418" fill="none" rx="3" ry="3" style="stroke: #038048; stroke-width: 1.0;"/><text fill="#000000" font-family="sans-serif" font-size="11" lengthAdjust="spacingAndGlyphs" text-decoration="underline" textLength="54" x="336" y="764.4189">TYPE: char</text><ellipse cx="327" cy="775.2539" fill="none" rx="3" ry="3" style="stroke: #038048; stroke-width: 1.0;"/><text fill="#000000" font-family="sans-serif" font-size="11" lengthAdjust="spacingAndGlyphs" text-decoration="underline" textLength="71" x="336" y="778.2549">DIRECTION: Dir</text><line style="stroke: #A80036; stroke-width: 1.5;" x1="317" x2="433" y1="784.6719" y2="784.6719"/><ellipse cx="327" cy="797.0898" fill="#84BE84" rx="3" ry="3" style="stroke: #038048; stroke-width: 1.0;"/><text fill="#000000" font-family="sans-serif" font-size="11" lengthAdjust="spacingAndGlyphs" textLength="92" x="336" y="800.0908">LeftCell(l: int, c: int)</text><!--class RightCell--><rect fill="#FEFECE" filter="url(#fjn21otq3d5qq)" height="89.5078" id="RightCell" style="stroke: #A80036; stroke-width: 1.5;" width="123" x="469.5" y="717"/><ellipse cx="502.5" cy="733" fill="#ADD1B2" rx="11" ry="11" style="stroke: #A80036; stroke-width: 1.0;"/><path d="M504.5,729.5 Q504.7031,729 504.9375,728.75 Q505.1719,728.5 505.4375,728.5 Q505.9063,728.5 506.2031,728.7813 Q506.5,729.0625 506.5,729.7188 L506.5,731.2813 Q506.5,731.9375 506.2188,732.2188 Q505.9375,732.5 505.5,732.5 Q505.1094,732.5 504.8594,732.3281 Q504.6094,732.1563 504.5,731.7031 Q504.4531,731.3906 504.2813,731.2188 Q503.9688,730.8906 503.4063,730.6953 Q502.8438,730.5 502.2813,730.5 Q501.5781,730.5 500.9922,730.7813 Q500.4063,731.0625 499.9531,731.6875 Q499.5,732.3125 499.5,733.1719 L499.5,734.0938 Q499.5,735.125 500.3438,735.8125 Q501.1875,736.5 502.6875,736.5 Q503.5781,736.5 504.2031,736.2969 Q504.5625,736.1875 504.9688,735.8281 Q505.2344,735.625 505.375,735.5625 Q505.5156,735.5 505.6875,735.5 Q506.0156,735.5 506.2578,735.7578 Q506.5,736.0156 506.5,736.375 Q506.5,736.7188 506.1563,737.125 Q505.6563,737.7188 504.8594,738.0469 Q503.8125,738.5 502.5313,738.5 Q501.0313,738.5 499.8281,737.9063 Q498.8594,737.4375 498.1797,736.4219 Q497.5,735.4063 497.5,734.2031 L497.5,733.1094 Q497.5,731.8594 498.1016,730.7656 Q498.7031,729.6719 499.7578,729.0859 Q500.8125,728.5 502,728.5 Q502.7188,728.5 503.3438,728.75 Q503.9688,729 504.5,729.5 Z "/><text fill="#000000" font-family="sans-serif" font-size="12" lengthAdjust="spacingAndGlyphs" textLength="51" x="520.5" y="737.9102">RightCell</text><line style="stroke: #A80036; stroke-width: 1.5;" x1="470.5" x2="591.5" y1="749" y2="749"/><ellipse cx="480.5" cy="761.418" fill="none" rx="3" ry="3" style="stroke: #038048; stroke-width: 1.0;"/><text fill="#000000" font-family="sans-serif" font-size="11" lengthAdjust="spacingAndGlyphs" text-decoration="underline" textLength="54" x="489.5" y="764.4189">TYPE: char</text><ellipse cx="480.5" cy="775.2539" fill="none" rx="3" ry="3" style="stroke: #038048; stroke-width: 1.0;"/><text fill="#000000" font-family="sans-serif" font-size="11" lengthAdjust="spacingAndGlyphs" text-decoration="underline" textLength="71" x="489.5" y="778.2549">DIRECTION: Dir</text><line style="stroke: #A80036; stroke-width: 1.5;" x1="470.5" x2="591.5" y1="784.6719" y2="784.6719"/><ellipse cx="480.5" cy="797.0898" fill="#84BE84" rx="3" ry="3" style="stroke: #038048; stroke-width: 1.0;"/><text fill="#000000" font-family="sans-serif" font-size="11" lengthAdjust="spacingAndGlyphs" textLength="97" x="489.5" y="800.0908">RightCell(l: int, c: int)</text><!--link Cell to PlayableCell--><path d="M695.015,221.62 C676.196,238.31 658.029,254.422 642.765,267.959 " fill="none" id="Cell-PlayableCell" style="stroke: #A80036; stroke-width: 1.0;"/><polygon fill="none" points="690.597,216.182,710.205,208.148,699.887,226.656,690.597,216.182" style="stroke: #A80036; stroke-width: 1.0;"/><!--link Cell to EmptyCell--><path d="M822,228.432 C822,242.578 822,256.096 822,267.73 " fill="none" id="Cell-EmptyCell" style="stroke: #A80036; stroke-width: 1.0;"/><polygon fill="none" points="815,228.148,822,208.148,829,228.148,815,228.148" style="stroke: #A80036; stroke-width: 1.0;"/><!--link PlayableCell to FloorCell--><path d="M536.594,356.355 C516.38,371.844 494.209,388.835 474.505,403.934 " fill="none" id="PlayableCell-FloorCell" style="stroke: #A80036; stroke-width: 1.0;"/><polygon fill="none" points="532.523,350.655,552.656,344.046,541.039,361.767,532.523,350.655" style="stroke: #A80036; stroke-width: 1.0;"/><!--link PlayableCell to HoleCell--><path d="M601,364.204 C601,379.881 601,396.469 601,410.712 " fill="none" id="PlayableCell-HoleCell" style="stroke: #A80036; stroke-width: 1.0;"/><polygon fill="none" points="594,364.046,601,344.046,608,364.046,594,364.046" style="stroke: #A80036; stroke-width: 1.0;"/><!--link PlayableCell to DoorCell--><path d="M657.072,357.681 C676.542,375.278 697.995,394.668 716.016,410.957 " fill="none" id="PlayableCell-DoorCell" style="stroke: #A80036; stroke-width: 1.0;"/><polygon fill="none" points="652.131,362.65,641.987,344.046,661.518,352.264,652.131,362.65" style="stroke: #A80036; stroke-width: 1.0;"/><!--link Cell to WallCell--><path d="M915.31,224.024 C928.076,239.76 940.352,254.893 950.766,267.73 " fill="none" id="Cell-WallCell" style="stroke: #A80036; stroke-width: 1.0;"/><polygon fill="none" points="909.595,228.09,902.432,208.148,920.468,219.27,909.595,228.09" style="stroke: #A80036; stroke-width: 1.0;"/><!--link FloorCell to DirectionalCell--><path d="M369.891,510.152 C358.547,524.636 346.542,539.965 335.581,553.96 " fill="none" id="FloorCell-DirectionalCell" style="stroke: #A80036; stroke-width: 1.0;"/><polygon fill="none" points="364.484,505.703,382.326,494.273,375.506,514.335,364.484,505.703" style="stroke: #A80036; stroke-width: 1.0;"/><!--link FloorCell to ObjectiveCell--><path d="M464.226,510.301 C479.272,529.513 495.47,550.195 508.845,567.273 " fill="none" id="FloorCell-ObjectiveCell" style="stroke: #A80036; stroke-width: 1.0;"/><polygon fill="none" points="458.494,514.335,451.674,494.273,469.516,505.703,458.494,514.335" style="stroke: #A80036; stroke-width: 1.0;"/><!--link DirectionalCell to UpCell--><path d="M202.367,668.322 C173.787,687.192 143.268,707.3424 118.012,724.018 " fill="none" id="DirectionalCell-UpCell" style="stroke: #A80036; stroke-width: 1.0;"/><polygon fill="none" points="198.832,662.267,219.38,657.089,206.546,673.951,198.832,662.267" style="stroke: #A80036; stroke-width: 1.0;"/><!--link DirectionalCell to DownCell--><path d="M260.847,675.248 C253.636,689.351 246.229,703.837 239.604,716.7944 " fill="none" id="DirectionalCell-DownCell" style="stroke: #A80036; stroke-width: 1.0;"/><polygon fill="none" points="254.795,671.709,270.132,657.089,267.26,678.083,254.795,671.709" style="stroke: #A80036; stroke-width: 1.0;"/><!--link DirectionalCell to LeftCell--><path d="M331.153,675.248 C338.364,689.351 345.771,703.837 352.396,716.7944 " fill="none" id="DirectionalCell-LeftCell" style="stroke: #A80036; stroke-width: 1.0;"/><polygon fill="none" points="324.74,678.083,321.868,657.089,337.205,671.709,324.74,678.083" style="stroke: #A80036; stroke-width: 1.0;"/><!--link DirectionalCell to RightCell--><path d="M389.741,668.13 C416.442,685.684 444.851,704.361 469.136,720.328 " fill="none" id="DirectionalCell-RightCell" style="stroke: #A80036; stroke-width: 1.0;"/><polygon fill="none" points="385.814,673.925,372.948,657.089,393.505,662.227,385.814,673.925" style="stroke: #A80036; stroke-width: 1.0;"/><!--
@startuml

Cell <|- - PlayableCell
Cell <|- - EmptyCell
PlayableCell <|- - FloorCell
PlayableCell <|- - HoleCell
PlayableCell <|- - DoorCell
Cell <|- - WallCell

FloorCell <|- - DirectionalCell
FloorCell <|- - ObjectiveCell
DirectionalCell <|- - UpCell
DirectionalCell <|- - DownCell
DirectionalCell <|- - LeftCell
DirectionalCell <|- - RightCell

abstract class Cell {
    -type: char
    +line: int
    +column: int
    #actor: Actor

    +Cell(l: int, c: int, type: char)
    +canHaveActor(dir: Dir, actor: Actor): boolean
    +setActor(actor: Actor)
    +getActor(): Actor
    +hasActor(): boolean
    +getType(): char
    +{static} getCellByType(l: int, c: int, type: char)
}

abstract class PlayableCell {
    +PlayableCell(l: int, c: int, type: char)
    +canHaveActor(dir: Dir, actor: Actor): boolean
}

abstract class DirectionalCell {
    -direction: Dir
    ~DirectionalCell(l: int, c: int, type: char, direction: Dir)
    +getDirection(): Dir
    +canHaveActor(dir: Dir, actor: Actor): boolean
}

class FloorCell {
    +{static} TYPE: char
    +FloorCell(l: int, c: int)
    #FloorCell(l: int, c: int, type: char)
}

class UpCell {
    +{static} TYPE: char
    +{static} DIRECTION: Dir
    +UpCell(l: int, c: int)
}

class DownCell {
    +{static} TYPE: char
    +{static} DIRECTION: Dir
    +DownCell(l: int, c: int)
}

class LeftCell {
    +{static} TYPE: char
    +{static} DIRECTION: Dir
    +LeftCell(l: int, c: int)
}

class RightCell {
    +{static} TYPE: char
    +{static} DIRECTION: Dir
    +RightCell(l: int, c: int)
}

class EmptyCell {
    +{static} TYPE: char
    +EmptyCell(l: int, c: int)
}

class WallCell {
    +{static} TYPE: char
    +WallCell(l: int, c: int)
}

class HoleCell {
    +{static} TYPE: char
    +HoleCell(l: int, c: int)
}

class DoorCell {
    +{static} TYPE: char
    +DoorCell(l: int, c: int)
}

class ObjectiveCell {
    +{static} TYPE: char
    +ObjectiveCell(l: int, c: int)
}

@enduml

PlantUML version 1.2019.04(Fri Mar 29 15:44:36 GMT 2019)
(GPL source distribution)
Java Runtime: OpenJDK Runtime Environment
JVM: OpenJDK 64-Bit Server VM
Java Version: 1.8.0_202-release-1483-b39
Operating System: Windows 10
OS Version: 10.0
Default Encoding: Cp1252
Language: pt
Country: PT
--></g></svg>